SplineFontDB: 3.2
FontName: FRBAmericanCursive-Regular
FullName: FRB American Cursive
FamilyName: FRB American Cursive
Weight: Regular
Copyright: Copyright (c) 2021, Fredrick R. Brennan
UComments: "2021-1-3: Created with FontForge (http://fontforge.org)"
Version: 001.2
StrokeWidth: 20
ItalicAngle: -25
UnderlinePosition: -125
UnderlineWidth: 62
Ascent: 650
Descent: 350
InvalidEm: 0
LayerCount: 2
Layer: 0 0 "Back" 1
Layer: 1 0 "Fore" 0
StrokedFont: 1
XUID: [1021 867 936190670 5556142]
StyleMap: 0x0000
FSType: 0
OS2Version: 0
OS2_WeightWidthSlopeOnly: 0
OS2_UseTypoMetrics: 1
CreationTime: 1609722878
ModificationTime: 1617456486
OS2TypoAscent: 0
OS2TypoAOffset: 1
OS2TypoDescent: 0
OS2TypoDOffset: 1
OS2TypoLinegap: 90
OS2WinAscent: 0
OS2WinAOffset: 1
OS2WinDescent: 0
OS2WinDOffset: 1
HheadAscent: 0
HheadAOffset: 1
HheadDescent: 0
HheadDOffset: 1
OS2Vendor: 'PfEd'
Lookup: 260 0 0 "'mark' Mark Positioning lookup 1" { "'mark' Mark Positioning lookup 1-1"  } ['mark' ('DFLT' <'dflt' > 'cyrl' <'dflt' > 'latn' <'dflt' > ) ]
Lookup: 258 0 0 "'kern' Horizontal Kerning lookup 0" { "'kern' Horizontal Kerning lookup 0-1" [150,0,0] } ['kern' ('DFLT' <'dflt' > 'cyrl' <'dflt' > 'latn' <'dflt' > ) ]
MarkAttachClasses: 1
DEI: 91125
KernClass2: 3 3 "'kern' Horizontal Kerning lookup 0-1"
 4 zero
 44 one two three four five six seven eight nine
 4 zero
 47 one two three four five six seven eight nine mu
 0 {} 0 {} 0 {} 0 {} -69 {} 67 {} 0 {} 47 {} 65 {}
LangName: 1033
Encoding: UnicodeBmp
Compacted: 1
UnicodeInterp: none
NameList: AGL For New Fonts
DisplaySize: -48
AntiAlias: 1
FitToEm: 0
WinInfo: 28 28 15
BeginPrivate: 0
EndPrivate
Grid
-1000 -291 m 0
 2000 -291 l 1024
  Named: "descender"
-1000 171.16015625 m 0
 2000 171.16015625 l 1024
  Named: "high merge"
-1000 76.6639099121 m 0
 2000 76.6639099121 l 1024
  Named: "low merge"
-1000 540.953430176 m 4
 2000 540.953430176 l 1024
  Named: "cap height"
-1250 264.48046875 m 0
 2500 264.48046875 l 1024
  Named: "x-height"

StartChar: five
Encoding: 53 53 0
Width: 550
VWidth: 946
Flags: W
LayerCount: 2
Fore
SplineSet
740.288085938 544 m 1
 452.288085938 544 l 1
 315.288085938 257 l 1
 315.288085938 257 377.485984015 294.175755172 438.410978654 294.175755172 c 0
 503.409130515 294.175755172 537.412830045 246.853055949 537.412830045 187.53158476 c 0
 537.412830045 74.4906715301 418.658945893 -7.00836498082 308.545333571 -7.00836498082 c 4
 175 -7.00836498082 99.9466109908 77.1309126831 99.9466109908 77.1309126831 c 1024
EndSplineSet
EndChar

StartChar: zero
Encoding: 48 48 1
Width: 550
VWidth: 946
Flags: W
LayerCount: 2
Back
SplineSet
568.953125 239 m 4
 469.091948529 25.8211764706 357.694035727 -5.27785190311 301.190923976 -5.27785190311 c 4
 164.502338966 -5.27785190311 179.049151418 193.177472616 241.953125 320 c 4
 332.974401596 504.021276596 437.04683256 535.34404708 497.356243769 535.34404708 c 4
 629.46783569 535.34404708 622.856282006 354.81173337 568.953125 239 c 4
EndSplineSet
Fore
SplineSet
497.356243769 535.34404708 m 1
 437.04683256 535.34404708 332.974401596 504.021276596 241.953125 320 c 0
 179.049151418 193.177472616 164.502338966 -5.27785190311 301.190923976 -5.27785190311 c 0
 357.694035727 -5.27785190311 469.091948529 25.8211764706 568.953125 239 c 0
 622.856282006 354.81173337 629.46783569 535.34404708 497.356243769 535.34404708 c 1025
EndSplineSet
EndChar

StartChar: two
Encoding: 50 50 2
Width: 550
VWidth: 946
Flags: W
LayerCount: 2
Fore
SplineSet
338.063476562 581 m 1
 302.063476562 479 l 1025
302.063476562 479 m 1
 302.063476562 479 345.774013838 553.117867555 413.531164345 553.117867555 c 0
 448.404066317 553.117867555 513.633976035 526.216761276 513.633976035 463.415668004 c 0
 513.633976035 340.294773367 304.523266627 189.886977165 94.0634765625 -6 c 17
 109.267035382 -2.2411488162 201.703194267 31.4928365942 308.453489025 31.4928365942 c 0
 364.751937055 31.4928365942 425.031638436 22.1102553687 480.063476562 -6 c 1025
EndSplineSet
EndChar

StartChar: three
Encoding: 51 51 3
Width: 550
VWidth: 946
Flags: W
LayerCount: 2
Fore
SplineSet
409.302734375 569 m 1
 364.302734375 502 l 1025
364.302734375 502 m 5
 386.346746595 519.456797253 421.805605593 541.225513021 478.104492188 542.522460938 c 4
 534.810150587 543.828779588 574.048828125 483.765625 574.048828125 438.666992188 c 4
 574.048828125 348.053710938 439.641601562 295.56640625 372.302734375 278 c 4
 352.223632812 272.76171875 336.563476562 269.959960938 330.287109375 269.959960938 c 5
 344 270 364 277 372.302734375 277 c 4
 408 277 458.46875 223.256835938 458.46875 151.03125 c 4
 458.46875 72 367.966796875 0.54296875 259.048828125 0.54296875 c 4
 194.825195312 0.54296875 135.184570312 27.107421875 122.302734375 71 c 1028
EndSplineSet
EndChar

StartChar: seven
Encoding: 55 55 4
Width: 550
VWidth: 946
Flags: W
LayerCount: 2
Fore
SplineSet
288.625976562 457 m 5
 328.350585938 537 l 2
 328.350585938 537 578.350585938 537 605.350585938 538 c 1
 296.350585938 0 l 1025
EndSplineSet
EndChar

StartChar: six
Encoding: 54 54 5
Width: 550
VWidth: 946
Flags: W
LayerCount: 2
Fore
SplineSet
525.454101562 544 m 0
 330 454 235.497788009 243.766941042 235.497788009 123.090020119 c 0
 235.497788009 49.1358383703 277.729881849 -2.0214828928 373.102935834 -2.0214828928 c 0
 443.362277136 -2.0214828928 540.29239253 69.8788861013 540.29239253 165.090143006 c 0
 540.29239253 198 517 220.881172445 486.197850751 220.881172445 c 0
 456.911156839 220.881172445 344 197.629153994 344 16.6594887811 c 0
 344 13.7729925208 344 10.8864962604 344 8 c 1025
EndSplineSet
EndChar

StartChar: four
Encoding: 52 52 6
Width: 550
VWidth: 946
Flags: W
LayerCount: 2
Fore
SplineSet
570.748046875 544 m 1
 315.748046875 0 l 1049
355.748046875 544 m 0
 355.748046875 544 173.748046875 226 168.748046875 218 c 1
 168.748046875 218 309.748046875 273 602.748046875 257 c 1024
EndSplineSet
EndChar

StartChar: eight
Encoding: 56 56 7
Width: 550
VWidth: 946
Flags: W
LayerCount: 2
Fore
SplineSet
624.39453125 488 m 0
 615.39453125 496 545.512831529 543.043718635 444.39453125 542 c 0
 389.398273262 541.432341929 349.522096594 519.709951057 327.000004812 491.650700254 c 0
 250.945846437 396.89828005 417.39453125 281.660393855 417.39453125 124 c 4
 417.39453125 40 332.96484375 -2 271.39453125 -2 c 0
 215 -2 176.39453125 48.8520545173 176.39453125 103 c 0
 176.39453125 248 597.454895399 464.29923441 693.39453125 527 c 1024
EndSplineSet
EndChar

StartChar: a
Encoding: 97 97 8
Width: 445
VWidth: -303
Flags: W
LayerCount: 2
Fore
SplineSet
347 241 m 0
 347 241 323.974196469 256.815703435 283.306658662 256.815703435 c 0
 239.648860721 256.815703435 175.659574468 238.588652482 98 163 c 0
 33.7967483984 100.508835108 13.3789077469 59.8187744125 13.3789077469 34.1077420215 c 0
 13.3789077469 4.02795449006 41.3249497654 -5.54993171237 59.799142909 -5.54993171237 c 0
 62.4269700505 -5.54993171237 64.8631522381 -5.35614129365 67 -5 c 0
 97 0 208 49 269 127 c 0
 330 205 346 240 346 240 c 1
 346 240 342 231 334 219 c 0
 331 214 327 208 323 202 c 0
 304 173 279 137 274 129 c 0
 268.257835739 120.067744482 235.649230408 65.1368853156 235.649230408 28.8767960963 c 0
 235.649230408 10.2456951513 244.258206971 -3.45614803296 269.544120185 -3.45614803296 c 0
 322.955832305 -3.45614803296 413.126793957 54.3521408616 445 76.67 c 1028
EndSplineSet
EndChar

StartChar: a.high
Encoding: 65536 -1 9
Width: 474
VWidth: -303
Flags: W
LayerCount: 2
Fore
SplineSet
0 171 m 0
 84 171 183 258.356445312 287.9453125 258.356445312 c 0
 300.185546875 258.356445312 329.7109375 254.973632812 358 238 c 1
 354.9296875 240.251953125 326.771484375 258.5 286.375 258.5 c 0
 280.958007812 258.5 198.467773438 264.78125 85 132 c 1
 85 132 39.6484375 80.2998046875 39.6484375 39.0947265625 c 0
 39.6484375 37.0341796875 39.76171875 35 40 33 c 0
 42.67578125 10.5224609375 57.3818359375 -3.935546875 81.357421875 -3.935546875 c 0
 102.181640625 -3.935546875 129.998046875 6.970703125 163 33 c 0
 234 89 336 190 359 236 c 1
 357.225585938 233.211914062 271.268554688 86.76953125 271.268554688 24.0361328125 c 0
 271.268554688 6.892578125 277.688476562 -4 294 -4 c 0
 367.82421875 -4 433.099609375 48.361328125 474 77 c 1024
EndSplineSet
EndChar

StartChar: a.low
Encoding: 65537 -1 10
Width: 565
VWidth: -303
Flags: W
LayerCount: 2
Fore
SplineSet
0 76.6640625 m 0
 143.458007812 177.114257812 303 256.788085938 367.615234375 256.788085938 c 0
 389.485351562 256.788085938 408.459960938 251.385742188 423 241 c 1
 423 241 403.80859375 256.079101562 366.291992188 256.079101562 c 0
 295 256.079101562 96.111328125 161 96.111328125 34.1748046875 c 0
 96.111328125 2.5439453125 113.478515625 -7.3125 144.739257812 -7.3125 c 0
 247.99609375 -7.3125 368.482421875 132.918945312 426 238 c 1
 386.543945312 166.001953125 312.317382812 79.7685546875 312.317382812 31.60546875 c 0
 312.317382812 8.1337890625 333.989257812 -4.6728515625 363.045898438 -4.6728515625 c 0
 420.326171875 -4.6728515625 510.590820312 38.56640625 565 76.6640625 c 1028
EndSplineSet
EndChar

StartChar: b
Encoding: 98 98 11
Width: 691
VWidth: -303
Flags: W
LayerCount: 2
Fore
SplineSet
13 0 m 4
 233.333984375 111.072265625 604.074792244 382.25100488 604.074792244 484.41303397 c 0
 604.074792244 492.938906434 594.199131116 539.173312152 558.939366046 539.173312152 c 0
 529.877527703 539.173312152 497.119429464 503.558922321 482 475 c 0
 465.4760411 443.788077633 278.736863625 120.030388153 278.736863625 39.9267403613 c 0
 278.736863625 12.4640374241 285.97028203 -9.20841759848 322.098539951 -9.20841759848 c 0
 374.573830017 -9.20841759848 509 155 525 263 c 1
 530.189870139 226.016712108 571.094726562 171.16015625 691 171.16015625 c 1024
EndSplineSet
EndChar

StartChar: b.high
Encoding: 65538 -1 12
Width: 442
VWidth: -303
Flags: W
LayerCount: 2
Fore
SplineSet
-9 170 m 0
 -9 170 74 163 188 277 c 0
 302 391 351 457 362 482 c 0
 373 507 358 520 349 530 c 0
 340 540 294 550 269 507 c 2
 244 464 l 1
 244 464 151 251 85 158 c 0
 19 65 26 -19 77 -11 c 0
 128 -3 176 53 215 111 c 0
 254 169 279 224 275 264 c 1
 279 239 301 171.16015625 442 171.16015625 c 1024
EndSplineSet
EndChar

StartChar: b.low
Encoding: 65539 -1 13
Width: 536
VWidth: -303
Flags: W
LayerCount: 2
Fore
SplineSet
0 76.6640625 m 17
 31.7421417162 98.8901494086 104.74472164 150.527518807 181.999996787 212.058350778 c 0
 302.821720697 308.288170401 434.035438417 428.709444771 434.035438417 498.631818123 c 0
 434.035438417 525.472296982 421.742550686 542.321332512 402.923386846 542.321332512 c 0
 320.2798368 542.321332512 116.904858236 107.131378667 116.904858236 39.6408515636 c 0
 116.904858236 17.5778888603 126.570849239 -11.3178227632 152.164196442 -11.3178227632 c 0
 203.028167965 -11.3178227632 319.197425958 79.6357456062 360 255 c 5
 360 225 420.420898425 171.325285163 536 171.16015625 c 1028
EndSplineSet
EndChar

StartChar: c
Encoding: 99 99 14
Width: 328
VWidth: -303
Flags: W
LayerCount: 2
Fore
SplineSet
233 207 m 0
 232.999999998 221.783415109 215.000000008 254.921769621 168 256 c 0
 119.918992054 257.10302986 75 232 40 162 c 0
 5 92 -0.065186599328 -3 69 -3 c 4
 170 -3 255.398554315 25.8279829462 328 76.6640625 c 1028
EndSplineSet
EndChar

StartChar: c.high
Encoding: 65540 -1 15
Width: 347
VWidth: -303
Flags: W
LayerCount: 2
Fore
SplineSet
0 171 m 0
 65 171 129.604548253 254.37109375 198.330078125 254.37109375 c 0
 220.797851562 254.37109375 244.066559504 243.34281671 261 208 c 1025
261 208 m 1
 259 211 244.192382812 254.37109375 198.330078125 254.37109375 c 0
 104.540039062 254.37109375 39.22265625 107.759765625 39.22265625 53.013671875 c 0
 39.22265625 18.4560546875 58.283203125 -5.34375 117.409179688 -5.34375 c 0
 155.41796875 -5.34375 274.086914062 25.9462890625 347 77 c 1028
EndSplineSet
EndChar

StartChar: c.low
Encoding: 65541 -1 16
Width: 386
VWidth: -303
Flags: W
LayerCount: 2
Fore
SplineSet
0 76.6640625 m 0
 113.456055502 156.106501846 152 256.481705321 223.669382684 256.481705321 c 3
 242.204732555 256.481705321 279.599616627 244.534643191 290 209 c 1025
290 209 m 1
 279.599616627 244.534643191 242.348632812 256.481445312 223.668945312 256.481445312 c 3
 159.174154311 256.481445312 68.6327320903 142.350631028 68.6327320903 58.7301128238 c 3
 68.6327320903 39 81 -4.84375 157.577148438 -4.84375 c 4
 226.766601562 -4.84375 308.171875 22.572265625 386 76.6640625 c 1024
EndSplineSet
EndChar

StartChar: d
Encoding: 100 100 17
Width: 463
VWidth: -303
Flags: W
LayerCount: 2
Fore
SplineSet
329 251 m 0
 329 251 304.141989451 259.38957856 266.857241693 259.38957856 c 0
 209.549203474 259.38957856 122.883211679 239.569343066 52 139 c 0
 20.5085965577 94.3198891331 8.22992458869 62.7318458049 8.22992458869 41.2301122492 c 0
 8.22992458869 12.6521643908 29.9207497944 1.89174368938 57.0207497944 1.89174368938 c 0
 232.000749794 1.89174368938 396.4921875 380.825195312 484 544 c 1029
484 544 m 5
 432.086914062 428.856445312 225.12109375 77 225.12109375 36.9853515625 c 0
 225.12109375 11.0625 234.184570312 -10.650390625 264.55078125 -10.650390625 c 0
 360.822265625 -10.650390625 445.175251516 64.178976745 463 76.66 c 1024
EndSplineSet
EndChar

StartChar: d.low
Encoding: 65542 -1 18
Width: 542
VWidth: -303
Flags: W
LayerCount: 2
Fore
SplineSet
0 76 m 0
 70.111328125 125.092773438 206.6640625 264.172851562 348.9453125 264.172851562 c 0
 369.345703125 264.172851562 390.77734375 260.111328125 413 253 c 1025
413 253 m 1
 413 253 387.749023438 264.727539062 348.779296875 264.727539062 c 0
 210.383789062 264.727539062 93.1142578125 114.86328125 93.1142578125 44.73046875 c 0
 93.1142578125 28.0966796875 98.8232421875 12.05859375 115 0 c 0
 124.110351562 -6.791015625 134.565429688 -9.7685546875 145.873046875 -9.7685546875 c 0
 298 -9.7685546875 475.61328125 379.134765625 567 543 c 1029
567 543 m 5
 536.807617188 485.87109375 459.840820312 342 459.840820312 342 c 2
 386.24609375 213.193359375 308.603515625 83.5263671875 308.603515625 35.2216796875 c 0
 308.603515625 11.126953125 318.791015625 -8.7060546875 352.334960938 -8.7060546875 c 0
 414.080078125 -8.7060546875 525.330078125 65.3271484375 542 77 c 1024
EndSplineSet
EndChar

StartChar: d.high
Encoding: 65543 -1 19
Width: 520
VWidth: -303
Flags: W
LayerCount: 2
Fore
SplineSet
0 171 m 0
 123.515625 171.134765625 219.682617188 264.296875 325.677734375 264.296875 c 0
 345.831054688 264.296875 362.274414062 260.203125 378 251 c 1025
378 251 m 1
 362.274414062 260.203125 344.536132812 264.296875 325.677734375 264.296875 c 0
 212.063476562 264.296875 57.7783203125 115.701171875 57.7783203125 40.5087890625 c 0
 57.7783203125 15.0400390625 75.4775390625 -2.0068359375 118.454101562 -2.0068359375 c 0
 118.965820312 -2.0068359375 119.481445312 -2.0048828125 120 -2 c 0
 227 -1 337.958984375 175.391601562 397 289 c 2
 532 543 l 1029
532 543 m 5
 444.139648438 373.788085938 277.862304688 75.01953125 277.862304688 53.255859375 c 0
 277.862304688 21.169921875 293.005859375 -7.6923828125 332.430664062 -7.6923828125 c 0
 358.499023438 -7.6923828125 427.934570312 12.19921875 520 76.6640625 c 1024
EndSplineSet
EndChar

StartChar: f
Encoding: 102 102 20
Width: 259
VWidth: -303
Flags: W
LayerCount: 2
Fore
SplineSet
150 234 m 1
 183.2265625 260.670898438 214.026367188 287.680664062 240 314 c 0
 390 466 405 502 365 537 c 0
 325 572 270 490 230 409 c 2
 46 39 l 2
 22 -9 -78 -200 -86 -220 c 0
 -94 -240 -96 -290 -67 -287 c 0
 -38 -284 13 -278 37 -151 c 0
 61 -24 42 7 42 7 c 1
 42 7 104 -32 265 77 c 1024
EndSplineSet
EndChar

StartChar: nine
Encoding: 57 57 21
Width: 550
VWidth: -303
Flags: W
LayerCount: 2
Fore
SplineSet
623.678710938 524 m 0
 623.678710938 524 504.678710938 582 347.678710938 461 c 0
 190.678710938 340 251.678710938 247 257.678710938 241 c 0
 263.678710938 235 349.678710938 159 545.678710938 366 c 1
 623.678710938 521 l 1
 358.678710938 -9 l 1025
EndSplineSet
EndChar

StartChar: e.low
Encoding: 65544 -1 22
Width: 309
VWidth: -303
Flags: W
LayerCount: 2
Fore
SplineSet
0 76.603515625 m 0
 167.778721711 194.083441318 235 190 235 232 c 0
 235 248 214.774414062 261 193 261 c 0
 106.508443137 261 59 141.055743114 59 66 c 0
 59 31 71 -4 118 -4 c 0
 153 -4 215.166015625 10.9609375 309 76.6640625 c 1028
EndSplineSet
EndChar

StartChar: f.high
Encoding: 65545 -1 23
Width: 279
VWidth: -303
Flags: W
LayerCount: 2
Fore
SplineSet
0 171.16015625 m 3
 131.811412911 171.16015625 366.699273854 430 366.699273854 501.072513175 c 3
 366.699273854 517.948292816 349.930857931 539.902364016 326.571552656 539.902364016 c 3
 300.814200631 539.902364016 278.53818656 525.443882997 266 501 c 2
 -71 -156 l 2
 -80.2263993485 -173.987372024 -107.463334802 -220.161355252 -107.463334802 -255.261335363 c 3
 -107.463334802 -282.495117562 -90.3022732298 -294.16449861 -74.3875317575 -294.16449861 c 3
 -8.20070678757 -294.16449861 35.2283592116 -127.052075954 35.2283592116 -53.8209769296 c 3
 35.2283592116 -32.8811198965 31.9450693182 -13.9847780426 23 -1 c 1
 84 0 174.435241547 3.78296789979 279 77 c 1024
EndSplineSet
EndChar

StartChar: f.low
Encoding: 65546 -1 24
Width: 355
VWidth: -303
Flags: W
LayerCount: 2
Fore
SplineSet
0 77.021484375 m 1
 154.197180817 184.991512754 321.791434615 347.680947426 361 388 c 0
 386.613845879 414.339295725 430.329992076 460.535992763 430.329992076 498.397974399 c 4
 430.329992076 504.632865124 428.018290121 539.488827168 385.255072209 539.488827168 c 0
 363.419643984 539.488827168 325.532096443 509.551336428 307 471 c 2
 145 134 l 2
 73.9560484361 -13.7889609693 -41.0253073352 -193.99767205 -41.0253073352 -258.415184401 c 0
 -41.0253073352 -284.476490121 -30.3921371729 -301.791796753 -17.3202915221 -301.791796753 c 0
 25.3313873608 -301.791796753 96.1671624033 -177.155291301 96.1671624033 -66.6091031761 c 0
 96.1671624033 -43.1136228435 93.8048780488 -17.3658536585 85 -3 c 1
 197.672851562 -1.736328125 256.604492188 7.40234375 356 77 c 1024
EndSplineSet
EndChar

StartChar: e
Encoding: 101 101 25
Width: 282
VWidth: -303
Flags: W
LayerCount: 2
Fore
SplineSet
22.548828125 82.0966796875 m 0
 78.3629237911 111.549113512 184.563476562 182.454101562 184.563476562 231.47265625 c 0
 184.563476562 251.483398438 166.325667357 264.351895833 142.138820046 264.351895833 c 0
 116.032402257 264.351895833 88.5534908691 228.416284331 67 183 c 1
 67 183 11.3401043731 83.37346413 11.3401043731 28.0683983216 c 0
 11.3401043731 6.82009908839 19.55611341 -7.88586666667 42.3013404444 -7.88586666667 c 4
 76 -7.88586666667 184.038085938 8.0703125 282 76.6640625 c 1028
EndSplineSet
EndChar

StartChar: e.high
Encoding: 65547 -1 26
Width: 290
VWidth: -303
Flags: WO
LayerCount: 2
Fore
SplineSet
0 171.16015625 m 4
 142 171.16015625 220.505859375 171.16015625 220.505859375 222.532226562 c 0
 220.505859375 250.57421875 193.48828125 267.624023438 165.376953125 267.624023438 c 0
 125.442382812 267.624023438 91.3226777344 227.179492561 76 195 c 2
 37.4308126807 114.00000131 l 2
 22.1196640588 81.8447212923 14.8388671875 60.2734375 14.8388671875 42.2734375 c 0
 14.8388671875 23.2734375 21.056640625 -6.912109375 62.2724609375 -6.912109375 c 0
 93.7783203125 -6.912109375 228.563476562 32.9814453125 290 76 c 1024
EndSplineSet
EndChar

StartChar: g
Encoding: 103 103 27
Width: 468
VWidth: -303
Flags: W
LayerCount: 2
Fore
SplineSet
339 241 m 0
 339 241 313.702213618 253.530679236 273.338112892 253.530679236 c 0
 142.863052833 253.530679236 13.1050353102 109.768136656 13.1050353102 28.7704419782 c 0
 13.1050353102 13 20 -15.0535023254 55.3654082858 -15.0535023254 c 0
 126.559686855 -15.0535023254 264 94 342 240 c 1025
342 240 m 1
 295.477200589 157.292761557 83.351612355 -249.995853135 66 -269 c 0
 51.0702861826 -285.351591324 32.6025349896 -297.659711361 15.9867347366 -297.659711361 c 0
 5.70986175304 -297.659711361 -23.85546875 -293.055664062 -23.85546875 -259.842773438 c 0
 -23.85546875 -119.815429688 219.190758068 -97.2181067773 468 77 c 1024
EndSplineSet
EndChar

StartChar: g.high
Encoding: 65548 -1 28
Width: 509
VWidth: -303
Flags: W
LayerCount: 2
Fore
SplineSet
0 171.16015625 m 0
 124.883789062 171.16015625 229.845703125 256.120117188 324.358398438 256.120117188 c 0
 340.12109375 256.120117188 362.431640625 251.729492188 375 246 c 1025
375 246 m 1
 359.137695312 252.970703125 342.065429688 256.120117188 324.358398438 256.120117188 c 0
 204.749023438 256.120117188 56.2001953125 112.421875 56.2001953125 32.3671875 c 0
 56.2001953125 16.8157307701 61.4620609971 -9.255859375 96.3564453125 -9.255859375 c 0
 113.790843031 -9.255859375 261.013633205 6.99757626686 378 243 c 1025
378 243 m 1
 170 -165 l 0
 147.8515625 -201.32421875 111.57421875 -291.806640625 60.47265625 -291.806640625 c 0
 53.2735644406 -291.806640625 16.4794921875 -289.067382812 16.4794921875 -265.389648438 c 0
 16.4794921875 -138.26953125 307.8984375 -63.8134765625 509 77 c 1024
EndSplineSet
EndChar

StartChar: g.low
Encoding: 65549 -1 29
Width: 516
VWidth: -303
Flags: W
LayerCount: 2
Fore
SplineSet
0 76.6640625 m 0
 119.375976562 160.251953125 225 247.821185299 346.345791259 247.821185299 c 0
 370.77590044 247.821185299 387.107564085 245 388 245 c 1029
388 245 m 5
 388 245 373.440443213 247.692520776 350.210234728 247.692520776 c 0
 156.025275493 247.692520776 72.1193512044 80.1682621401 72.1193512044 28.4249548667 c 0
 72.1193512044 2.84366303282 85.8711743547 -13.0027261642 111.745090906 -13.0027261642 c 0
 164.567024134 -13.0027261642 298 48 393 243 c 1029
393 243 m 5
 392.929307079 242.821963612 243.205253607 -60.1112782575 240 -66 c 0
 197.671344298 -143.766600011 137.900356696 -297.116638256 78.8109374145 -297.116638256 c 0
 66.5836701936 -297.116638256 31.978515625 -292.48046875 31.978515625 -260.366210938 c 0
 31.978515625 -135.061523438 337.301981538 -48.455777715 516 76.669921875 c 1024
EndSplineSet
EndChar

StartChar: h
Encoding: 104 104 30
Width: 740
VWidth: -303
Flags: W
LayerCount: 2
Fore
SplineSet
2 -12 m 0
 14.05145782 -4.4727448579 622.113287282 352.386395994 622.113287282 492.256767838 c 3
 622.113287282 530.711025609 598.10394776 544.315236239 581.577063189 544.315236239 c 3
 566.284954148 544.315236239 535.594875162 538.630262808 510 490 c 2
 252 -12 l 1025
252 -12 m 1
 252 -12 358.686704284 257.555822935 562.78568349 257.555822935 c 3
 580.828750721 257.555822935 597.881467802 251.567845944 597.881467802 228.930613328 c 3
 597.881467802 168.855292384 510.258138523 101.308422172 510.258138523 30.2554823408 c 3
 510.258138523 13.4106217196 519.674254703 -10.0888888889 545.469037037 -10.0888888889 c 3
 588 -10.0888888889 646.149750286 11.2853476873 740 77 c 1024
EndSplineSet
EndChar

StartChar: h.low
Encoding: 65550 -1 31
Width: 572
VWidth: -303
Flags: W
LayerCount: 2
Fore
SplineSet
0 77 m 0
 128.885382648 167.246516495 476.293148573 374.302559095 476.293148573 498.69990232 c 0
 476.293148573 533.029651888 458.076176957 547.592953015 440.469467448 547.592953015 c 0
 351.719879604 547.592953015 312 441 251.504319228 313.000005092 c 2
 96 -15 l 1029
96 -15 m 5
 101.277755105 -4.51783898491 215.405609606 255.03567867 410.082808573 255.03567867 c 0
 428.512239623 255.03567867 438.146913772 247.022121451 438.146913772 226.884698648 c 0
 438.146913772 155.245440267 361.907358403 90.9293335733 361.907358403 42.1789392815 c 0
 361.907358403 19.4971918292 375.700195312 -8.3427734375 409.2421875 -8.3427734375 c 0
 438.484375 -8.3427734375 480.336846242 12.8169544341 572 77 c 1024
EndSplineSet
EndChar

StartChar: h.high
Encoding: 65551 -1 32
Width: 507
VWidth: -303
Flags: W
LayerCount: 2
Fore
SplineSet
0 171 m 0
 167.739581482 171.233604716 395.138513049 417.521618191 395.138513049 507.73531142 c 0
 395.138513049 527.96428246 383.704700186 540.345703125 357.600585938 540.345703125 c 0
 333.098632812 540.345703125 304.389965262 522.430859714 286 487 c 2
 27 -12 l 1025
27 -12 m 1
 69 62 160 256.657226562 325.284179688 256.657226562 c 0
 344.774906871 256.657226562 367.567382812 239.423459734 367.567382812 216.668945312 c 0
 367.567382812 174.949010494 286.119140625 90.037445384 286.119140625 22.724609375 c 0
 286.119140625 2.595703125 295.66796875 -10.830078125 320.822265625 -10.830078125 c 0
 369.049804688 -10.830078125 438.99609375 27.240234375 507 77 c 1024
EndSplineSet
EndChar

StartChar: i
Encoding: 105 105 33
Width: 441
VWidth: -303
Flags: W
HStem: 396 36<400.006 435.994>
VStem: 400 36<396.006 431.994>
LayerCount: 2
Fore
SplineSet
400 414 m 0
 400 424 408 432 418 432 c 0
 428 432 436 424 436 414 c 0
 436 404 428 396 418 396 c 0
 408 396 400 404 400 414 c 0
0 0 m 0
 42.1710335655 22.3844302329 223.993792224 112.873500579 325 255 c 1
 299.121483706 206.163610859 218.200929752 82 218.200929752 32.8374107814 c 3
 218.200929752 18.0870786047 232.849526939 -7.76738176792 271.341577657 -7.76738176792 c 3
 307.241161602 -7.76738176792 362.328637666 21.9137190528 441 77 c 1033
EndSplineSet
EndChar

StartChar: i.high
Encoding: 65552 -1 34
Width: 286
VWidth: -303
Flags: W
HStem: 396 36<221.006 256.994>
VStem: 221 36<396.006 431.994>
LayerCount: 2
Fore
SplineSet
221 414 m 0
 221 424 229 432 239 432 c 0
 249 432 257 424 257 414 c 0
 257 404 249 396 239 396 c 0
 229 396 221 404 221 414 c 0
0 171.16015625 m 0
 63 171.16015625 148.280273438 218 166 256 c 1
 162.975398692 251.186890961 54.9125581887 74.4838274308 54.9125581887 39.0000001924 c 3
 54.9125581887 13.4350306396 59.7037409517 -9.29829950665 102 -9.29829950665 c 3
 158.619703752 -9.29829950665 228.577441695 36.7922918118 286 77 c 1028
EndSplineSet
EndChar

StartChar: i.low
Encoding: 65553 -1 35
Width: 363
VWidth: -303
Flags: W
HStem: 396 36<310.006 345.994>
VStem: 310 36<396.006 431.994>
LayerCount: 2
Fore
SplineSet
310 414 m 0
 310 424 318 432 328 432 c 0
 338 432 346 424 346 414 c 0
 346 404 338 396 328 396 c 0
 318 396 310 404 310 414 c 0
0 76.6640625 m 4
 34.060546875 100.513671875 152.114257812 192 222 255 c 1
 222 255 36 -11 159 -11 c 1
 220 -11 272.1640625 13.060546875 363 76.6640625 c 1024
EndSplineSet
EndChar

StartChar: j
Encoding: 106 106 36
Width: 497
VWidth: -303
Flags: W
HStem: 396 36<420.006 455.994>
VStem: 420 36<396.006 431.994>
LayerCount: 2
Fore
SplineSet
420 414 m 0
 420 424 428 432 438 432 c 0
 448 432 456 424 456 414 c 0
 456 404 448 396 438 396 c 0
 428 396 420 404 420 414 c 0
4 0 m 4
 9.96004673357 1.41966646847 206.507704739 21.8827366452 391 254 c 1
 338 111 200 -296 79 -296 c 3
 56 -296 40 -275 40 -247 c 3
 40 -172 251.93428291 -94.9327999631 497 76.6640625 c 1033
EndSplineSet
EndChar

StartChar: j.high
Encoding: 65554 -1 37
Width: 251
VWidth: -303
Flags: W
HStem: 396 36<211.006 246.994>
VStem: 211 36<396.006 431.994>
LayerCount: 2
Fore
SplineSet
211 414 m 0
 211 424 219 432 229 432 c 0
 239 432 247 424 247 414 c 0
 247 404 239 396 229 396 c 0
 219 396 211 404 211 414 c 0
0 171.16015625 m 4
 86 171.16015625 134.954101562 196 162 254 c 1
 162 254 -32 -166 -70 -223 c 0
 -108 -280 -136 -304 -158 -299 c 0
 -180 -294 -216.2421875 -269.836914062 -169 -200 c 0
 -123 -132 160.458984375 13.6025390625 251 77 c 1024
EndSplineSet
EndChar

StartChar: j.low
Encoding: 65555 -1 38
Width: 302
VWidth: -303
Flags: W
HStem: 396 36<267.006 302.994>
VStem: 267 36<396.006 431.994>
LayerCount: 2
Fore
SplineSet
267 414 m 0
 267 424 275 432 285 432 c 0
 295 432 303 424 303 414 c 0
 303 404 295 396 285 396 c 0
 275 396 267 404 267 414 c 0
-1 76 m 0
 28 96 84.966796875 123.87109375 230 256 c 1
 230 256 33 -172 1 -220 c 0
 -31 -268 -81 -307 -112 -280 c 0
 -143 -253 -105 -192 -74 -165 c 0
 -63 -155 145.087971275 -38.6193895871 245 35 c 2
 302 77 l 1025
EndSplineSet
EndChar

StartChar: k
Encoding: 107 107 39
Width: 700
VWidth: -303
Flags: W
LayerCount: 2
Fore
SplineSet
7 0 m 0
 195.545898438 81.615234375 602.557617188 384.626953125 602.557617188 504.03515625 c 3
 602.557617188 532.885742188 586.229492188 552.01171875 562.53125 552.01171875 c 3
 510.330606047 552.01171875 461 420 407.185676977 315.000002721 c 2
 244 -6 l 1025
244 -6 m 1
 339 178 363.626953125 252.783203125 504.975585938 252.783203125 c 3
 544 252.783203125 589.549804688 238.253476562 589.549804688 203.563476562 c 3
 589.549804688 168.873476563 543.983398438 144.9765625 501.311523438 144.9765625 c 3
 451.618164062 144.9765625 389.010742188 156.987304688 366 184 c 1
 366 117 404.719666545 -6.9765625 500.954101562 -6.9765625 c 3
 531.199070096 -6.9765625 596.769937578 4.71741841147 700 77 c 1024
EndSplineSet
EndChar

StartChar: k.high
Encoding: 65556 -1 40
Width: 478
VWidth: -303
Flags: W
LayerCount: 2
Fore
SplineSet
23 -5 m 1
 60 67 136.937195361 253 291 253 c 0
 329 253 368.550116169 237 368.550116169 203.600972882 c 0
 368.550116169 169.106568534 323.036489818 145.97573039 280.385799541 145.97573039 c 0
 225.827015185 145.97573039 166.217572959 160.092414352 145 185 c 1
 145 185 182.826836064 -5.99329301995 278.868490821 -5.99329301995 c 0
 340.712294545 -5.99329301995 392.37403681 17.0440551082 478 77 c 1024
0 171.16015625 m 0
 119.992290129 171.16015625 381.558073795 423.068191812 381.558073795 505.034756196 c 0
 381.558073795 535.546820016 358.192772845 553.012152161 341.530894991 553.012152161 c 0
 288.594451299 553.012152161 234.403795195 423.256141812 217 388 c 2
 23 -5 l 1025
EndSplineSet
EndChar

StartChar: k.low
Encoding: 65557 -1 41
Width: 533
VWidth: -303
Flags: W
LayerCount: 2
Fore
SplineSet
0 76.6640625 m 0
 159.5 188.356445312 l 2
 365.946977454 332.924187233 436 404.999915126 436 503 c 3
 436 524.230609199 419.774909859 552 396 552 c 3
 349.676519716 552 323.918225668 486.033709253 254.146672493 347.000002786 c 2
 77 -6 l 1025
77 -6 m 1
 158 153 196.294323242 253 357 253 c 0
 377.739323269 253 423 243.785394565 423 203 c 0
 423 169 377 145 335 145 c 0
 296 145 222 158 199 184 c 1
 199 184 238 -7 334 -7 c 0
 421 -7 488.700195312 45.9814453125 533 77 c 1024
EndSplineSet
EndChar

StartChar: l
Encoding: 108 108 42
Width: 255
VWidth: -303
Flags: W
LayerCount: 2
Fore
SplineSet
115 240 m 1
 123.916015625 248.439453125 131.6015625 255.323242188 140 264 c 0
 283.143554688 411.883789062 327.2578125 455.5234375 327.2578125 498 c 3
 327.2578125 532.6875 305.776367188 543.162109375 287 543.162109375 c 3
 253.836914062 543.162109375 216.538085938 507.102539062 188 416 c 0
 162 333 58 117 46 98 c 0
 32.3542711004 76.3942625757 6.03800262932 -5.47530560327 69 -5.47530560327 c 3
 125.267032723 -5.47530560327 203.319697526 40.8130626306 255 77 c 1028
EndSplineSet
EndChar

StartChar: l.high
Encoding: 65558 -1 43
Width: 337
VWidth: -303
Flags: W
LayerCount: 2
Fore
SplineSet
0 171.16015625 m 4
 149 171.16015625 378.266601562 418 378.266601562 497.086914062 c 0
 378.266601562 532.640625 355.415039062 541.934570312 337.25 541.934570312 c 0
 288.916015625 541.934570312 249.422851562 448.2734375 239 415 c 0
 188.161132812 252.70703125 78.876953125 91.06640625 78.876953125 35.9775390625 c 0
 78.876953125 0.41015625 102.721679688 -6.111328125 111.806640625 -6.111328125 c 0
 128.069335938 -6.111328125 225.98828125 -1.0673828125 337 76.6640625 c 1024
EndSplineSet
EndChar

StartChar: l.low
Encoding: 65559 -1 44
Width: 345
VWidth: -303
Flags: W
LayerCount: 2
Fore
SplineSet
0 77 m 0
 138.544454682 174.010238208 416.266740719 421.585205003 416.266740719 499.08118296 c 0
 416.266740719 532.941517563 394.725157341 543.16227766 376.997096321 543.16227766 c 0
 343.973354372 543.16227766 328.286132812 502.48046875 278 416 c 0
 241.658203125 353.500976562 110.264648438 125.536132812 110.264648438 38.6279296875 c 0
 110.264648438 14 127.759731283 -4 146 -4 c 0
 210 -4 265.370117188 20.90625 345 76.6640625 c 1024
EndSplineSet
EndChar

StartChar: m
Encoding: 109 109 45
Width: 841
VWidth: -303
Flags: W
LayerCount: 2
Fore
SplineSet
6 -12 m 0
 8.72016735965 -8.31137375851 202.36505727 257.358381719 328.879936265 257.358381719 c 0
 348.208845116 257.358381719 355.963941645 246.346789669 355.963941645 229.135187468 c 0
 355.963941645 178 268.385893599 58.3711403324 221 -10 c 5
 268.385893599 58.3711403324 392 256.773293086 510.261702308 256.773293086 c 0
 530.70760998 256.773293086 545.97074399 246.790760796 545.97074399 226.515531284 c 0
 545.97074399 202 459.691589377 54.7022705379 417 -12 c 0
 416.770242004 -12.3589789043 416.624551455 -12.5178935233 416.599705663 -12.5178935233 c 0
 416.596787341 -12.5178935233 416.592873983 -12.5148592944 416.595334008 -12.5109290128 c 0
 494.001050686 111.157030785 578 258.9765625 690.159179688 258.9765625 c 0
 724 258.9765625 741 244 741 220 c 0
 741 192 638.421318159 54 638.421318159 26.6864689286 c 0
 638.421318159 4.59356583295 649.891867778 -4.22253548403 673.121433867 -4.22253548403 c 0
 728 -4.22253548403 767.775390625 25.3916015625 841 76.6640625 c 1024
EndSplineSet
EndChar

StartChar: m.high
Encoding: 65560 -1 46
Width: 676
VWidth: -303
Flags: W
LayerCount: 2
Fore
SplineSet
0 171 m 0
 113 171 117 261 187 261 c 0
 205 261 213 250 213 232 c 0
 213 177.960751218 96.1096815822 17.4424022603 79 -7 c 1
 114.226671669 43.7249276088 244.828853895 260 369 260 c 0
 389 260 403 251 403 231 c 0
 403 184.074263754 291.758763226 19.1719461685 274 -9 c 1
 274 -10 l 0
 274 -10 l 1
 274.226993909 -10 434.766843637 263 578 263 c 0
 594 263 599 253 599 244 c 0
 599 183.870518457 496 108.996050335 496 29 c 0
 496 10 504 0 524 -0 c 0
 539 0 602 25 676 77 c 1024
EndSplineSet
EndChar

StartChar: m.low
Encoding: 65561 -1 47
Width: 740
VWidth: -303
Flags: W
LayerCount: 2
Fore
SplineSet
0 76.6640625 m 0
 145 178 168.1796875 260.584960938 221.556640625 260.584960938 c 0
 243.919921875 260.584960938 254.202148438 245.092773438 254.202148438 224.008789062 c 0
 254.202148438 188 167 54 121 -12 c 1
 167 54 276.752929688 254.586914062 409.125 254.586914062 c 0
 429.944335938 254.586914062 445.84375 244.70703125 445.84375 225.118164062 c 0
 445.84375 189.594726562 330.784179688 8.662109375 316 -14 c 0
 315.762695312 -14.3642578125 315.643554688 -14.5400390625 315.634765625 -14.5400390625 c 0
 315.634765625 -14.5400390625 315.633789062 -14.5400390625 315.634765625 -14.5390625 c 0
 406 137 505.698242188 257.880859375 618.66015625 257.880859375 c 0
 635.706054688 257.880859375 641 246.948242188 641 238 c 0
 641 217.885742188 541.887695312 78.375 541.887695312 16.142578125 c 0
 541.887695312 3.2001953125 546.765625 -5 559 -5 c 0
 603.02734375 -5 658.084960938 20.642578125 740 78 c 1024
EndSplineSet
EndChar

StartChar: n
Encoding: 110 110 48
Width: 627
VWidth: -303
Flags: W
LayerCount: 2
Fore
SplineSet
0 -12 m 0
 0 -12 132 167 236 225 c 0
 340 283 359 255 345 204 c 0
 331 153 211 3 204 -7 c 1
 204 -7 272 80 297 118 c 1
 297 118 348 162 373 179 c 0
 397 196 446 225 487 249 c 0
 520 268 567 254 542 206 c 0
 515 155 490.034842767 120.349205684 474 96 c 0
 447 55 437.349556636 -4.39643082751 476 -7 c 0
 509.923121789 -9.28512758042 568.414245792 35.9778132722 627 77 c 1024
EndSplineSet
EndChar

StartChar: n.high
Encoding: 65562 -1 49
Width: 532
VWidth: -303
Flags: W
LayerCount: 2
Fore
SplineSet
0 171 m 4
 93.46875 171 139 255 187 255 c 4
 203.240590817 255 207.711654303 244.29627007 207.711654303 232.509246656 c 4
 207.711654303 170.986035109 81.6210707314 20.887243902 60 -10 c 5
 78.5281802319 13.8863860241 248.883595623 254.985184797 372.183163682 254.985184797 c 4
 390.000197964 254.985184797 405.049770687 245.77227935 405.049770687 227.4892837 c 4
 405.049770687 200.094240808 332.878752099 98.3181281479 330 94 c 5
 330 94 l 4
 330 94 300.960733315 47.8011666372 300.960733315 17.2761083263 c 4
 300.960733315 -8.36985260521 320.05958635 -10.2743227544 342.610363332 -9.72711764397 c 4
 414.347980806 -7.98637093183 465.804323301 30.3133506785 532 76.6640625 c 1029
EndSplineSet
EndChar

StartChar: n.low
Encoding: 65563 -1 50
Width: 560
VWidth: -303
Flags: W
LayerCount: 2
Fore
SplineSet
0 76.6640625 m 0
 58.52734375 117.64453125 192.616210938 256.319335938 236.713867188 256.319335938 c 0
 255.709960938 256.319335938 262.12890625 233.274414062 262.12890625 224.356445312 c 0
 262.12890625 171.16015625 125.778320312 3.9697265625 116 -10 c 1
 116 -10 184 78 209 116 c 1
 243.377929688 145.659179688 352.31640625 254.985351562 428.18359375 254.985351562 c 0
 446 254.985351562 461.049804688 245.772460938 461.049804688 227.489257812 c 0
 461.049804688 197 356.681640625 50 356.681640625 18.6376953125 c 0
 356.681640625 2.9140625 364.203125 -9 387 -9 c 1
 448.200195312 -9 522.883789062 50.67578125 560 76.6640625 c 1028
EndSplineSet
EndChar

StartChar: o
Encoding: 111 111 51
Width: 371
VWidth: -303
Flags: W
LayerCount: 2
Fore
SplineSet
124.372070312 249.470703125 m 5
 72.859375 225.592773438 9.7138671875 161.538085938 9.7138671875 71.1962890625 c 0
 9.7138671875 33.318359375 35.6220703125 -4.673828125 84.1845703125 -4.673828125 c 0
 155.372070312 -4.673828125 238.610351562 87.544921875 238.610351562 182.515625 c 0
 238.610351562 201.686523438 223.083007812 260 169 260 c 0
 153.6171875 260 127 258 120 238 c 24
 101.102539062 185.086914062 263 171.16015625 371 171.16015625 c 1024
EndSplineSet
EndChar

StartChar: o.high
Encoding: 65564 -1 52
Width: 451
VWidth: -303
Flags: W
LayerCount: 2
Fore
SplineSet
0 171.16015625 m 17
 110 171.16015625 122 219 184.372070312 249.470703125 c 1025
184.372070312 249.470703125 m 1
 132.859375 225.592773438 69.7138671875 161.538085938 69.7138671875 71.1962890625 c 0
 69.7138671875 33.318359375 95.6220703125 -4.673828125 144.184570312 -4.673828125 c 0
 215.372070312 -4.673828125 298.610351562 87.544921875 298.610351562 182.515625 c 0
 298.610351562 201.686523438 283.083007812 260 229 260 c 0
 213.6171875 260 187 258 180 238 c 24
 161.102590077 185.087252217 316 171.16015625 451 171.16015625 c 1024
EndSplineSet
EndChar

StartChar: o.low
Encoding: 65565 -1 53
Width: 531
VWidth: -303
Flags: W
LayerCount: 2
Fore
SplineSet
0 76.6640625 m 1
 147.447367972 179.907821043 192 219 254.372070312 249.470703125 c 1029
254.372070312 249.470703125 m 5
 202.859375 225.592773438 139.713867188 161.538085938 139.713867188 71.1962890625 c 0
 139.713867188 33.318359375 165.622070312 -4.673828125 214.184570312 -4.673828125 c 0
 285.372070312 -4.673828125 368.610351562 87.544921875 368.610351562 182.515625 c 0
 368.610351562 201.686523438 353.083007812 260 299 260 c 0
 283.6171875 260 257 258 250 238 c 24
 231.102539062 185.086914062 354 171.16015625 531 171.16015625 c 1024
EndSplineSet
EndChar

StartChar: p.high
Encoding: 65566 -1 54
Width: 596
VWidth: -303
Flags: W
LayerCount: 2
Fore
SplineSet
0 171.16015625 m 0
 68 171.16015625 136 178 232 256 c 1
 213.480400575 215.050275192 1.96156836076 -293.465168698 -100.228758474 -293.465168698 c 3
 -112.748787348 -293.465168698 -133.492960695 -280.312853216 -133.492960695 -256.325364267 c 3
 -133.492960695 -180.665310037 53.2265625 -30.0703125 179 120 c 4
 255.3984375 211.157226562 333.303768058 259.352724725 383.925965367 259.352724725 c 3
 427.229132471 259.352724725 446.859097336 220.701462424 446.859097336 181.728612031 c 3
 446.859097336 116.144838444 356.055172874 -8.96032760324 238.537836949 -8.96032760324 c 3
 185.241086496 -8.96032760324 142.00155223 14.4193370087 127 31 c 1025
127 31 m 1
 158.196674704 -1.02095953625 209.301347913 -13.0080400064 266.795225379 -13.0080400064 c 3
 394.173682902 -13.0080400064 552.913547907 45.8305414498 596 76 c 1025
EndSplineSet
EndChar

StartChar: p
Encoding: 112 112 55
Width: 715
VWidth: -303
Flags: W
LayerCount: 2
Fore
SplineSet
16 -7 m 0
 16 -7 207 51 361 257 c 1
 361 257 325 144 267 67 c 1
 267 67 163 -131 144 -180 c 0
 125 -230 60 -316 16 -290 c 0
 -28 -264 26 -161 98 -99 c 0
 170 -37 220 15 308 120 c 0
 396 225 486 274 534 257 c 0
 576 242 589 175 561 126 c 0
 534.761095335 80.3671223209 469.097591612 -7 382 -7 c 0
 304 -5 275 11 256 32 c 1
 293.140823925 -19.9918425962 417.381086131 -8.00606527986 478 0 c 0
 539.670977371 8.81013962446 665.44140625 42.298828125 715 77 c 1024
EndSplineSet
EndChar

StartChar: p.low
Encoding: 65567 -1 56
Width: 658
VWidth: -303
Flags: W
LayerCount: 2
Fore
SplineSet
0 76.6640625 m 0
 129.319533232 167.214574507 294 256 294 256 c 1
 239.442003996 139 52.1627584292 -293.465143712 -38.228781548 -293.465143712 c 0
 -50.7487840169 -293.465143712 -71.4929253345 -280.312866467 -71.4929253345 -256.325428109 c 0
 -71.4929253345 -180.665422107 115.22701451 -30.0704050602 241 120 c 0
 317.398180265 211.156919634 395.303768058 259.352724725 445.925965367 259.352724725 c 0
 489.229132471 259.352724725 508.859097336 220.701462424 508.859097336 181.728612031 c 0
 508.859097336 116.144851722 418.055231112 -8.9603325343 300.53791898 -8.9603325343 c 0
 247.241114055 -8.9603325343 204.001568274 14.4194397533 189 31 c 1029
189 31 m 5
 220.081968217 -0.903187458589 270.925706558 -12.8558742112 328.161077669 -12.8558742112 c 0
 485.646282117 -12.8558742112 557.498235686 6.29196952409 658 76.6640625 c 1025
EndSplineSet
EndChar

StartChar: q
Encoding: 113 113 57
Width: 462
VWidth: -303
Flags: W
LayerCount: 2
Fore
SplineSet
333 242 m 0
 333 242 308.717214359 251.106044615 270.469518725 251.106044615 c 0
 215.576992583 251.106044615 131.920152091 232.349809886 50 141 c 1
 50 141 7.48096885813 82.5363321799 7.48096885813 44.8111133727 c 0
 7.48096885813 42.4532871972 7.64705882353 40.1764705882 8 38 c 0
 11.5929323615 15.8435837708 23.7919733592 -14.5603532348 56.6220209697 -14.5603532348 c 0
 78.6163524023 -14.5603532348 109.870426627 -0.91426015579 154 38 c 0
 264 135 300 161 336 240 c 1
 336 240 301 173 283 152 c 2
 283 152 203 6 107 -173 c 1
 107 -173 79.9811126285 -219.860882785 79.9811126285 -254.05880511 c 0
 79.9811126285 -272.493622613 87.8324873096 -287.248730964 112 -289 c 0
 113.242280612 -289.090020334 114.473864392 -289.134336023 115.694733832 -289.134336023 c 0
 182.284623541 -289.134336023 217 -157.297841393 217 -119 c 0
 217 -80 214 -25 208 -2 c 1
 208 -2 229.668546645 -7.70473817362 262.599508453 -7.70473817362 c 0
 321.174901818 -7.70473817362 423.041015625 49.720703125 462 77 c 1028
EndSplineSet
EndChar

StartChar: q.high
Encoding: 65568 -1 58
Width: 475
VWidth: -303
Flags: W
LayerCount: 2
Fore
SplineSet
-6 171 m 0
 28 171.857421875 72.1142578125 176.7421875 139 205 c 1
 139 205 234 273 345 240 c 1029
345 240 m 5
 345 240 248 276 136 203 c 0
 112 187 87 167 62 139 c 1
 62 139 14 73 20 36 c 0
 26 -1 80 -54 187 47 c 0
 268.651334903 124.464086959 301.265594389 144.531188779 348 238 c 1
 348 238 313 171 295 150 c 2
 295 150 215 4 119 -175 c 1
 119 -175 56 -286 125 -291 c 0
 194 -296 229 -160 229 -121 c 0
 229 -82 226 -27 220 -4 c 1
 263.558776953 -14.1277151212 399.400457833 24.0646306892 475 77 c 1025
EndSplineSet
EndChar

StartChar: q.low
Encoding: 65569 -1 59
Width: 505
VWidth: -303
Flags: W
LayerCount: 2
Fore
SplineSet
0 77 m 0
 80.4696798878 133.345705027 198 249.036553342 312.394697408 249.036553342 c 0
 332.260950247 249.036553342 353.325443787 246.443786982 375 240 c 1025
375 240 m 1
 375 240 351.08332937 248.876290131 313.289378326 248.876290131 c 0
 216.705845507 248.876290131 49.4809688581 149 49.4809688581 42.8111133727 c 0
 49.4809688581 16.62048056 71.0157902631 -11.3823904543 107.979656602 -11.3823904543 c 0
 219.161098564 -11.3823904543 351.474521214 186.949042427 377 238 c 5
 149 -175 l 2
 135.297645954 -199.820492197 122.231863827 -222.661194107 121.981112629 -256.776708605 c 0
 121.830523546 -277.26484205 131.978173765 -292.196965981 159.378257816 -292.196965981 c 0
 233.237186353 -292.196965981 258.613228454 -178.307892988 258.613228454 -86.9210375215 c 0
 258.613228454 -54.3720493342 255.394151168 -24.6775794775 250 -4 c 1
 373 0 442.204101562 32.693359375 505 76.6640625 c 1024
EndSplineSet
EndChar

StartChar: r
Encoding: 114 114 60
Width: 630
VWidth: -303
Flags: W
LayerCount: 2
Fore
SplineSet
7 -7 m 0
 7 -7 226 13 415 270 c 1
 415 270 447 216 456 208 c 4
 456 208 415 124 399 68 c 4
 390.170375764 37.0963151736 386.32421875 -7 434 -7 c 0
 478 -7 557.398554315 26.1639204462 630 77 c 1024
EndSplineSet
EndChar

StartChar: r.high
Encoding: 65570 -1 61
Width: 420
VWidth: -303
Flags: W
LayerCount: 2
Fore
SplineSet
0 171 m 0
 63 171 149 221 184 268 c 1
 200.045819365 246.136507396 245.621657858 214.32642788 262 206 c 1
 219.077148438 166.482421875 157.21484375 100.909334623 157.21484375 43.21875 c 3
 157.21484375 13.8621747599 184.244140625 -10.490234375 227.1640625 -10.490234375 c 3
 279.49609375 -10.490234375 351.70703125 28.8447265625 420 76.6640625 c 1028
EndSplineSet
EndChar

StartChar: u
Encoding: 117 117 62
Width: 485
VWidth: -303
Flags: W
LayerCount: 2
Fore
SplineSet
138 262 m 1
 138 262 40.880859375 103.653320312 40.880859375 36.6953125 c 0
 40.880859375 7.798828125 68.677734375 0.1328125 92.232421875 0.1328125 c 0
 128.22265625 0.1328125 159.5390625 24.21875 187 45 c 0
 224 73 347 194 388 262 c 1
 388 262 355 216 347 202 c 2
 347 202 279.587890625 86.5390625 279.587890625 35.3818359375 c 0
 279.587890625 13.2138671875 290.8125 -1.9755859375 339.0234375 -1.9755859375 c 0
 371.409179688 -1.9755859375 434.897460938 40.5283203125 487 77 c 1024
EndSplineSet
EndChar

StartChar: u.high
Encoding: 65571 -1 63
Width: 496
VWidth: -303
Flags: W
LayerCount: 2
Fore
SplineSet
-10 171 m 0
 -10 171 10 170 26 173 c 0
 42 176 96 186 146 261 c 1
 146 261 8 35 61 8 c 0
 114 -19 159 15 196 43 c 0
 233 71 355 193 396 261 c 1
 396 261 363 214 355 200 c 2
 355 200 272 58 295 13 c 5
 315.171528492 -26.4186229882 406.58984375 14.39453125 496 77 c 1024
EndSplineSet
EndChar

StartChar: v
Encoding: 118 118 64
Width: 688
VWidth: -303
Flags: W
LayerCount: 2
Fore
SplineSet
9 -3 m 0
 9 -3 213 234 298 253 c 0
 383 272 370 186 319 118 c 0
 268 50 259 -39 331 6 c 0
 403 51 509 194 548 256 c 1
 548 256 567 171 625 171 c 2
 688 171 l 1025
EndSplineSet
EndChar

StartChar: u.low
Encoding: 65572 -1 65
Width: 526
VWidth: -303
Flags: W
LayerCount: 2
Fore
SplineSet
-1 76 m 0
 78.15625 131.42578125 144.623046875 197.469726562 187 257 c 1
 187 257 89.880859375 98.6533203125 89.880859375 31.6953125 c 0
 89.880859375 2.798828125 117.677734375 -4.8671875 141.232421875 -4.8671875 c 4
 221 -4.8671875 372.125976562 160.330078125 438 253 c 5
 438 253 404 211 396 197 c 2
 396 197 331.971679688 87.4580078125 331.971679688 30.3076171875 c 0
 331.971679688 22.388671875 333.201171875 15.4765625 336 10 c 1
 336 10 339 -2.75 361.375 -2.75 c 0
 381.970703125 -2.75 462.647460938 31.939453125 527 77 c 1024
EndSplineSet
EndChar

StartChar: v.high
Encoding: 65573 -1 66
Width: 498
VWidth: -303
Flags: W
LayerCount: 2
Fore
SplineSet
0 171 m 4
 73.904296875 171 96.5126953125 257.56640625 156.254882812 257.56640625 c 4
 170.233398438 257.56640625 176.916015625 243.194335938 176.916015625 222.348632812 c 0
 176.916015625 138.263671875 99.35546875 91.7294921875 99.35546875 21.1787109375 c 0
 99.35546875 4.646484375 105.68359375 -6.2021484375 119.5703125 -6.2021484375 c 0
 168.533203125 -6.2021484375 291.28515625 134.041992188 368 256 c 1
 368 203 410 171.16015625 498 171 c 1024
EndSplineSet
EndChar

StartChar: v.low
Encoding: 65574 -1 67
Width: 598
VWidth: -303
Flags: W
LayerCount: 2
Fore
SplineSet
-1 76 m 0
 33.1669921875 99.923828125 196 253.000976562 234.967773438 253.000976562 c 0
 259.198242188 253.000976562 270.109375 236.651367188 270.109375 212.979492188 c 0
 270.109375 186.30859375 256.258789062 150.344726562 232 118 c 0
 216.251953125 97.0029296875 209.276367188 74.0029296875 209.276367188 53.564453125 c 0
 209.276367188 20.2861328125 227.770507812 -6.2021484375 257.005859375 -6.2021484375 c 0
 267.963867188 -6.2021484375 280.431640625 -2.48046875 294 6 c 0
 366 51 422 194 461 256 c 1
 461 196 510 171.16015625 598 171 c 1028
EndSplineSet
EndChar

StartChar: w
Encoding: 119 119 68
Width: 830
VWidth: -303
Flags: W
LayerCount: 2
Fore
SplineSet
9 -2 m 0
 101.149132666 0.887439990501 321.014129427 219.691276819 343.092773438 258 c 1
 331.634675362 235.249564239 222.407544277 87.8526967863 222.407544277 22.0353484936 c 0
 222.407544277 6.20238280082 227.968265394 -9.90405781409 246.281482927 -9.90405781409 c 0
 309.252243576 -9.90405781409 470.734716966 191.956559615 519.892578125 258 c 1
 506.903963148 237.496725632 402.481306235 108.176424693 402.481306235 35.6691958236 c 0
 402.481306235 15.6190518489 412.270195249 -5.67909345835 434.143079585 -5.67909345835 c 0
 510.347183021 -5.67909345835 657.918717228 218.590755754 691.892578125 258 c 5
 691.892578125 192 737 171.16015625 830 171 c 1025
EndSplineSet
EndChar

StartChar: w.high
Encoding: 65575 -1 69
Width: 626
VWidth: -303
Flags: W
LayerCount: 2
Fore
SplineSet
0 171 m 21
 22 171 121.829101562 210 155.092773438 258 c 1
 150.86640293 251.883395747 35.2875239512 85.6258839647 35.2875239512 24.5445603449 c 0
 35.2875239512 7.95240693057 40.3798041793 -9.90405781409 59.484574269 -9.90405781409 c 0
 117.432099719 -9.90405781409 281.986190792 183.360690828 331.892578125 258 c 1
 319.241457015 236.04921094 214.625207711 109.944663693 214.625207711 36.994384474 c 0
 214.625207711 18.3289431371 223.531148291 -5.67909345835 246.892672002 -5.67909345835 c 0
 321.260206507 -5.67909345835 488.105182298 238.758973086 504.692382812 258 c 1
 504.692382812 206 568 171.16015625 626 171 c 1025
EndSplineSet
EndChar

StartChar: w.low
Encoding: 65576 -1 70
Width: 681
VWidth: -303
Flags: W
LayerCount: 2
Fore
SplineSet
0 76.6640625 m 1
 25.2216796875 94.32421875 105.744140625 146 198.291992188 258 c 1
 147 197 78.4877192637 85.6257801763 78.4877192637 24.5445603449 c 0
 78.4877192637 7.95240693059 83.5799994918 -9.90405781409 102.684769582 -9.90405781409 c 0
 153.203125103 -9.90405781409 309 162 375.092773438 258 c 1
 361.939614677 235.178098525 257.776659399 109.839533161 257.776659399 37.0749627691 c 0
 257.776659399 18.3662715258 266.727424621 -5.67909345835 290.143079585 -5.67909345835 c 0
 366.347183021 -5.67909345835 513.918717228 218.590755754 547.892578125 258 c 1
 547.892578125 188 614 171 681 171 c 1025
EndSplineSet
EndChar

StartChar: x
Encoding: 120 120 71
Width: 586
VWidth: -303
Flags: W
LayerCount: 2
Fore
SplineSet
2 -12 m 4
 55.368089418 54.4854267199 211.066060323 259.248914987 340.153170182 259.248914987 c 4
 364.297353994 259.248914987 379.728442989 249.024263334 379.728442989 221.712492858 c 4
 379.728442989 152.331342322 309.297052154 94.052078252 309.297052154 27.3129251701 c 4
 309.297052154 8.84898128801 333.224609375 -5.1767578125 372.698242188 -5.1767578125 c 4
 439.0859375 -5.1767578125 490.978515625 10.46484375 586 77 c 1028
488 259 m 5
 212 -4 l 1029
EndSplineSet
EndChar

StartChar: x.high
Encoding: 65577 -1 72
Width: 416
VWidth: -303
Flags: W
LayerCount: 2
Fore
SplineSet
-16 171 m 0
 70.2930202444 171 99.9108445006 264.699281229 181.349123803 264.699281229 c 0
 204.099655127 264.699281229 219.318704716 252.020712687 219.318704716 223.099339598 c 0
 219.318704716 158.256835784 152.215516245 93.9486640447 152.215516245 28.8778415554 c 0
 152.215516245 13.6166732026 166.107421875 -3.5185546875 206.046875 -3.5185546875 c 0
 272.036132812 -3.5185546875 337.378421295 21.2483703867 417 77 c 1028
329 261 m 1
 52 -3 l 1025
EndSplineSet
EndChar

StartChar: x.low
Encoding: 65578 -1 73
Width: 518
VWidth: -303
Flags: W
LayerCount: 2
Fore
SplineSet
-1 76 m 0
 65.2654537661 122.385555179 203.892728124 263.0234375 269.259765625 263.0234375 c 0
 292.357421875 263.0234375 308.09375 249.607421875 308.09375 219.743164062 c 0
 308.09375 159.907690566 244.82421875 84.7568359375 244.82421875 39.65625 c 4
 244.82421875 13.3486328125 256.019194845 -0.873970557911 282.061566557 -0.873970557911 c 4
 346.966197735 -0.873970557911 436.346924225 19.8259008245 518 77 c 1028
418 257 m 1
 141 -6 l 1025
EndSplineSet
EndChar

StartChar: y
Encoding: 121 121 74
Width: 690
VWidth: -303
Flags: W
LayerCount: 2
Fore
SplineSet
10 -6 m 1
 10 -6 210.373562109 257.593944527 317.472238198 257.593944527 c 0
 338.179874611 257.593944527 349.322901378 245.624413713 349.322901378 225.236790605 c 0
 349.322901378 156.80967473 185.501009859 -11.9942418271 296.981873198 -11.9942418271 c 0
 341.013055317 -11.9942418271 505.85661436 115.370398001 579 258 c 1
 538.523398338 183.793178067 311.713074142 -288.583361757 226.82369534 -288.583361757 c 0
 210.519906271 -288.583361757 196.585070008 -279.250876052 196.585070008 -255.328684889 c 4
 196.585070008 -116.552463163 444.0234375 -95.234375 690 77 c 1024
EndSplineSet
EndChar

StartChar: y.high
Encoding: 65579 -1 75
Width: 543
VWidth: -303
Flags: W
LayerCount: 2
Fore
SplineSet
0 171.16015625 m 4
 90 171.16015625 94.4075503951 260.593944527 171.472238198 260.593944527 c 0
 192.179874611 260.593944527 203.322901378 248.624413713 203.322901378 228.236790605 c 0
 203.322901378 173.462952007 113.617441938 100.410380173 113.617441938 35.7472167089 c 0
 113.617441938 12.6012444128 124.283270202 -8.99424182715 149.981873198 -8.99424182715 c 0
 271.692716022 -8.99424182715 413.096057196 224.137311532 432 261 c 1
 384.925103285 179.773378956 203.743332207 -285.583361757 80.8236953398 -285.583361757 c 0
 64.5199062713 -285.583361757 50.5850700082 -276.250876052 50.5850700082 -252.328684889 c 0
 50.5850700082 -132 233.302734375 -140.1875 543 76.6640625 c 1024
EndSplineSet
EndChar

StartChar: y.low
Encoding: 65580 -1 76
Width: 596
VWidth: -303
Flags: W
LayerCount: 2
Fore
SplineSet
0 76.6640625 m 0
 121.193544953 161.524696258 152.79296875 254 205 254 c 0
 234 254 255 240 255 219 c 0
 255 171.072265625 166.6171875 93.3466796875 166.6171875 31.9541015625 c 0
 166.6171875 9.072265625 177.198242188 -12.201171875 202.674804688 -12.201171875 c 0
 324.062574854 -12.201171875 466.160820383 220.263599747 485 257 c 1
 440.706389629 177.026763423 255.375664107 -289.583007812 132.823242188 -289.583007812 c 0
 116.51953125 -289.583007812 102.584960938 -280.250976562 102.584960938 -256.329101562 c 0
 102.584960938 -99.1728515625 287.146913221 -139.261259562 596 77 c 1028
EndSplineSet
EndChar

StartChar: z
Encoding: 122 122 77
Width: 480
VWidth: -303
Flags: W
LayerCount: 2
Fore
SplineSet
20 0 m 1
 61.904296875 47.509765625 220 259.505278422 332.769577056 259.505278422 c 3
 351.691430339 259.505278422 360.98357695 247.995444388 360.98357695 229.467188065 c 3
 360.98357695 145 285.285273271 77.4791215689 229 23 c 1
 242.649029515 36.2110425167 253.536494261 41.4270654512 262.199107816 41.4270654512 c 3
 289.25900264 41.4270654512 294.609123811 -9.47012613134 294.609123811 -26.557467825 c 3
 294.609123811 -116 200.004165365 -290.202550872 123.66723091 -290.202550872 c 3
 106.702494896 -290.202550872 91.4719316049 -282.501972445 91.4719316049 -259.072790166 c 3
 91.4719316049 -148.628887331 289.866210938 -56.1328125 480 77 c 1037
EndSplineSet
EndChar

StartChar: z.high
Encoding: 65581 -1 78
Width: 382
VWidth: -303
Flags: W
LayerCount: 2
Fore
SplineSet
-0 171.16015625 m 0
 104 171.16015625 174.201171875 259.215820312 224.286132812 259.215820312 c 0
 242.536132812 259.215820312 253.7890625 249.338867188 253.7890625 230.4921875 c 0
 253.7890625 191.429011006 213.557573047 104.752472767 125 28 c 1
 169.323242188 66.4150390625 185.333007812 -5.8603515625 185.333007812 -36.3388671875 c 0
 185.333007812 -110 122.827148438 -291.202148438 15.6669921875 -291.202148438 c 0
 -1.2978515625 -291.202148438 -16.5283203125 -283.501953125 -16.5283203125 -260.073242188 c 0
 -16.5283203125 -128.891601562 151.891601562 -84.123046875 382 77 c 1028
EndSplineSet
EndChar

StartChar: z.low
Encoding: 65582 -1 79
Width: 416
VWidth: -303
Flags: W
LayerCount: 2
Fore
SplineSet
-1 75.6640625 m 0
 127.17272037 165.411567496 221.667508804 259.095323136 281.831055582 259.095323136 c 0
 298.433546578 259.095323136 304.98357695 246.272494125 304.98357695 230.467188065 c 0
 304.98357695 156 214 60 190 36 c 1
 214 60 238.609123811 20 238.609123811 -26.557467825 c 0
 238.609123811 -141 168.693163524 -290.202550872 68.6672309101 -290.202550872 c 0
 51.7024948964 -290.202550872 36.4719316049 -282.501972445 36.4719316049 -259.072790166 c 0
 36.4719316049 -148.725971925 267.569335938 -26.931640625 416 77 c 1037
EndSplineSet
EndChar

StartChar: period
Encoding: 46 46 81
Width: 104
VWidth: 0
Flags: W
HStem: -1 36<34.0058 69.9942>
VStem: 34 36<-0.994164 34.9942>
LayerCount: 2
Fore
SplineSet
34 17 m 0
 34 27 42 35 52 35 c 0
 62 35 70 27 70 17 c 0
 70 7 62 -1 52 -1 c 0
 42 -1 34 7 34 17 c 0
EndSplineSet
EndChar

StartChar: s
Encoding: 115 115 82
Width: 533
VWidth: 0
Flags: W
LayerCount: 2
Fore
SplineSet
0 0 m 25
 0 0 154 54 212 97 c 0
 270 140 386 264.48046875 386 264.48046875 c 17
 386 264.48046875 388.255402907 246.62249542 388.255402907 220.016598192 c 0
 388.255402907 163.355716885 378.026360759 67.0199367012 314 19 c 0
 303.932349239 11.4492619294 288.677565345 7.06278117916 270.845086411 7.06278117916 c 0
 244.395936598 7.06278117916 212.276153933 16.7125347255 183 40 c 1
 207.623574045 19.6778096262 261.823752906 0.776541792287 319.822569742 0.776541792287 c 0
 417.203014127 0.776541792287 512.087890625 62.4765625 533 77 c 1024
EndSplineSet
EndChar

StartChar: t
Encoding: 116 116 83
Width: 274
VWidth: 0
Flags: W
LayerCount: 2
Fore
SplineSet
53 340 m 25
 244 340 l 1049
252 536 m 1
 217.959540955 463 20.1982421875 109.28515625 20.1982421875 48.330078125 c 0
 20.1982421875 18.0908203125 53.919921875 -2.6474609375 82.310546875 -2.6474609375 c 0
 144.813476562 -2.6474609375 202.889411035 27.2078295604 274 77 c 1024
EndSplineSet
EndChar

StartChar: one
Encoding: 49 49 84
Width: 550
VWidth: 0
Flags: W
LayerCount: 2
Fore
SplineSet
534.266601562 554 m 25
 274.067382812 0 l 1049
EndSplineSet
EndChar

StartChar: tail.low
Encoding: 65583 -1 85
Width: 171
VWidth: -303
Flags: W
LayerCount: 2
Fore
SplineSet
-1 75.6640625 m 4
 66.998046875 123.276367188 122 201 171 264 c 1025
EndSplineSet
EndChar

StartChar: tail.high
Encoding: 65584 -1 86
Width: 157
VWidth: -303
Flags: W
LayerCount: 2
Fore
SplineSet
-5 170 m 21
 83 170 140 216 159 264 c 1037
EndSplineSet
EndChar

StartChar: s.low
Encoding: 65585 -1 87
Width: 388
VWidth: 0
Flags: W
LayerCount: 2
Fore
SplineSet
0 76.6640625 m 16
 52.1552734375 113.18359375 235.97265625 255.927734375 241 264.48046875 c 1
 251.150075919 184.121911973 229.715214822 7.0625 125.844726562 7.0625 c 0
 99.3955078125 7.0625 42 12 16 49 c 1
 42 12 112.8828125 -1.0693359375 170.497070312 -1.0693359375 c 0
 271.75390625 -1.0693359375 363.810546875 59.7265625 388 76.6640625 c 1024
EndSplineSet
EndChar

StartChar: s.high
Encoding: 65586 -1 88
Width: 398
VWidth: 0
Flags: W
LayerCount: 2
Fore
SplineSet
0 171 m 0
 113 171 190 212 251 264.48046875 c 1
 253.255859375 220.016601562 l 2
 258 119 216.363176747 7.0625 135.844726562 7.0625 c 0
 109.395507812 7.0625 76.2763671875 16.712890625 48 40 c 1
 72.6240234375 19.677734375 111.995972257 0.7763671875 184.822265625 0.7763671875 c 3
 289.002892833 0.7763671875 375.940429688 61.5537109375 398 77 c 1024
EndSplineSet
EndChar

StartChar: r.low
Encoding: 65587 -1 89
Width: 468
VWidth: -303
Flags: W
LayerCount: 2
Fore
SplineSet
0 76.6640625 m 4
 62.6484375 120.53125 182.853515625 215.217773438 232 270 c 1
 247.72265625 238 289 229.287109375 313 228 c 1
 313 228 224.151367188 108.158203125 224.151367188 27.0634765625 c 0
 224.151367188 4.11255546349 236.080569642 -7.9130859375 268.106445312 -7.9130859375 c 0
 310.606445312 -7.9130859375 408.915039062 34.6279296875 468 76 c 1024
EndSplineSet
EndChar

StartChar: t.high
Encoding: 65588 -1 90
Width: 334
VWidth: 0
Flags: W
LayerCount: 2
Fore
SplineSet
133 340 m 25
 324 340 l 1049
0 171.16015625 m 0
 100 171.16015625 194 279 332 536 c 1
 194 279 100.198242188 109.28515625 100.198242188 48.330078125 c 0
 100.198242188 18.0908203125 123.919921875 -2.6474609375 152.310546875 -2.6474609375 c 0
 187.124274383 -2.6474609375 262.488026534 26.5908396066 334 76.6640625 c 1033
EndSplineSet
EndChar

StartChar: t.low
Encoding: 65589 -1 91
Width: 374
VWidth: 0
Flags: W
LayerCount: 2
Fore
SplineSet
153 340 m 25
 344 340 l 1049
0 76.6640625 m 1
 150.617486383 182.127561852 198.883789062 265.368164062 352 536 c 1
 198.883789062 265.368164062 120.198242188 109.28515625 120.198242188 48.330078125 c 0
 120.198242188 18.0908203125 143.919921875 -2.6474609375 182.310546875 -2.6474609375 c 0
 227.124023438 -2.6474609375 302.48828125 26.9267578125 374 77 c 1024
EndSplineSet
EndChar

StartChar: O
Encoding: 79 79 92
Width: 613
Flags: W
LayerCount: 2
Fore
SplineSet
414 540.953125 m 0
 286.688741628 540.953125 131.670663565 344.624410067 131.670663565 164.50642851 c 3
 131.670663565 73.7219761065 171.216089113 -1.42108547152e-14 256 0 c 3
 485.008795562 0 557.263656907 260.758172154 557.263656907 363.589154812 c 3
 557.263656907 468.228689017 498.816212298 528 438 528 c 3
 369.726481949 528 330.480680973 485.92602574 330.480680973 445.078740567 c 0
 330.480680973 406.54582728 365.405204734 369.104534779 443.832042217 369.104534779 c 3
 536.690814226 369.104534779 661.293372279 417.295814355 714 531 c 1024
EndSplineSet
EndChar

StartChar: slash
Encoding: 47 47 93
Width: 305
Flags: W
LayerCount: 2
Fore
SplineSet
532.620117188 540.953125 m 25
 29.49609375 0 l 1025
EndSplineSet
EndChar

StartChar: tail.lowwide
Encoding: 65590 -1 94
Width: 241
VWidth: -303
Flags: W
LayerCount: 2
Fore
SplineSet
-1 75.6640625 m 0
 66.998046875 123.276367188 181 203 241 264 c 1025
EndSplineSet
EndChar

StartChar: colon
Encoding: 58 58 95
Width: 64
VWidth: 0
Flags: W
HStem: -9 36<13.0058 48.9942> 239 36<132.006 167.994>
VStem: 13 36<-8.99416 26.9942> 132 36<239.006 274.994>
LayerCount: 2
Fore
SplineSet
13 9 m 0
 13 19 21 27 31 27 c 0
 41 27 49 19 49 9 c 0
 49 -1 41 -9 31 -9 c 0
 21 -9 13 -1 13 9 c 0
132 257 m 0
 132 267 140 275 150 275 c 0
 160 275 168 267 168 257 c 0
 168 247 160 239 150 239 c 0
 140 239 132 247 132 257 c 0
EndSplineSet
EndChar

StartChar: cyr_a
Encoding: 1072 1072 96
Width: 445
VWidth: -303
Flags: W
LayerCount: 2
Fore
SplineSet
347 241 m 0
 347 241 323.974196469 256.815703435 283.306658662 256.815703435 c 0
 239.648860721 256.815703435 175.659574468 238.588652482 98 163 c 0
 33.7967483984 100.508835108 13.3789077469 59.8187744125 13.3789077469 34.1077420215 c 0
 13.3789077469 4.02795449006 41.3249497654 -5.54993171237 59.799142909 -5.54993171237 c 0
 62.4269700505 -5.54993171237 64.8631522381 -5.35614129365 67 -5 c 0
 97 0 208 49 269 127 c 0
 330 205 346 240 346 240 c 1
 346 240 342 231 334 219 c 0
 331 214 327 208 323 202 c 0
 304 173 279 137 274 129 c 0
 268.257835739 120.067744482 235.649230408 65.1368853156 235.649230408 28.8767960963 c 0
 235.649230408 10.2456951513 244.258206971 -3.45614803296 269.544120185 -3.45614803296 c 0
 322.955832305 -3.45614803296 413.126793957 54.3521408616 445 76.67 c 1028
EndSplineSet
EndChar

StartChar: cyr_be
Encoding: 1073 1073 97
Width: 299
VWidth: -303
Flags: W
LayerCount: 2
Fore
SplineSet
261.3046875 200.317382812 m 4
 263.625976562 233.518554688 236.166992188 259.798828125 180.29296875 259.798828125 c 4
 116.166992188 259.798828125 22.7177734375 185.963867188 14.6923828125 71.1962890625 c 4
 12.0439453125 33.318359375 35.294921875 -4.673828125 83.8583984375 -4.673828125 c 4
 263.0625 -4.673828125 256.46484375 323.40234375 412.962890625 502 c 4
 437.80078125 530.345703125 483.806640625 540.662109375 574.827148438 540.953125 c 1037
EndSplineSet
EndChar

StartChar: cyr_ve
Encoding: 1074 1074 98
Width: 641
VWidth: -303
Flags: W
LayerCount: 2
Fore
SplineSet
1 -9 m 0
 1 -9 245 114 399 252 c 0
 551.114088544 388.310027396 604.074792244 438.030698126 604.074792244 484.41303397 c 0
 604.074792244 492.938906434 594.199131116 539.173312152 558.939366046 539.173312152 c 0
 529.877527703 539.173312152 497.119429464 503.558922321 482 475 c 0
 465.4760411 443.788077633 278.736863625 120.030388153 278.736863625 39.9267403613 c 0
 278.736863625 12.0991644662 293.562478177 -5.43874694483 319 -9 c 0
 319.997224904 -9.13961148657 321.030648061 -9.20841759848 322.098539951 -9.20841759848 c 0
 374.573830017 -9.20841759848 510.279222973 156.934616314 524 252 c 2
 525 263 l 1
 540.189870139 226.016712108 550.875 171.385742188 640.780273438 171.385742188 c 1028
EndSplineSet
EndChar

StartChar: cyr_ghe
Encoding: 1075 1075 99
Width: 315
VWidth: -303
Flags: W
LayerCount: 2
Fore
SplineSet
0 171.16015625 m 1
 39.08984375 198.53125 112.997070312 265 166 265 c 7
 246.001953125 265 102.201171875 90 102.201171875 37.837890625 c 4
 102.201171875 5 122 -2.767578125 155.341796875 -2.767578125 c 4
 191.241210938 -2.767578125 269.094726562 44.8564453125 315 77 c 1024
EndSplineSet
EndChar

StartChar: cyr_de
Encoding: 1076 1076 100
Width: 468
VWidth: -303
Flags: W
LayerCount: 2
Fore
SplineSet
339 241 m 0
 339 241 313.702213618 253.530679236 273.338112892 253.530679236 c 0
 142.863052833 253.530679236 13.1050353102 109.768136656 13.1050353102 28.7704419782 c 0
 13.1050353102 13 20 -15.0535023254 55.3654082858 -15.0535023254 c 0
 126.559686855 -15.0535023254 264 94 342 240 c 1025
342 240 m 1
 295.477200589 157.292761557 83.351612355 -249.995853135 66 -269 c 0
 51.0702861826 -285.351591324 32.6025349896 -297.659711361 15.9867347366 -297.659711361 c 0
 5.70986175304 -297.659711361 -23.85546875 -293.055664062 -23.85546875 -259.842773438 c 0
 -23.85546875 -119.815429688 219.190758068 -97.2181067773 468 77 c 1024
EndSplineSet
EndChar

StartChar: cyr_ie
Encoding: 1077 1077 101
Width: 457
VWidth: -303
Flags: W
LayerCount: 2
Fore
SplineSet
2 -7 m 0
 2 -7 200 45 302 123 c 0
 404 201 396 239 380 254 c 0
 348 285 310 242 282 183 c 1
 282 183 163 -30 273 -6 c 1
 273 -6 364 13 457 77 c 1028
EndSplineSet
EndChar

StartChar: cyr_zhe
Encoding: 1078 1078 102
Width: 480
Flags: W
LayerCount: 2
Fore
SplineSet
75.0625 244 m 5
 75.0625 244 111.494140625 264.48046875 163.494140625 264.48046875 c 4
 215.494140625 264.48046875 195.887695312 170 163.551757812 108 c 4
 131.216796875 46 87 0 49 0 c 4
 12 0 6 20 0 37 c 0
 0 37 6 0 49 0 c 4
 125 0 302.494140625 264.48046875 302.494140625 264.48046875 c 5
 208 0 l 5
 208 0 368.477539062 264.244140625 480.494140625 264.48046875 c 4
 509.262695312 264.541015625 519.271484375 247 519.271484375 247 c 4
 519.271484375 247 509.494140625 264.48046875 480.494140625 264.48046875 c 4
 463.484375 264.48046875 394.698242188 253.563476562 329.489257812 150 c 4
 249.250976562 22.568359375 301.80859375 0 341 0 c 4
 370.359375 0 421 34.652238035 481 76.6640625 c 1025
EndSplineSet
EndChar

StartChar: cyr_ze
Encoding: 1079 1079 103
Width: 420
VWidth: -303
Flags: W
LayerCount: 2
Fore
SplineSet
8 -15 m 0
 8 -15 142 145 181 176 c 0
 220 207 315 278 350 255 c 0
 385 232 329 127 285 80 c 0
 241 33 229 23 229 23 c 5
 229 23 248 41 255 45 c 1
 255 45 304 8 293 -41 c 0
 282 -90 246 -177 221 -215 c 0
 196 -253 183 -263 163 -278 c 0
 143 -293 81 -305 93 -245 c 0
 105 -185 183 -100 232 -62 c 0
 234.649990712 -59.7447069612 367.172884664 40.0100556197 420 77 c 1024
EndSplineSet
EndChar

StartChar: cyr_i
Encoding: 1080 1080 104
Width: 727
VWidth: -303
Flags: W
LayerCount: 2
Fore
SplineSet
7 -4 m 0
 7 -4 240 50 378 262 c 1
 378 262 280.880719875 103.653347622 280.880719875 36.6953346171 c 0
 280.880719875 7.79882264094 308.677538157 0.132582187078 332.232147588 0.132582187078 c 0
 368.222405698 0.132582187078 399.539139969 24.2188086253 427 45 c 0
 464 73 587 194 628 262 c 1
 628 262 595 216 587 202 c 2
 587 202 519.587939291 86.5389172957 519.587939291 35.382247112 c 0
 519.587939291 13.2139266187 530.812656371 -1.97530864198 579.023319616 -1.97530864198 c 0
 611.409431674 -1.97530864198 674.897460938 40.5283203125 727 77 c 1024
EndSplineSet
EndChar

StartChar: cyr_short_i
Encoding: 1081 1081 105
Width: 727
VWidth: -303
Flags: W
LayerCount: 2
Fore
SplineSet
443.999023438 364 m 29
 591.999023438 364 l 1053
7 -4 m 0
 7 -4 240 50 378 262 c 1
 378 262 280.880719875 103.653347622 280.880719875 36.6953346171 c 0
 280.880719875 7.79882264094 308.677538157 0.132582187078 332.232147588 0.132582187078 c 0
 368.222405698 0.132582187078 399.539139969 24.2188086253 427 45 c 0
 464 73 587 194 628 262 c 1
 628 262 595 216 587 202 c 2
 587 202 519.587939291 86.5389172957 519.587939291 35.382247112 c 0
 519.587939291 13.2139266187 530.812656371 -1.97530864198 579.023319616 -1.97530864198 c 0
 611.409431674 -1.97530864198 674.897460938 40.5283203125 727 77 c 1024
EndSplineSet
EndChar

StartChar: cyr_ka
Encoding: 1082 1082 106
Width: 478
VWidth: -303
Flags: W
LayerCount: 2
Fore
SplineSet
371 264.48046875 m 29
 166 161.16015625 l 5
 188 168 207.706054688 172 234 172 c 7
 272.747070312 172 287.788085938 156.701171875 280 140 c 6
 236.571388236 44 l 22
 217.115870276 2.2775070937 258.584288451 0 283 0 c 7
 330 0 399.361403748 21.6007246103 478 76.6640625 c 1029
0 171.16015625 m 1
 39.08984375 198.53125 112.997070312 265 166 265 c 3
 185.012920116 265 191.248301826 254.60432314 191.248301826 241.000000558 c 3
 191.248301826 213.311174904 173.479452055 177.054794521 153 132 c 2
 93 0 l 1025
EndSplineSet
EndChar

StartChar: cyr_el
Encoding: 1083 1083 107
Width: 363
Flags: W
LayerCount: 2
Fore
SplineSet
0 77 m 17
 0 7 26 0 48 0 c 0
 116 0 224 188 272 264 c 1
 185 118 150 4 230 0 c 1
 256 0 319.807617188 45.35546875 365 77 c 1025
EndSplineSet
EndChar

StartChar: cyr_em
Encoding: 1084 1084 108
Width: 559
Flags: W
LayerCount: 2
Fore
SplineSet
0 76.6640625 m 17
 -0.445671731307 7 26 0 47.53125 0 c 0
 116 0 224.565429688 188 272.236328125 264.48046875 c 5
 185.694335938 118.5546875 150 13.5867841546 230.349609375 10 c 1
 308 10.3732136883 499.236328125 264.48046875 499.236328125 264.48046875 c 5
 391.270507812 92.21484375 348.42578125 -4.107421875 423 0 c 0
 456.013671875 1.818359375 521.556640625 50.4453125 559 76.6640625 c 1024
EndSplineSet
EndChar

StartChar: cyr_en
Encoding: 1085 1085 109
Width: 484
Flags: W
LayerCount: 2
Fore
SplineSet
167 264.48046875 m 17
 124.795825876 172.861112679 83.9935768876 86.4064327869 43.2044243313 0 c 1
 64 42 101 125 196 125 c 0
 282 125 299 154 358 264.48046875 c 1
 326 194 188 0 286 0 c 0
 351 0 457.426707683 58.0570903169 484 76.6639099121 c 1033
EndSplineSet
EndChar

StartChar: cyr_o
Encoding: 1086 1086 110
Width: 321
VWidth: -303
Flags: W
LayerCount: 2
Fore
SplineSet
124.372070312 249.470703125 m 1
 72.859375 225.592773438 9.7138671875 161.538085938 9.7138671875 71.1962890625 c 0
 9.7138671875 33.318359375 35.6220703125 -4.673828125 84.1845703125 -4.673828125 c 0
 155.372070312 -4.673828125 238.610351562 87.544921875 238.610351562 182.515625 c 0
 238.610351562 201.686523438 223.083007812 260 169 260 c 0
 153.6171875 260 127 258 120 238 c 24
 101.102539062 185.086914062 263 171.16015625 321 171.16015625 c 1028
EndSplineSet
EndChar

StartChar: cyr_pe
Encoding: 1087 1087 111
Width: 627
VWidth: -303
Flags: W
LayerCount: 2
Fore
SplineSet
0 -12 m 0
 0 -12 132 167 236 225 c 0
 340 283 359 255 345 204 c 0
 331 153 211 3 204 -7 c 1
 204 -7 272 80 297 118 c 1
 297 118 348 162 373 179 c 0
 397 196 446 225 487 249 c 0
 520 268 567 254 542 206 c 0
 515 155 490.034842767 120.349205684 474 96 c 0
 447 55 437.349556636 -4.39643082751 476 -7 c 0
 509.923121789 -9.28512758042 568.414245792 35.9778132722 627 77 c 1024
EndSplineSet
EndChar

StartChar: cyr_er
Encoding: 1088 1088 112
Width: 562
Flags: W
LayerCount: 2
Fore
SplineSet
12 0 m 25
 230 264.48046875 l 25
 32 -268 l 26
 164 76.6639099121 l 26
 204 181 269.569585798 264.48046875 382 264.48046875 c 27
 484.932113127 264.48046875 275.515625 0 380 0 c 27
 468.090820312 0 499.105506039 32.624863717 562 76.6640625 c 1028
EndSplineSet
EndChar

StartChar: cyr_es
Encoding: 1089 1089 113
Width: 278
VWidth: -303
Flags: W
LayerCount: 2
Fore
SplineSet
233 207 m 0
 232.999999998 221.783415109 215.000000008 254.921769621 168 256 c 0
 119.918992054 257.10302986 75 232 40 162 c 0
 5 92 0 0 69 -3 c 4
 158.915054252 -6.90935018487 238.164636086 48.7710404002 278 76.6640625 c 1028
EndSplineSet
EndChar

StartChar: cyr_te
Encoding: 1090 1090 114
Width: 841
VWidth: -303
Flags: W
LayerCount: 2
Fore
SplineSet
6 -12 m 0
 8.72016735965 -8.31137375851 202.36505727 257.358381719 328.879936265 257.358381719 c 0
 348.208845116 257.358381719 355.963941645 246.346789669 355.963941645 229.135187468 c 0
 355.963941645 178 268.385893599 58.3711403324 221 -10 c 5
 268.385893599 58.3711403324 392 256.773293086 510.261702308 256.773293086 c 0
 530.70760998 256.773293086 545.97074399 246.790760796 545.97074399 226.515531284 c 0
 545.97074399 202 459.691589377 54.7022705379 417 -12 c 0
 416.770242004 -12.3589789043 416.624551455 -12.5178935233 416.599705663 -12.5178935233 c 0
 416.596787341 -12.5178935233 416.592873983 -12.5148592944 416.595334008 -12.5109290128 c 0
 494.001050686 111.157030785 578 258.9765625 690.159179688 258.9765625 c 0
 724 258.9765625 741 244 741 220 c 0
 741 192 638.421318159 54 638.421318159 26.6864689286 c 0
 638.421318159 4.59356583295 649.891867778 -4.22253548403 673.121433867 -4.22253548403 c 0
 728 -4.22253548403 767.775390625 25.3916015625 841 76.6640625 c 1024
EndSplineSet
EndChar

StartChar: cyr_u
Encoding: 1091 1091 115
Width: 610
VWidth: -303
Flags: W
LayerCount: 2
Fore
SplineSet
10 -6 m 0
 10 -6 122 134 168 171 c 0
 214 208 264 246 299 255 c 0
 334 264 352 249 349 219 c 0
 346 189 306 114 275 77 c 0
 244 40 257 -70 375 27 c 0
 493 124 539 180 579 258 c 1
 579 258 543 192 537 186 c 2
 537 186 476 52 458 20 c 0
 440 -12 291 -246 267 -271 c 0
 243 -296 187 -301 198 -241 c 0
 209 -181 246 -141 307 -108 c 0
 314.974439402 -103.711843791 549.112428548 34.366063486 610 77 c 1028
EndSplineSet
EndChar

StartChar: cyr_ef
Encoding: 1092 1092 116
Width: 507
VWidth: -303
Flags: W
LayerCount: 2
Fore
SplineSet
228 141 m 0
 252.713867188 194 239.458332949 259.775554354 163.651930019 259.775554354 c 0
 113.706148531 259.775554354 9.71403687037 187.132248987 9.71403687037 71.1961814452 c 0
 9.71403687037 33.3180290797 35.6219037197 -4.67364055814 84.1847664951 -4.67364055814 c 0
 142.834328979 -4.67364055814 186.1953125 50 221.206054688 125.081054688 c 1
 230.028320312 144 287 264.48046875 287 264.48046875 c 17
 287 264.48046875 132 -68 32.638671875 -281 c 1
 227 134 l 17
 262.43938202 210 310 259.775390625 372.65234375 259.775390625 c 0
 448.458007812 259.775390625 461.713867188 194 437 141 c 0
 403.696112143 62.9654052088 356.56019717 -4.673828125 293.184570312 -4.673828125 c 0
 211 -4.673828125 186.566003108 46 229 137 c 1
 209.881386016 96 174 -5 293 -5 c 3
 383.59944158 -5 444.990190247 33.2441736803 507 76.6639099121 c 1033
EndSplineSet
EndChar

StartChar: cyr_ha
Encoding: 1093 1093 117
Width: 437
Flags: W
LayerCount: 2
Fore
SplineSet
60.1025390625 172 m 1
 76.9501953125 203 134.05078125 264.030273438 196.6953125 264.48046875 c 0
 259.092773438 264.928710938 270.254882812 236 225.489257812 140 c 0
 182.123046875 47 104.90234375 0 59.3017578125 0 c 0
 14.90234375 0 7.7021484375 20 0.501953125 37 c 1024
421 172 m 0
 434.36328125 210.826171875 432 264.48046875 376.494140625 264.48046875 c 0
 345 264.48046875 273.607421875 234.271484375 225.489257812 140 c 0
 179.6640625 50.2197265625 197.80859375 0 237 0 c 0
 324 0 377 34.65234375 437 76.6640625 c 1025
EndSplineSet
EndChar

StartChar: cyr_tse
Encoding: 1094 1094 118
Width: 724
Flags: W
LayerCount: 2
Fore
SplineSet
1.7607421875 2.2255859375 m 0
 93.1888379191 5.09043265101 319.460657169 229.625415901 335.760742188 262.225585938 c 5
 324.212019731 239.849936179 215.41015625 91.3022630676 215.41015625 26.0693359375 c 0
 215.41015625 10.298828125 221.038085938 -5.6787109375 239.2734375 -5.6787109375 c 3
 340.332376181 -5.6787109375 513.122736762 253.477327442 517 258 c 1
 517 258 410 90 410 36 c 0
 410 23.529166744 422.795522637 -5 463 -5 c 0
 489 -5 557 45 603 77 c 1
 510 -126 l 18
 495.1640625 -157.649414062 467.611328125 -202.016601562 434.114257812 -202.016601562 c 0
 433.743164062 -202.016601562 433.372070312 -202.010742188 433 -202 c 0
 415.33203125 -202 396.071289062 -186.471679688 396.071289062 -166.971679688 c 0
 396.071289062 -155.568359375 402.657226562 -142.807617188 420 -131 c 0
 541 -49 665 36 724 77 c 1025
EndSplineSet
EndChar

StartChar: cyr_che
Encoding: 1095 1095 119
Width: 341
VWidth: -303
Flags: W
LayerCount: 2
Fore
SplineSet
19.8759765625 171.16015625 m 29
 63 264.48046875 l 21
 48.0380859375 231 70 191.447265625 122 191 c 4
 169.09375 190.594726562 206.29296875 228 225 255 c 5
 225 255 118.201171875 86.552734375 118.201171875 32.837890625 c 4
 118.201171875 28.9072265625 118.772460938 25.5908203125 120 23 c 5
 120 23 128.845703125 -7.767578125 171.341796875 -7.767578125 c 4
 207.241210938 -7.767578125 295.094726562 44.8564453125 341 77 c 1028
EndSplineSet
EndChar

StartChar: cyr_sha
Encoding: 1096 1096 120
Width: 778
VWidth: -303
Flags: W
LayerCount: 2
Fore
SplineSet
9 -2 m 4
 9 -2 73 0 199 112 c 4
 325 224 340 252 343 258 c 5
 327 227 247 124 225 40 c 4
 217 10 224 -57 334 43 c 5
 334 43 446 158 520 258 c 5
 505 234 360 56 415 2 c 4
 450 -33 537 61 567 96 c 4
 597 131 692 258 692 258 c 5
 692 258 585 90 585 36 c 4
 585 32 586 29 587 26 c 5
 587 26 596 -5 638 -5 c 4
 664 -5 732 45 778 77 c 1028
EndSplineSet
EndChar

StartChar: cyr_shcha
Encoding: 1097 1097 121
Width: 899
Flags: W
LayerCount: 2
Fore
SplineSet
9 -2 m 0
 9 -2 73 0 199 112 c 0
 325 224 340 252 343 258 c 1
 327 227 247 124 225 40 c 0
 217 10 224 -57 334 43 c 1
 334 43 446 158 520 258 c 1
 505 234 360 56 415 2 c 0
 450 -33 537 61 567 96 c 0
 597 131 692 258 692 258 c 1
 692 258 585 90 585 36 c 0
 585 32 586 29 587 26 c 1
 587 26 596 -5 638 -5 c 0
 664 -5 732 45 778 77 c 1
 685 -126 l 18
 670 -158 642 -203 608 -202 c 8
 580 -202 548 -163 595 -131 c 0
 716 -49 840 36 899 77 c 1025
EndSplineSet
EndChar

StartChar: cyr_hard_sign
Encoding: 1098 1098 122
Width: 367
Flags: W
LayerCount: 2
Fore
SplineSet
25.35546875 171.16015625 m 1
 37.251953125 193.494140625 52.4375 222.27734375 74 264.48046875 c 1
 42 197 65.08984375 171.16015625 123 171.16015625 c 3
 176 171.16015625 204.400390625 206 256 264.48046875 c 9
 256 264.48046875 163.599609375 167 160.604492188 94 c 24
 158.799804688 48 176.799804688 0 232 0 c 3
 295 0 338.012695312 39 354.799804688 75 c 0
 370.465820312 108.595703125 355.599609375 171.16015625 288.400390625 171.16015625 c 0
 224 171.16015625 180 146 164 113 c 1024
EndSplineSet
EndChar

StartChar: cyr_yeru
Encoding: 1099 1099 123
Width: 463
Flags: W
LayerCount: 2
Fore
SplineSet
0 171.16015625 m 3
 53 171.16015625 81.400390625 206 133 264.48046875 c 9
 133 264.48046875 40.599609375 167 37.6044921875 94 c 24
 35.7998046875 48 53.7998046875 0 109 0 c 3
 187.796875 0 226.619140625 30 251.799804688 75 c 0
 269.901367188 107.348632812 232.599609375 171.16015625 165.400390625 171.16015625 c 0
 140 171.16015625 115.342773438 162.89453125 104.200195312 139 c 0
 93.4749058837 116.000317113 128 105.48046875 152.400390625 105.48046875 c 0
 290 105.48046875 436.869140625 236.3203125 450 264.48046875 c 9
 327.13671875 0 l 17
 378 20 422.795898438 48.5126953125 463 76.6640625 c 1033
EndSplineSet
EndChar

StartChar: cyr_soft_sign
Encoding: 1100 1100 124
Width: 236
Flags: W
LayerCount: 2
Fore
SplineSet
120 264.48046875 m 1
 120 264.48046875 27.599609375 167 24.6044921875 94 c 24
 22.7998046875 48 40.7998046875 0 96 0 c 3
 159 0 202.012695312 39 218.799804688 75 c 0
 234.465820312 108.595703125 219.599609375 171.16015625 152.400390625 171.16015625 c 0
 88 171.16015625 44 146 28 113 c 1024
EndSplineSet
EndChar

StartChar: cyr_e
Encoding: 1101 1101 125
Width: 271
Flags: W
LayerCount: 2
Fore
SplineSet
156.809570312 138 m 29
 295.809570312 138 l 1053
104.573242188 214 m 5
 126.307617188 229 181.140625 264.48046875 225.174804688 264.48046875 c 4
 300.052734375 264.48046875 310.630859375 220 297.784179688 140 c 4
 282.275390625 43.4150390625 195.8828125 0 141.162109375 0 c 4
 87.8828125 0 73.1279296875 20 59.2900390625 37 c 1028
EndSplineSet
EndChar

StartChar: cyr_yu
Encoding: 1102 1102 126
Width: 425
VWidth: -303
Flags: W
LayerCount: 2
Fore
SplineSet
26 171.16015625 m 25
 161 264.48046875 l 1049
161 264.48046875 m 25
 34.873046875 -6 l 1049
34.873046875 -6 m 25
 34.873046875 -6 76.0032008386 96.4308577419 95 110 c 0
 158 155 220.03515625 150 220.03515625 150 c 1041
220.03515625 150 m 17
 251.307617188 220.294921875 318.910407952 259.775390625 356.65234375 259.775390625 c 0
 418.578123766 259.775390625 421.610351562 213.312104294 421.610351562 182.515625 c 0
 421.610351562 87.544921875 348.372070312 -4.673828125 277.184570312 -4.673828125 c 0
 228.622070312 -4.673828125 202.713867188 33.318359375 202.713867188 71.1962890625 c 0
 202.713867188 99.5250877885 208.922851562 125.26953125 219.03515625 148 c 1025
EndSplineSet
EndChar

StartChar: cyr_ya
Encoding: 1103 1103 127
Width: 408
Flags: W
LayerCount: 2
Fore
SplineSet
0 49.8310546875 m 17
 -0.0311667909187 44.9459055937 1.36359809003 0.496440240917 48.53125 0 c 0
 122.241034665 -0.775796584638 255.528320312 140.028320312 290.274414062 198 c 0
 311.852539062 234 302.15234375 265.200195312 261.65234375 265.200195312 c 0
 206.272460938 265.200195312 135.587890625 230 103.0859375 180 c 0
 71.5537109375 131.490234375 100.7421875 90 151.142578125 90 c 0
 242.342773438 90 293.47265625 201 336.186523438 263.900390625 c 1
 336.186523438 263.900390625 147.299804688 0 229.98046875 0 c 0
 290.400390625 0 372.701171875 56.0673828125 408 76.6640625 c 1033
EndSplineSet
EndChar

StartChar: cyr_A
Encoding: 1040 1040 128
Width: 716
VWidth: -303
Flags: W
LayerCount: 2
Fore
SplineSet
585.9453125 485.456054688 m 0
 585.9453125 485.456054688 551.87109375 517.087890625 486.803710938 517.087890625 c 0
 416.951171875 517.087890625 311.37890625 480.633789062 173.896484375 329.456054688 c 0
 60.2373046875 204.473632812 20.44921875 123.09375 15.9501953125 71.671875 c 0
 10.6865234375 11.51171875 53.724609375 -7.6435546875 83.283203125 -7.6435546875 c 0
 87.4873046875 -7.6435546875 91.419921875 -7.255859375 94.9013671875 -6.5439453125 c 0
 143.776367188 3.4560546875 329.94921875 101.456054688 441.198242188 257.456054688 c 0
 552.446289062 413.456054688 584.169921875 483.456054688 584.169921875 483.456054688 c 1
 584.169921875 483.456054688 576.1953125 465.456054688 561.295898438 441.456054688 c 0
 555.620117188 431.456054688 548.170898438 419.456054688 540.720703125 407.456054688 c 0
 505.247070312 349.456054688 458.948242188 277.456054688 449.547851562 261.456054688 c 0
 438.797851562 243.591796875 377.012695312 133.729492188 370.66796875 61.2099609375 c 0
 367.407226562 23.947265625 388.66015625 -5.4384765625 429.241210938 -3.4560546875 c 0
 500 0 628.419700286 76.6639099121 716 264.48046875 c 1024
EndSplineSet
EndChar

StartChar: cyr_BE
Encoding: 1041 1041 129
Width: 557
VWidth: -303
Flags: W
LayerCount: 2
Fore
SplineSet
184.956054688 415 m 17
 177.9375 423 157.270507812 456 179.655273438 494 c 0
 210.288085938 546 250.426757812 541 302.426757812 541 c 2
 602.426757812 541 l 1025
349.426757812 541 m 1
 267.184570312 368 l 2
 226.772460938 282.991210938 179.71484375 185 179.71484375 185 c 2
 127.93359375 76.6640625 67 0 38 0 c 3
 2 0 0.419921875 36 19.4541015625 77 c 0
 63.99609375 171 154.098632812 294 328.098632812 294 c 3
 402.098632812 294 493.012695312 220 484.41796875 150 c 0
 474.840820312 72 375 0 300 0 c 3
 234 0 212.576171875 48.794921875 240.260742188 108 c 0
 274.864257812 182 330.802734375 202 397.802734375 202 c 3
 449.625 202 480 197 482.357421875 184.21484375 c 1024
EndSplineSet
EndChar

StartChar: cyr_VE
Encoding: 1042 1042 130
Width: 606
Flags: W
LayerCount: 2
Fore
SplineSet
45.25 282.150390625 m 17
 155.091796875 339.920898438 265.432617188 395.590820312 353.049804688 547.200195312 c 9
 88 0 l 17
 158.161132812 145.350585938 l 2
 322.1875 485.154296875 378.700195312 547.200195312 506.950195312 547.200195312 c 0
 609.549804688 547.200195312 643.75 478.80078125 643.75 427.5 c 0
 643.75 273.600585938 464.200195312 239.400390625 430 239.400390625 c 0
 399.171875 239.400390625 358.211664786 248 370.149414062 273.600585938 c 0
 375.931355796 286 392 299.25 414.349609375 299.25 c 0
 494 299.25 515.5 222.30078125 515.5 153.900390625 c 27
 515.5 59.8505859375 430 0 335.950195312 0 c 3
 190.599609375 0 164.950195312 145.350585938 164.950195312 145.350585938 c 17
 183.0242935 118.20916497 248 82 310.299804688 76.9501953125 c 28
 390 70 475.772460938 94.08203125 510.447265625 115.790039062 c 1029
EndSplineSet
EndChar

StartChar: cyr_GHE
Encoding: 1043 1043 131
Width: 471
VWidth: -303
Flags: W
LayerCount: 2
Fore
SplineSet
481 540.953125 m 1
 400.344726562 368 l 18
 362.873046875 281.583984375 254.958007812 0 135 0 c 7
 46.9560546875 0 0 76.6640625 0 76.6640625 c 1049
291 368 m 17
 229 391 207 426 207 474 c 3
 207 519.240234375 271.625 540.953125 324 540.953125 c 10
 699 540.953125 l 1049
EndSplineSet
EndChar

StartChar: cyr_DE
Encoding: 1044 1044 132
Width: 778
Flags: W
LayerCount: 2
Fore
SplineSet
534 548 m 3
 512.950195312 548 409.461914062 527.653320312 354.120117188 422.370117188 c 2
 214.899414062 155.610351562 l 18
 190.13671875 108.500976562 157.01953125 3.419921875 76.6494140625 3.419921875 c 3
 52.7099609375 3.419921875 25.349609375 11.970703125 25.349609375 35.91015625 c 27
 25.349609375 109.440429688 98.8798828125 128.25 189.509765625 128.25 c 3
 235.6796875 128.25 252.779296875 0 393 0 c 3
 579.389648438 0 712.76953125 241.775390625 712.76953125 355.680664062 c 3
 712.76953125 446.310546875 675.149414062 548.91015625 584.51953125 548.91015625 c 3
 535.784179688 548.91015625 417.514914983 566 307 329 c 4
 218.401544951 139 510 25 632 148 c 1028
EndSplineSet
EndChar

StartChar: cyr_IE
Encoding: 1045 1045 133
Width: 591
Flags: W
LayerCount: 2
Fore
SplineSet
486.180664062 552.330078125 m 25
 469.080078125 502.740234375 l 25
 469.080078125 502.740234375 446.850585938 550.620117188 369.900390625 550.620117188 c 3
 271.575195312 550.620117188 185.220703125 476.234375 185.220703125 377.91015625 c 27
 185.220703125 311.219726562 219.419921875 241.109375 286.110351562 241.109375 c 27
 302.35546875 241.109375 320.310546875 247.094726562 320.310546875 263.33984375 c 27
 320.310546875 290.700195312 291.240234375 306.08984375 263.879882812 306.08984375 c 27
 160.424804688 306.08984375 65.5205078125 233.415039062 65.5205078125 129.959960938 c 27
 65.5205078125 52.1552734375 138.1953125 0 216 0 c 19
 408.173828125 0 522.737304688 195.794921875 590.490234375 270.1796875 c 1024
EndSplineSet
EndChar

StartChar: cyr_ZHE
Encoding: 1046 1046 134
Width: 1110
Flags: W
LayerCount: 2
Fore
SplineSet
154 490 m 1
 193 509 250 540.953430176 335 542 c 0
 441.991890334 543.317346869 401 348 335 221 c 0
 269 94 178 0 100 0 c 0
 24 0 12 41 0 76 c 0
 0 76 12 0 100 0 c 0
 256 0 620 542 620 542 c 1
 426 0 l 1
 426 0 735 542 965 542 c 0
 1024 542 1045 506 1045 506 c 0
 1045 506 1024 542 965 542 c 0
 930 542 809 520 675 308 c 0
 511 47 669 0 749 0 c 0
 842 0 1016.640625 140.587890625 1110 264.48046875 c 1025
EndSplineSet
EndChar

StartChar: cyr_ZE
Encoding: 1047 1047 135
Width: 588
Flags: W
LayerCount: 2
Fore
SplineSet
295 472 m 17
 323.324664909 492.71509136 380 540.953430176 435 540.953430176 c 0
 486.000021262 540.953430176 539 513 539 462 c 3
 539 323 321 305.86328125 289 289 c 1
 322 295.151367188 485 294.250902448 485 150 c 3
 485 37 363 0 237 0 c 3
 191.570260512 0 85.7502120779 30.4088592103 63 76.6639099121 c 1025
EndSplineSet
EndChar

StartChar: cyr_I
Encoding: 1048 1048 136
Width: 756
Flags: W
LayerCount: 2
Fore
SplineSet
144.07421875 536.939453125 m 17
 153.280273438 540.634765625 185.061523438 546.666992188 209.909179688 546.344726562 c 0
 264.736328125 546.344726562 293.69921875 518.990234375 293.69921875 455.71484375 c 3
 293.69921875 418.951171875 276.359375 378.9140625 259.5 347.129882812 c 10
 155.189453125 150.479492188 l 18
 106.688476562 59.0419921875 108.560546875 0 174 0 c 3
 264.799804688 0 401.880859375 160.161132812 429.64453125 212.040039062 c 10
 611.759765625 552.330078125 l 25
 403.995117188 159.029296875 l 18
 365.791992188 86.7109375 317.358398438 0.8544921875 400.57421875 0.8544921875 c 3
 573.284179688 0.8544921875 756.254882812 265.904296875 756.254882812 265.904296875 c 1049
EndSplineSet
EndChar

StartChar: cyr_SHORT_I
Encoding: 1049 1049 137
Width: 756
Flags: W
LayerCount: 2
Fore
SplineSet
413 622 m 29
 564 622 l 1053
144.07421875 536.939453125 m 17
 153.280273438 540.634765625 185.061523438 546.666992188 209.909179688 546.344726562 c 0
 264.736328125 546.344726562 293.69921875 518.990234375 293.69921875 455.71484375 c 3
 293.69921875 418.951171875 276.359375 378.9140625 259.5 347.129882812 c 10
 155.189453125 150.479492188 l 18
 106.688476562 59.0419921875 108.560546875 0 174 0 c 3
 264.799804688 0 401.880859375 160.161132812 429.64453125 212.040039062 c 10
 611.759765625 552.330078125 l 25
 403.995117188 159.029296875 l 18
 365.791992188 86.7109375 317.358398438 0.8544921875 400.57421875 0.8544921875 c 3
 573.284179688 0.8544921875 756.254882812 265.904296875 756.254882812 265.904296875 c 1049
EndSplineSet
EndChar

StartChar: cyr_KA
Encoding: 1050 1050 138
Width: 776
Flags: W
LayerCount: 2
Fore
SplineSet
277.890625 266.305664062 m 17
 277.890625 266.305664062 319.890625 288.19921875 376.661132812 288.19921875 c 3
 439.049804688 288.19921875 457 254.4765625 457 208 c 3
 457 145.010742188 411.137695312 119.288085938 411.137695312 61.642578125 c 3
 411.137695312 25.0126953125 424.452148438 0 468 0 c 3
 526.818359375 0 603 62 776 264.48046875 c 1033
218.999023438 462 m 17
 243.999023438 500 277 547 338 547 c 0
 362.681640625 547 381.648281099 534.44967107 381.648281099 515.685287203 c 0
 381.648281099 476.669312142 315.950195312 350.798828125 298.890625 314.305664062 c 2
 211 129 l 2
 166.545475484 35.2735623282 134.96368326 0 110 0 c 3
 78.6076906211 0 62.1891221286 21.8891413717 62.1891221286 51.3650275338 c 0
 62.1891221286 73.8130078765 60 157 277.890625 266.305664062 c 2
 380.999997747 317.909435382 l 2
 598.59524409 426.8106442 499 545 708 545 c 1024
EndSplineSet
EndChar

StartChar: cyr_EL
Encoding: 1051 1051 139
Width: 757
Flags: W
LayerCount: 2
Fore
SplineSet
0 76.6640625 m 17
 0 18 62.1005859375 -3 87.8876953125 -3 c 3
 281.023301097 -3 389 528.9609375 606.65234375 528.9609375 c 1
 518.736558398 277.000009753 l 6
 475.760067454 153.832179469 449.984375 69.4252590354 449.984375 44.5849609375 c 0
 449.984375 18.595703125 459.899414062 -0.251953125 483.065429688 -0.251953125 c 0
 533.21875 -0.251953125 686.36328125 113 757 264.48046875 c 1024
EndSplineSet
EndChar

StartChar: cyr_EM
Encoding: 1052 1052 140
Width: 759
Flags: W
LayerCount: 2
Fore
SplineSet
0 76.6640625 m 17
 -0.445671731307 7 36.400390625 0 66.5439453125 0 c 0
 198 0 394.391601562 376 461.130859375 528.9609375 c 1
 339.971679688 237.109375 210 27.173828125 322.489257812 20 c 1
 426 12 666.764274594 269.283866435 778.930664062 528.9609375 c 1
 627.778320312 184.4296875 487.795898438 -8.21484375 592.200195312 0 c 0
 638.418945312 3.63671875 721.556640625 50.4453125 759 76.6640625 c 1028
EndSplineSet
EndChar

StartChar: cyr_EN
Encoding: 1053 1053 141
Width: 703
Flags: W
LayerCount: 2
Fore
SplineSet
123.55859375 478.247070312 m 0
 137.311523438 492 183.999980976 541 221 541 c 3
 283.00001749 541 229 478 281 478 c 3
 320.509432067 478 350.702888579 500.110947038 372.997070312 541 c 1
 358.341794292 509.00037404 138.891509993 -0.842764534393 57 -0.842764534393 c 3
 37.7516966455 -0.842764534393 30.8733115255 12.8871783559 30.8733115255 31.9636658039 c 0
 30.8733115255 83.4836268672 105.659398718 301 315 301 c 2
 404 301 l 2
 512 301 565.589127907 340 609.748046875 441 c 0
 629.070129479 485.19334505 634.654903284 533 600.547851562 533 c 4
 534 533 354.962890625 222.374023438 354.962890625 75.990234375 c 0
 354.962890625 35.251953125 364.4453125 0 415.666015625 0 c 0
 456.916015625 0 529.695327783 34.4974009217 703 264.48046875 c 1025
EndSplineSet
EndChar

StartChar: cyr_O
Encoding: 1054 1054 142
Width: 613
Flags: W
LayerCount: 2
Fore
SplineSet
414 540.953125 m 0
 286.688741628 540.953125 131.670663565 344.624410067 131.670663565 164.50642851 c 3
 131.670663565 73.7219761065 171.216089113 -1.42108547152e-14 256 0 c 3
 485.008795562 0 557.263656907 260.758172154 557.263656907 363.589154812 c 3
 557.263656907 468.228689017 498.816212298 528 438 528 c 3
 369.726481949 528 330.480680973 485.92602574 330.480680973 445.078740567 c 0
 330.480680973 406.54582728 365.405204734 369.104534779 443.832042217 369.104534779 c 3
 536.690814226 369.104534779 661.293372279 417.295814355 714 531 c 1024
EndSplineSet
EndChar

StartChar: cyr_PE
Encoding: 1055 1055 143
Width: 715
VWidth: -303
Flags: W
LayerCount: 2
Fore
SplineSet
541 540.953125 m 0
 456.676757812 346 l 2
 406.73907583 230.545388612 287 0 423 0 c 0
 478 0 557.029574573 54.8466337177 715 264.48046875 c 1032
346 540.953125 m 1
 265.344726562 368 l 18
 227.873046875 281.583984375 119.958007812 0 0 0 c 1027
154.333984375 387.077148438 m 1
 116.264648438 408.9296875 95.1025390625 437.763671875 112 474 c 0
 140.444335938 535 176.625 540.953125 229 540.953125 c 10
 684 540.953125 l 1049
EndSplineSet
EndChar

StartChar: cyr_ER
Encoding: 1056 1056 144
Width: 645
Flags: W
LayerCount: 2
Fore
SplineSet
440.383789062 540 m 25
 254.331054688 141 l 2
 242.972587891 116.641162881 178.5078125 0 111 0 c 3
 57.9150390625 0 0 49.759765625 0 76.6640625 c 1033
198.723106062 490.908748781 m 1
 276 528.953430176 363.916895035 540.905073523 456 540.953125 c 0
 546 541 634 510.751344694 634 396 c 0
 634 301 539.000976562 264.48046875 446 264.48046875 c 4
 363 264.48046875 328 289 328 289 c 1049
EndSplineSet
EndChar

StartChar: cyr_ES
Encoding: 1057 1057 145
Width: 628
Flags: W
LayerCount: 2
Fore
SplineSet
542.700195312 547.200195312 m 25
 532.440429688 504.450195312 l 25
 532.440429688 504.450195312 476.010742188 552.330078125 433.260742188 552.330078125 c 3
 293.040039062 552.330078125 63.900390625 380.475585938 63.900390625 174.419921875 c 19
 63.900390625 77.0458984375 118.640625 0 252 0 c 11
 432.793945312 0 540.990234375 165.015625 628.200195312 270.180664062 c 1024
EndSplineSet
EndChar

StartChar: cyr_TE
Encoding: 1058 1058 146
Width: 977
VWidth: -303
Flags: W
LayerCount: 2
Fore
SplineSet
552 540.953125 m 17
 468.463879868 361.491512544 384.930932981 182.063410527 301.1484375 0 c 1033
751 540.953125 m 0
 666.676757812 346 l 2
 616.739257812 230.544921875 497 0 633 0 c 0
 688 0 819.029296875 54.8466796875 977 264.48046875 c 1032
346 540.953125 m 1
 265.344726562 368 l 18
 227.873046875 281.583984375 119.958007812 0 0 0 c 1027
154.333984375 387.077148438 m 1
 116.264648438 408.9296875 95.1025390625 437.763671875 112 474 c 0
 140.444335938 535 176.704755807 540.953125 229 540.953125 c 2
 916 540.953125 l 1053
EndSplineSet
EndChar

StartChar: cyr_U
Encoding: 1059 1059 147
Width: 695
Flags: W
LayerCount: 2
Fore
SplineSet
149.25 530.100585938 m 25
 149.25 530.100585938 189.434570312 547.200195312 215.939453125 547.200195312 c 27
 264.674804688 547.200195312 302.294921875 508.725585938 302.294921875 459.990234375 c 3
 302.294921875 336.870117188 145.830078125 178.6953125 145.830078125 56.4306640625 c 3
 145.830078125 28.21484375 163.784179688 0 192 0 c 3
 288.614257812 0 439.689453125 205.200195312 486.119140625 301.815429688 c 10
 602.399414062 543.780273438 l 1
 253.559570312 -179.549804688 l 18
 236.61328125 -214.689453125 215.231445312 -283.763671875 161.219726562 -283.859375 c 8
 135.569335938 -283.859375 128.729492188 -261.629882812 128.729492188 -235.979492188 c 3
 128.729492188 -163.3046875 347.609375 1.7099609375 388.649414062 35.91015625 c 2
 476.71484375 106.020507812 l 2
 546.82421875 161.8359375 610.051757812 206.2734375 694.739257812 265.049804688 c 1033
EndSplineSet
EndChar

StartChar: cyr_EF
Encoding: 1060 1060 148
Width: 575
Flags: W
LayerCount: 2
Fore
SplineSet
112 541 m 1
 367 541 l 1
 329 402 l 2
 292.509765625 271.943359375 259 166 147 166 c 0
 78.9681079133 166 26.0486244548 217.170540862 26.0486244548 277.999997856 c 3
 26.0486244548 365.294200907 112.663229634 436 191 436 c 0
 257.68862869 436 304.524414062 384.243164062 304.524414062 334 c 3
 304.524414062 314.4609375 292.880773274 278.305154427 292.880773274 256 c 3
 292.880773274 189.652891464 347.105861818 170 407 170 c 0
 493.924918521 170 573.522032775 239.37146629 573.522032775 335.999997646 c 3
 573.522032775 392.815541451 514.22423603 436 459 436 c 0
 316 436 297.57421875 294.865234375 280 224 c 2
 249 99 l 2
 234 35 184 0 124 0 c 3
 63 0 20 51 0 77 c 1025
EndSplineSet
EndChar

StartChar: cyr_HA
Encoding: 1061 1061 149
Width: 729
Flags: W
LayerCount: 2
Fore
SplineSet
79.775390625 394 m 1
 111.674804688 459.149414062 177.21752483 540.17595149 261.599609375 541 c 0
 364 542 389.599609375 482 341.599609375 286 c 0
 295.200195312 96 180.799804688 0 106.400390625 0 c 0
 33.599609375 0 17.599609375 41 0.7998046875 76 c 1024
655.794341529 393.999998087 m 3
 655.794341529 465.017895796 630.997730632 541 555.200195312 541 c 0
 504 541 395.200195312 479 341.599609375 286 c 0
 290.400390625 102 332.056954241 18.2062930927 397.599609375 0 c 0
 505.599609375 -30 629.471831471 132.402128098 729 264.48046875 c 1032
EndSplineSet
EndChar

StartChar: cyr_TSE
Encoding: 1062 1062 150
Width: 720
Flags: W
LayerCount: 2
Fore
SplineSet
144.07421875 536.939453125 m 17
 153.280273438 540.634765625 185.061523438 546.666992188 209.909179688 546.344726562 c 0
 264.736328125 546.344726562 293.69921875 518.990234375 293.69921875 455.71484375 c 3
 293.69921875 418.951171875 276.359375 378.9140625 259.5 347.129882812 c 10
 155.189453125 150.479492188 l 18
 106.688476562 59.0419921875 108.560546875 0 174 0 c 3
 264.799804688 0 421.880859375 160.161132812 449.64453125 212.040039062 c 10
 611.759765625 552.330078125 l 25
 423.995117188 159.029296875 l 18
 385.791992188 86.7109375 337.358398438 0.8544921875 420.57421875 0.8544921875 c 3
 481.561523438 0.8544921875 543.829101562 33.9052734375 598.8671875 76.6640625 c 1
 506.239257812 -126 l 18
 491.26953125 -158.751953125 463.669921875 -202.630859375 429.239257812 -202 c 8
 401 -202 369 -163 416.239257812 -131 c 0
 537.552734375 -48.822265625 660.8984375 35.2802734375 720 76.6640625 c 1029
EndSplineSet
EndChar

StartChar: cyr_CHE
Encoding: 1063 1063 151
Width: 608
Flags: W
LayerCount: 2
Fore
SplineSet
6 537 m 17
 15 541 37 546 62 546 c 0
 117 546 168 532 168 493 c 3
 168 456 147 422 134 395 c 2
 129 385 l 18
 83 291 83 235 148 235 c 3
 239 235 357 354 384 406 c 2
 464 552 l 1
 256 159 l 18
 218 87 170 1 253 1 c 3
 426 1 608 266 608 266 c 1049
EndSplineSet
EndChar

StartChar: cyr_SHA
Encoding: 1064 1064 152
Width: 670
Flags: W
LayerCount: 2
Fore
SplineSet
27.3896484375 534.375 m 17
 43.4248046875 540.805664062 58.017578125 545.490234375 81.2548828125 545.490234375 c 0
 129.134765625 545.490234375 175.3046875 537.794921875 175.3046875 489.915039062 c 19
 175.3046875 435.126953125 136.805664062 372.587890625 120.32421875 325.754882812 c 2
 52.8544921875 162.450195312 l 18
 22.787109375 89.6748046875 3.859375 0 62 0 c 3
 125.551757812 0 221.153320312 116.928710938 251.474609375 182.115234375 c 10
 309.5390625 306.9453125 l 18
 343.676757812 380.336914062 412.064453125 545.490234375 412.064453125 545.490234375 c 9
 283.5546875 237.690429688 l 18
 252.831054688 169.415039062 200.359375 0 288.424804688 0 c 3
 395.299804688 0 473.364257812 194.084960938 473.364257812 194.084960938 c 26
 540.0546875 341.145507812 l 18
 570 406 627 540.953125 627 540.953125 c 25
 506 264.48046875 l 26
 464 168 444 0 518 0 c 0
 568 0 634.850585938 52.0517578125 670 76.6640625 c 1024
EndSplineSet
EndChar

StartChar: cyr_SHCHA
Encoding: 1065 1065 153
Width: 817
Flags: W
LayerCount: 2
Fore
SplineSet
817 76 m 5
 758 35 635 -50 514 -132 c 4
 467 -164 499 -203 527 -203 c 20
 561 -204 589 -160 604 -127 c 14
 696 76 l 5
 641 33 580 0 519 0 c 7
 444 0 464 168 506 264 c 30
 627 541 l 29
 627 541 570 406 540 341 c 14
 473 194 l 30
 473 194 395 0 288 0 c 7
 200 0 253 170 284 238 c 14
 412 545 l 21
 412 545 344 380 310 307 c 14
 251 182 l 22
 221 117 126 0 62 0 c 7
 4 0 23 89 53 162 c 14
 120 326 l 6
 136 373 175 435 175 490 c 15
 175 538 129 545 81 545 c 4
 58 545 43 540 27 534 c 1037
EndSplineSet
EndChar

StartChar: cyr_HARD_SIGN
Encoding: 1066 1066 154
Width: 618
Flags: W
LayerCount: 2
Fore
SplineSet
1.6015625 397.732421875 m 1
 75.22265625 397.732421875 152.059570312 469.572265625 192.0390625 540.862304688 c 1
 133.904296875 437.364257812 163.971679688 397.732421875 254.670898438 397.732421875 c 3
 335.958984375 397.732421875 384.193359375 451.16796875 471.181640625 540.862304688 c 9
 396 386 309 313 279.44140625 144.172851562 c 24
 268 77 333 0 406.330078125 0 c 3
 521 0 581.909179688 39.9609375 615.413085938 115.03125 c 0
 648.760742188 189.75 588.868164062 282.516601562 485.801757812 282.516601562 c 0
 426.904296875 282.516601562 300.283203125 262 279.44140625 144.172851562 c 1024
EndSplineSet
EndChar

StartChar: cyr_YERU
Encoding: 1067 1067 155
Width: 908
Flags: W
LayerCount: 2
Fore
SplineSet
249 535 m 1
 107 230 l 2
 61.8393442623 133 47 0 182 0 c 3
 292.168945312 0 378 57 378 171.16015625 c 3
 378 264.458869409 343 305 206 294.48046875 c 1
 475.704345703 312.329101562 576.698227957 408.171189661 644 540.953125 c 9
 644 540.953125 576.407226562 396 499.466796875 231 c 0
 422.9921875 67 502 0 602 0 c 3
 676.721679688 0 752.701171875 58.392578125 908 264.48046875 c 1033
EndSplineSet
EndChar

StartChar: cyr_SOFT_SIGN
Encoding: 1068 1068 156
Width: 413
Flags: W
LayerCount: 2
Fore
SplineSet
289.500976562 540.862304688 m 5
 199.115362545 447 87.7877400727 237 64.0546875 144.172851562 c 4
 42.5342672737 59.9999776069 104 0 177.330078125 0 c 7
 292 0 356.405273438 39.9609375 396.4765625 115.03125 c 4
 436.361328125 189.75 384.584960938 282.516601562 281.518554688 282.516601562 c 4
 166 282.516601562 88.5957374429 237 64.0546875 144.172851562 c 1028
EndSplineSet
EndChar

StartChar: cyr_E
Encoding: 1069 1069 157
Width: 588
Flags: W
LayerCount: 2
Fore
SplineSet
298 264.48046875 m 25
 565 264.48046875 l 1049
300.453125 547.200195312 m 25
 280.779296875 504.450195312 l 25
 280.779296875 504.450195312 370.735351562 552.330078125 413.485351562 552.330078125 c 3
 553.706054688 552.330078125 662.51171875 380.475585938 518.229492188 174.419921875 c 16
 450.047851562 77.0458984375 341.359375 0 208 0 c 3
 78.595703125 0 45.578125 84.5380859375 32.2861328125 171.16015625 c 1025
EndSplineSet
EndChar

StartChar: cyr_YU
Encoding: 1070 1070 158
Width: 765
Flags: W
LayerCount: 2
Fore
SplineSet
104 264.48046875 m 25
 353.611328125 540.953125 l 25
 159.182617188 124 l 18
 127.885742188 56.8828125 77.8564453125 0 23 0 c 3
 -46 0 -13 74 53 74 c 3
 270 74 379 264.48046875 379 264.48046875 c 1025
379 264.48046875 m 1
 329.571289062 153.640625 323 0 433 0 c 3
 602 0 702.794921875 124.16015625 775 264.48046875 c 0
 830.115234375 371.587890625 829 540.953125 709 540.953125 c 3
 577.732421875 540.953125 436.465820312 386.995117188 380 266 c 1025
EndSplineSet
EndChar

StartChar: cyr_YA
Encoding: 1071 1071 159
Width: 438
Flags: W
LayerCount: 2
Fore
SplineSet
0 80.662109375 m 17
 0.6328125 28 41.42578125 1.2646484375 88.53125 0 c 0
 166 -2.080078125 354.493164062 280.056640625 417.791015625 396 c 0
 457.099609375 468 445.443359375 537.892578125 377.659179688 538.48046875 c 0
 294.529296875 539.202148438 190.240234375 474.400390625 128.734375 370 c 4
 91.580078125 306.934570312 93.80078125 180.62890625 185.168945312 180.400390625 c 0
 281.1796875 180.16015625 375.555664062 321.903320312 498.622070312 537.80078125 c 1
 498.622070312 537.80078125 167 0 259.98046875 0 c 0
 335 0 393.560546875 45.5478515625 438 76.6640625 c 1033
EndSplineSet
EndChar

StartChar: cyr_zhe.high
Encoding: 65591 -1 160
Width: 526
Flags: W
LayerCount: 2
Fore
SplineSet
0 171.16015625 m 1
 80 171.16015625 153.369140625 261.236328125 209.494140625 264.48046875 c 4
 261.618164062 267.494140625 241.887695312 170 209.551757812 108 c 4
 177.216796875 46 133 0 95 0 c 4
 58 0 53.3984375 20 48.5869140625 37 c 4
 48.5869140625 37 52 0 95 0 c 4
 171 0 348.494140625 264.48046875 348.494140625 264.48046875 c 5
 254 0 l 5
 254 0 414.477539062 264.244140625 526.494140625 264.48046875 c 4
 555.262695312 264.541015625 565.271484375 247 565.271484375 247 c 4
 565.271484375 247 555.494140625 264.48046875 526.494140625 264.48046875 c 4
 509.484375 264.48046875 440.697265625 253.563476562 375.489257812 150 c 4
 295.250976562 22.568359375 347.80859375 0 387 0 c 4
 416.359375 0 467 34.65234375 527 76.6640625 c 1025
EndSplineSet
EndChar

StartChar: cyr_zhe.low
Encoding: 65592 -1 161
Width: 635
Flags: W
LayerCount: 2
Fore
SplineSet
0 76.6640625 m 1
 65.5322265625 122.549804688 264.494140625 264.48046875 318.494140625 264.48046875 c 4
 370.494140625 264.48046875 350.887695312 170 318.551757812 108 c 4
 286.216796875 46 242 0 204 0 c 4
 167 0 162.3984375 20 157.586914062 37 c 4
 157.586914062 37 161 0 204 0 c 4
 280 0 457.494140625 264.48046875 457.494140625 264.48046875 c 5
 363 0 l 5
 363 0 523.477539062 264.244140625 635.494140625 264.48046875 c 4
 664.262695312 264.541015625 674.271484375 247 674.271484375 247 c 4
 674.271484375 247 664.494140625 264.48046875 635.494140625 264.48046875 c 4
 618.484375 264.48046875 549.697265625 253.563476562 484.489257812 150 c 4
 404.250976562 22.568359375 456.80859375 0 496 0 c 4
 525.359375 0 576 34.65234375 636 76.6640625 c 1025
EndSplineSet
EndChar

StartChar: cyr_be.low
Encoding: 65593 -1 162
Width: 457
VWidth: -303
Flags: W
LayerCount: 2
Fore
SplineSet
0 76.6640625 m 20
 98.6337890625 145.728515625 259.692382812 259.798828125 327.29296875 259.798828125 c 1
 388.166992188 259.798828125 410.349609375 229.568359375 408.3046875 200.317382812 c 1
 410.625976562 233.518554688 383.166992188 259.798828125 327.29296875 259.798828125 c 0
 263.166992188 259.798828125 169.717773438 185.963867188 161.692382812 71.1962890625 c 0
 159.043945312 33.318359375 182.294921875 -4.673828125 230.857421875 -4.673828125 c 0
 410.061523438 -4.673828125 403.463867188 323.40234375 559.962890625 502 c 0
 584.80078125 530.345703125 630.806640625 540.662109375 721.827148438 540.953125 c 1033
EndSplineSet
EndChar

StartChar: cyr_be.high
Encoding: 65594 -1 163
Width: 321
VWidth: -303
Flags: W
LayerCount: 2
Fore
SplineSet
-0.0302734375 171.16015625 m 1
 89 171.16015625 123.587991987 260.787693002 201.493164062 259.798828125 c 5
 262.3671875 259.798828125 284.549804688 229.568359375 282.504882812 200.317382812 c 1
 284.826171875 233.518554688 257.3671875 259.798828125 201.493164062 259.798828125 c 0
 137.3671875 259.798828125 43.91796875 185.963867188 35.892578125 71.1962890625 c 0
 33.244140625 33.318359375 56.4951171875 -4.673828125 105.057617188 -4.673828125 c 0
 284.26171875 -4.673828125 277.6640625 323.40234375 434.163085938 502 c 0
 459.000976562 530.345703125 505.006835938 540.662109375 596.02734375 540.953125 c 1033
EndSplineSet
EndChar

StartChar: dollar
Encoding: 36 36 164
Width: 360
Flags: W
LayerCount: 2
Fore
SplineSet
414 540.953125 m 25
 160.350585938 0 l 1049
334 540.953125 m 25
 80.3505859375 0 l 1049
457.315429688 452.599609375 m 21
 457.315429688 457.599609375 419.015625 515.299804688 362.015625 515.299804688 c 0
 286 515.299804688 213.059570312 474.047851562 186.1875 405.099609375 c 0
 169 361 185.696289062 303.797851562 259.232421875 303 c 0
 332.904296875 302.200195312 363 234 345.03125 184.700195312 c 0
 301.19140625 64.419921875 216.553710938 32.7001953125 130.103515625 32.7001953125 c 0
 76.509765625 32.7001953125 32.00390625 84.9501953125 37.0634765625 128.650390625 c 1033
EndSplineSet
EndChar

StartChar: cyr_ya.low
Encoding: 65595 -1 165
Width: 432
Flags: W
LayerCount: 2
Fore
SplineSet
0 76.8310546875 m 1
 0 48 21.4722649665 -1.29646226435 68.53125 0 c 0
 142.217159148 2.03002679629 279.52734375 140.028320312 314.274414062 198 c 0
 335.852539062 234 326.15234375 265.200195312 285.65234375 265.200195312 c 0
 230.272460938 265.200195312 158.970703125 229.538085938 127.0859375 180 c 0
 97.478515625 134 124.7421875 90 175.142578125 90 c 0
 266.342773438 90 317.47265625 201 360.186523438 263.900390625 c 1
 360.186523438 263.900390625 171.299804688 0 253.98046875 0 c 0
 314.400390625 0 396.701171875 56.0673828125 432 76.6640625 c 1025
EndSplineSet
EndChar

StartChar: cyr_ya.high
Encoding: 65596 -1 166
Width: 516
Flags: W
LayerCount: 2
Fore
SplineSet
0 171.16015625 m 17
 0 63 51.9715435832 0.287879610221 138.53125 0 c 0
 220.000166183 -0.270948698958 311.966027788 54 398.274414062 198 c 0
 419.851782443 234.000453501 410.15234375 265.200195312 369.65234375 265.200195312 c 0
 314.272460938 265.200195312 243.587890625 230 211.0859375 180 c 0
 179.552734375 131.490234375 208.7421875 90 259.142578125 90 c 4
 338 90 401.47265625 201 444.186523438 263.900390625 c 1
 444.186523438 263.900390625 255.299804688 0 337.98046875 0 c 0
 398.400390625 0 480.701171875 56.0673828125 516 76.6640625 c 1033
EndSplineSet
EndChar

StartChar: cyr_em.low
Encoding: 65597 -1 167
Width: 559
Flags: W
LayerCount: 2
Fore
SplineSet
0 76.6640625 m 17
 -0.445671731307 7 26 0 47.53125 0 c 0
 116 0 224.565429688 188 272.236328125 264.48046875 c 5
 185.694335938 118.5546875 150 13.5867841546 230.349609375 10 c 1
 308 10.3732136883 499.236328125 264.48046875 499.236328125 264.48046875 c 5
 391.270507812 92.21484375 348.42578125 -4.107421875 423 0 c 0
 456.013671875 1.818359375 521.556640625 50.4453125 559 76.6640625 c 1024
EndSplineSet
EndChar

StartChar: cyr_em.high
Encoding: 65598 -1 168
Width: 609
Flags: W
LayerCount: 2
Fore
SplineSet
0 170.6640625 m 17
 0 75 9 0 97.53125 0 c 0
 177 0 274.565429688 188 322.236328125 264.48046875 c 1
 235.694335938 118.5546875 200 13.5869140625 280.349609375 10 c 1
 358 10.373046875 549.236328125 264.48046875 549.236328125 264.48046875 c 1
 441.270507812 92.21484375 398.42578125 -4.107421875 473 0 c 0
 506.013671875 1.818359375 571.556640625 50.4453125 609 76.6640625 c 1024
  Spiro
    0 170.664 {
    12.6989 68.4208 o
    47.1637 15.1775 o
    97.5312 0 o
    175.541 51.4813 o
    258.085 162.038 o
    322.236 264.48 v
    255.104 134.557 o
    236.277 45.0782 o
    280.35 10 v
    384.453 76.0291 o
    496.874 198.7 o
    549.236 264.48 v
    464.973 118.555 o
    435.631 28.4021 o
    473 0 o
    514.563 14.8323 o
    564.485 45.573 o
    609 76.6641 o
    0 0 z
  EndSpiro
EndSplineSet
EndChar

StartChar: Y
Encoding: 89 89 169
Width: 695
Flags: W
LayerCount: 2
Fore
SplineSet
149.25 530.100585938 m 25
 149.25 530.100585938 189.434570312 547.200195312 215.939453125 547.200195312 c 27
 264.674804688 547.200195312 302.294921875 508.725585938 302.294921875 459.990234375 c 3
 302.294921875 336.870117188 145.830078125 178.6953125 145.830078125 56.4306640625 c 3
 145.830078125 28.21484375 163.784179688 0 192 0 c 3
 288.614257812 0 439.689453125 205.200195312 486.119140625 301.815429688 c 10
 602.399414062 543.780273438 l 1
 253.559570312 -179.549804688 l 18
 236.61328125 -214.689453125 215.231445312 -283.763671875 161.219726562 -283.859375 c 8
 135.569335938 -283.859375 128.729492188 -261.629882812 128.729492188 -235.979492188 c 3
 128.729492188 -163.3046875 347.609375 1.7099609375 388.649414062 35.91015625 c 2
 476.71484375 106.020507812 l 2
 546.82421875 161.8359375 610.051757812 206.2734375 694.739257812 265.049804688 c 1033
EndSplineSet
EndChar

StartChar: comma
Encoding: 44 44 170
Width: 64
VWidth: 0
Flags: W
LayerCount: 2
Fore
SplineSet
47.853515625 40 m 5
 -11.83203125 -88 l 1029
EndSplineSet
EndChar

StartChar: hyphen
Encoding: 45 45 171
Width: 342
Flags: W
LayerCount: 2
Fore
SplineSet
75 142 m 25
 325 142 l 1049
EndSplineSet
EndChar

StartChar: cyr_en.low
Encoding: 65599 -1 172
Width: 484
Flags: W
LayerCount: 2
Fore
SplineSet
0 76.6639099121 m 17
 70.5289910133 126.048841082 113 159 167 264.48046875 c 9
 43.2044243313 0 l 17
 64 42 101 125 196 125 c 0
 282 125 299 154 358 264.48046875 c 1
 326 194 188 0 286 0 c 0
 351 0 457.426707683 58.0570903169 484 76.6639099121 c 1033
EndSplineSet
EndChar

StartChar: cyr_en.high
Encoding: 65600 -1 173
Width: 484
Flags: W
LayerCount: 2
Fore
SplineSet
0 171.16015625 m 17
 28 171.16015625 129.47134109 184 167 264.48046875 c 1
 43.2044243313 0 l 17
 64 42 101 125 196 125 c 0
 282 125 299 154 358 264.48046875 c 1
 326 194 188 0 286 0 c 0
 351 0 457.426707683 58.0570903169 484 76.6639099121 c 1037
EndSplineSet
EndChar

StartChar: underscore
Encoding: 95 95 174
Width: 355
VWidth: 0
Flags: W
LayerCount: 2
Fore
SplineSet
0 0 m 25
 355 0 l 1049
EndSplineSet
EndChar

StartChar: A
Encoding: 65 65 175
Width: 716
VWidth: -303
Flags: W
AnchorPoint: "top" 533 585 basechar 0
LayerCount: 2
Fore
SplineSet
585.9453125 485.456054688 m 0
 585.9453125 485.456054688 551.87109375 517.087890625 486.803710938 517.087890625 c 0
 286.588495864 517.087890625 15.5094336606 179.439216074 15.5094336606 61.8582806762 c 4
 15.5094336606 9.40719422873 55.395591584 -7.6435546875 83.283203125 -7.6435546875 c 0
 307.365302554 -7.6435546875 566.23285032 455.607553678 584.169921875 483.456054688 c 1
 549.664229801 418.464569079 370.341125548 168.742737724 370.341125548 53.8351227871 c 0
 370.341125548 21.3059300475 389.960877899 -3.55077397637 425.407067974 -3.55077397637 c 0
 499.20181015 -3.55077397637 629.49318667 78.966008892 716 264.48046875 c 1024
EndSplineSet
EndChar

StartChar: semicolon
Encoding: 59 59 176
Width: 64
VWidth: 0
Flags: W
HStem: 239 36<130.006 165.994>
VStem: 130 36<239.006 274.994>
LayerCount: 2
Fore
SplineSet
130 257 m 0
 130 267 138 275 148 275 c 0
 158 275 166 267 166 257 c 0
 166 247 158 239 148 239 c 0
 138 239 130 247 130 257 c 0
47.853515625 40 m 1
 -11.83203125 -88 l 1025
EndSplineSet
EndChar

StartChar: B
Encoding: 66 66 177
Width: 606
Flags: W
LayerCount: 2
Fore
SplineSet
45.25 282.150390625 m 17
 155.091796875 339.920898438 265.432617188 395.590820312 353.049804688 547.200195312 c 9
 88 0 l 17
 158.161132812 145.350585938 l 2
 322.1875 485.154296875 378.700195312 547.200195312 506.950195312 547.200195312 c 0
 609.549804688 547.200195312 643.75 478.80078125 643.75 427.5 c 0
 643.75 273.600585938 464.200195312 239.400390625 430 239.400390625 c 0
 399.171875 239.400390625 358.211664786 248 370.149414062 273.600585938 c 0
 375.931355796 286 392 299.25 414.349609375 299.25 c 0
 494 299.25 515.5 222.30078125 515.5 153.900390625 c 27
 515.5 59.8505859375 430 0 335.950195312 0 c 3
 190.599609375 0 164.950195312 145.350585938 164.950195312 145.350585938 c 17
 183.0242935 118.20916497 248 82 310.299804688 76.9501953125 c 28
 390 70 475.772460938 94.08203125 510.447265625 115.790039062 c 1029
EndSplineSet
EndChar

StartChar: equal
Encoding: 61 61 178
Width: 253
Flags: W
LayerCount: 2
Fore
SplineSet
46.158203125 76.6640625 m 25
 208.158203125 76.6640625 l 1049
91 171.16015625 m 25
 253 171.16015625 l 1049
EndSplineSet
EndChar

StartChar: C
Encoding: 67 67 179
Width: 628
Flags: W
LayerCount: 2
Fore
SplineSet
542.700195312 547.200195312 m 25
 532.440429688 504.450195312 l 1041
532.440429688 504.450195312 m 17
 523.17660373 519.753137246 493.091574765 552.330078125 433.260742188 552.330078125 c 3
 293.040039062 552.330078125 63.900390625 380.475585938 63.900390625 174.419921875 c 19
 63.900390625 77.0458984375 118.640625 0 252 0 c 11
 432.793945312 0 540.990234375 165.015625 628.200195312 270.180664062 c 1024
EndSplineSet
EndChar

StartChar: D
Encoding: 68 68 180
Width: 714
Flags: W
LayerCount: 2
Fore
SplineSet
534 548 m 3
 512.950195312 548 403.963916777 534.316198167 345.120117188 422.370117188 c 2
 204.899414062 155.610351562 l 18
 180.13671875 108.500976562 157.01953125 3.419921875 76.6494140625 3.419921875 c 3
 52.7099609375 3.419921875 25.349609375 11.970703125 25.349609375 35.91015625 c 27
 25.349609375 109.440429688 98.8798828125 128.25 189.509765625 128.25 c 7
 235.6796875 128.25 252.779296875 0 393 0 c 3
 579.389648438 0 712.76953125 241.775390625 712.76953125 355.680664062 c 3
 712.76953125 446.310546875 675.149414062 548.91015625 584.51953125 548.91015625 c 27
 535.784179688 548.91015625 464.819335938 548.468295702 464.819335938 513 c 3
 464.819335938 453.150390625 541.76953125 441.180664062 601.620117188 441.180664062 c 27
 725.594726562 441.180664062 900.870117188 548.91015625 900.870117188 548.91015625 c 1049
EndSplineSet
EndChar

StartChar: E
Encoding: 69 69 181
Width: 591
Flags: W
LayerCount: 2
Fore
SplineSet
486.180664062 552.330078125 m 25
 469.080078125 502.740234375 l 1053
469.080078125 502.740234375 m 29
 469.080078125 502.740234375 446.850585938 550.620117188 369.900390625 550.620117188 c 3
 271.575195312 550.620117188 185.220703125 476.234375 185.220703125 377.91015625 c 27
 185.220703125 311.219726562 219.419921875 241.109375 286.110351562 241.109375 c 27
 302.35546875 241.109375 320.310546875 247.094726562 320.310546875 263.33984375 c 27
 320.310546875 290.700195312 291.240234375 306.08984375 263.879882812 306.08984375 c 27
 160.424804688 306.08984375 65.5205078125 233.415039062 65.5205078125 129.959960938 c 27
 65.5205078125 52.1552734375 138.1953125 0 216 0 c 19
 408.173828125 0 522.737304688 195.794921875 590.490234375 270.1796875 c 1024
EndSplineSet
EndChar

StartChar: F
Encoding: 70 70 182
Width: 599
Flags: W
LayerCount: 2
Fore
SplineSet
420.740234375 273.599609375 m 25
 590.885742188 273.599609375 l 1049
337.620117188 556 m 25
 338 541 297.620117188 478.540039062 297.620117188 478.540039062 c 1041
297.620117188 478.540039062 m 17
 327.620117188 525 390 548.91015625 490.850585938 548.91015625 c 3
 630 548.91015625 643.895507812 501.030273438 743.930664062 501.030273438 c 27
 833.705078125 501.030273438 904.669921875 530.955078125 904.669921875 567.719726562 c 3
 904.669921875 589.094726562 872.180664062 612.1796875 832.850585938 612.1796875 c 3
 727.685546875 612.1796875 584.448242188 451.330078125 516.5 288.990234375 c 0
 456.877929688 146.543945312 412.646484375 0 260 0 c 3
 113.794921875 0 34.2802734375 129.959960938 34.2802734375 266.759765625 c 1
 143.137723716 167.427138259 260.905273438 135.227539062 444.010742188 126.217773438 c 1029
EndSplineSet
EndChar

StartChar: G
Encoding: 71 71 183
Width: 561
Flags: W
LayerCount: 2
Fore
SplineSet
-0.80078125 1.7099609375 m 17
 151.389648438 102.249023438 486.549804688 412.109375 486.549804688 506.16015625 c 3
 486.549804688 531.809570312 466.029296875 552.330078125 440.379882812 552.330078125 c 3
 376.254882812 552.330078125 308.709960938 445.455078125 308.709960938 374.490234375 c 3
 308.709960938 293.264648438 366.849609375 271.889648438 428.409179688 271.889648438 c 3
 560.934570312 271.889648438 696.879882812 420.66015625 696.879882812 420.66015625 c 25
 696.879882812 420.66015625 606.3828125 316.345703125 560.080078125 241.109375 c 0
 519.036132812 174.419921875 469.44921875 0 307 0 c 3
 147.969726562 0 98.9697265625 182.969726562 98.3798828125 263.33984375 c 9
 98.3798828125 263.33984375 144.549804688 155.609375 243.729492188 155.609375 c 3
 275.364257812 155.609375 325.809570312 159.030273438 325.809570312 159.030273438 c 1049
EndSplineSet
EndChar

StartChar: H
Encoding: 72 72 184
Width: 610
Flags: W
LayerCount: 2
Fore
SplineSet
178.849609375 539.504882812 m 16
 183.661351955 541.977782597 208.849313814 550.114546235 241.492668481 550.114546235 c 0
 279.256322178 550.114546235 327.589733959 532.339971197 327.589733959 466.125105036 c 0
 327.589733959 433.944820938 316.173675369 390.323233999 286.580078125 331.740234375 c 10
 119 0 l 1049
787.111328125 539.504882812 m 0
 779 545 761.557617188 554 734 554 c 0
 683.219726562 554 600.536355446 514.202196466 494.1875 297.540039062 c 2
 348.139648438 0 l 17
 378.206723111 61.3562201784 389.543709698 109.084215643 389.543709698 145.961391834 c 0
 389.543709698 231.581813927 329.940840787 261.975401497 287.654840525 261.975401497 c 0
 259.241474851 261.975401497 246.177922832 247.481263689 246.177922832 228.257563717 c 0
 246.177922832 190.4115114 296.810320109 134.234375 380.629882812 134.234375 c 11
 484.940429688 134.234375 609.770507812 236.834960938 609.770507812 271.03515625 c 1024
EndSplineSet
EndChar

StartChar: I
Encoding: 73 73 185
Width: 716
Flags: W
LayerCount: 2
Fore
SplineSet
240.44921875 162.450195312 m 17
 172.049804688 154.302734375 52.8046875 172.709960938 18.1494140625 258.209960938 c 9
 18.1494140625 258.209960938 21.5693359375 0 249 0 c 3
 471.299804688 0 715.829101562 372.6640625 715.829101562 485.640625 c 3
 715.829101562 517.275390625 696.1640625 547.200195312 664.529296875 547.200195312 c 3
 555.08984375 547.200195312 454.19921875 351.405273438 454.19921875 189.810546875 c 27
 454.19921875 94.9052734375 527.729492188 -41.0400390625 527.729492188 -41.0400390625 c 1049
EndSplineSet
EndChar

StartChar: J
Encoding: 74 74 186
Width: 558
InSpiro: 1
Flags: W
LayerCount: 2
Fore
SplineSet
199.240234375 -58.890625 m 17
 124.211914062 8.8798828125 113.740234375 133.391601562 113.740234375 269.4296875 c 11
 113.740234375 395.114257812 179.575195312 529.349609375 305.259765625 529.349609375 c 3
 381.354492188 529.349609375 373.357421875 466.080078125 324.0703125 365.189453125 c 10
 69.2802734375 -156.360351562 l 18
 55.525390625 -184.897460938 6.009765625 -300 -47 -300 c 3
 -69.23046875 -300 -84.6201171875 -279.48046875 -84.6201171875 -257.25 c 3
 -84.6201171875 -187.140625 -12.91796875 -138.598632812 53.8896484375 -81.1201171875 c 0
 243.700195312 82.1845703125 551.5 255.75 551.5 255.75 c 1049
EndSplineSet
EndChar

StartChar: L
Encoding: 76 76 187
Width: 791
Flags: W
LayerCount: 2
Fore
SplineSet
134.705078125 288.134765625 m 25
 134.705078125 288.134765625 186.859375 278.729492188 221.059570312 278.729492188 c 3
 395.479492188 278.729492188 626.330078125 392.4453125 626.330078125 493.334960938 c 3
 626.330078125 533.51953125 605.809570312 547.200195312 579.3046875 547.200195312 c 3
 497.224609375 547.200195312 426.390625 403.63671875 383.509765625 317.205078125 c 10
 328.790039062 206.91015625 l 18
 275.51171875 99.521484375 180.875 0 74 0 c 0
 74 0 -0.384765625 1.7099609375 -0.384765625 33.3447265625 c 27
 -0.384765625 64.9794921875 38.9443359375 72.6748046875 70.580078125 72.6748046875 c 3
 216.78515625 72.6748046875 272.359375 -107.73046875 561.349609375 -107.73046875 c 3
 656.383789062 -107.73046875 769.548828125 -51.5625 790.490234375 -35.0546875 c 1033
EndSplineSet
EndChar

StartChar: N
Encoding: 78 78 188
Width: 713
Flags: W
LayerCount: 2
Fore
SplineSet
97.314453125 531.810546875 m 25
 97.314453125 531.810546875 134.934570312 545.490234375 159.729492188 545.490234375 c 3
 276.009765625 545.490234375 257.322265625 424.533203125 228.984375 365.940429688 c 10
 52 0 l 25
 172.5546875 236.834960938 l 2
 208.172851562 306.80859375 316.1796875 444.600585938 415.375 444.600585938 c 3
 438.459960938 444.600585938 454.705078125 426.645507812 454.705078125 403.560546875 c 3
 454.705078125 377.91015625 438.548828125 330.459960938 424.779296875 303.525390625 c 2
 327.309570312 112.860351562 l 18
 282.197265625 24.615234375 298.240234375 0.85546875 358.944335938 0.85546875 c 3
 472.66015625 0.85546875 678.71484375 198.360351562 713.76953125 265.905273438 c 1033
EndSplineSet
EndChar

StartChar: T
Encoding: 84 84 189
Width: 617
Flags: W
LayerCount: 2
Fore
SplineSet
348.620117188 556 m 25
 349 541 308.620117188 478.540039062 308.620117188 478.540039062 c 1041
308.620117188 478.540039062 m 17
 338.620117188 525 401 548.91015625 501.850585938 548.91015625 c 3
 641 548.91015625 654.895507812 501.030273438 754.930664062 501.030273438 c 27
 844.705078125 501.030273438 915.669921875 530.955078125 915.669921875 567.719726562 c 3
 915.669921875 589.094726562 884.180664062 612.1796875 844.850585938 612.1796875 c 3
 739.684570312 612.180664062 596.448242188 451.330078125 528.5 288.990234375 c 0
 468.877929688 146.543945312 424.646484375 0 272 0 c 3
 125.794921875 0 46.2802734375 129.959960938 46.2802734375 266.759765625 c 1
 154.152906837 168.326555569 274.848632812 135.815429688 456.48046875 126.467773438 c 1029
EndSplineSet
EndChar

StartChar: R
Encoding: 82 82 190
Width: 755
Flags: W
LayerCount: 2
Fore
SplineSet
54.9296875 283.004882812 m 17
 164.772460938 340.776367188 269.982421875 395.590820312 357.599609375 547.200195312 c 1
 84 0 l 17
 154.161132812 145.350585938 l 2
 318.1875 485.154296875 374.69921875 547.200195312 502.94921875 547.200195312 c 3
 605.549804688 547.200195312 639.75 478.799804688 639.75 427.5 c 3
 639.75 324.772460938 485.368164062 282.150390625 422.580078125 282.150390625 c 3
 348.450195312 282.150390625 280.649414062 305.235351562 258.419921875 331.740234375 c 1
 286.634765625 298.395507812 302.330078125 273.564453125 306.299804688 212.040039062 c 10
 313.139648438 106.020507812 l 18
 316.978515625 46.5205078125 343.559570312 0.85546875 396.9296875 0.85546875 c 3
 531.255859375 0.85546875 698.876953125 191.89453125 754.319335938 266.760742188 c 1033
EndSplineSet
EndChar

StartChar: K
Encoding: 75 75 191
Width: 748
Flags: W
LayerCount: 2
Fore
SplineSet
659.4296875 551.474609375 m 17
 473.040039062 551.498046875 463.634765625 271.889648438 314.865234375 271.889648438 c 3
 284.939453125 271.889648438 238.76953125 286.424804688 238.76953125 286.424804688 c 17
 365.45703125 213.477539062 250.979492188 2.564453125 385.830078125 2.564453125 c 3
 562.252141525 2.564453125 733.112968669 249.39530891 747.495117188 268.469726562 c 1037
137.024414062 538.649414062 m 25
 137.024414062 538.649414062 179.774414062 549.764648438 207.990234375 549.764648438 c 27
 255.014648438 549.764648438 293.490234375 513 293.490234375 465.974609375 c 3
 293.490234375 423.482421875 266.348632812 361.665039062 241.334960938 310.365234375 c 10
 90 0 l 1025
EndSplineSet
EndChar

StartChar: Q
Encoding: 81 81 192
Width: 535
Flags: W
LayerCount: 2
Fore
SplineSet
90.125 35.91015625 m 17
 43.955078125 78.66015625 34.55078125 148.76953125 34.55078125 195.794921875 c 3
 34.55078125 378.764648438 167.075195312 542.0703125 350.045898438 542.0703125 c 27
 452.645507812 542.0703125 526.17578125 449.73046875 526.17578125 347.129882812 c 27
 526.17578125 160.740234375 383.390625 0 197 0 c 3
 137.150390625 0 66.185546875 35.0546875 66.185546875 79.5146484375 c 3
 66.185546875 104.309570312 92.6904296875 115.424804688 117.485351562 115.424804688 c 3
 218.375 115.424804688 309.005859375 -62.4150390625 459.485351562 -62.4150390625 c 27
 489.41015625 -62.4150390625 534.725585938 -51.2998046875 534.725585938 -51.2998046875 c 1049
EndSplineSet
EndChar

StartChar: M
Encoding: 77 77 193
Width: 924
Flags: W
LayerCount: 2
Fore
SplineSet
124.314453125 531.810546875 m 25
 124.314453125 531.810546875 161.934570312 545.490234375 186.729492188 545.490234375 c 3
 303.009765625 545.490234375 284.322265625 424.533203125 255.984375 365.940429688 c 10
 79 0 l 25
 199.5546875 236.834960938 l 18
 235.172851562 306.807617188 377.39453125 457.42578125 449.21484375 457.42578125 c 3
 473.154296875 457.42578125 495.384765625 442.03515625 495.384765625 418.095703125 c 19
 495.384765625 374.64453125 469.071289062 324.231445312 440.665039062 272.745117188 c 10
 290.184570312 0 l 25
 413.3046875 227.430664062 l 18
 448.6875 292.7890625 561.219726562 399.28515625 624.489257812 399.28515625 c 3
 647.57421875 399.28515625 663.819335938 381.330078125 663.819335938 358.245117188 c 3
 663.819335938 332.595703125 637.012695312 288.381835938 621.069335938 258.209960938 c 10
 541.5546875 107.73046875 l 18
 499.426757812 28.0048828125 508.209960938 -4.2744140625 568.915039062 -4.2744140625 c 3
 682.629882812 -4.2744140625 888.684570312 193.23046875 923.739257812 260.775390625 c 1033
EndSplineSet
EndChar

StartChar: P
Encoding: 80 80 194
Width: 636
Flags: W
LayerCount: 2
Fore
SplineSet
37.25 282.149414062 m 17
 147.092773438 339.920898438 257.432617188 395.58984375 345.049804688 547.200195312 c 9
 80 0 l 17
 150.162109375 145.349609375 l 2
 314.188476562 485.154296875 370.700195312 547.200195312 498.950195312 547.200195312 c 0
 601.549804688 547.200195312 635.75 478.799804688 635.75 427.5 c 0
 635.75 273.599609375 488.690429688 212.040039062 383.525390625 212.040039062 c 0
 335.64453125 212.040039062 252.709960938 235.979492188 213.379882812 262.484375 c 1033
EndSplineSet
EndChar

StartChar: S
Encoding: 83 83 195
Width: 689
Flags: W
LayerCount: 2
Fore
SplineSet
0 0 m 1
 342.854492188 102.600585938 688.274414062 408.690429688 688.274414062 503.594726562 c 3
 688.274414062 540.360351562 666.899414062 550.620117188 645.524414062 550.620117188 c 3
 576.26953125 550.620117188 532.665039062 484.78515625 532.665039062 415.530273438 c 3
 532.665039062 346.115234375 530.099609375 233.415039062 530.099609375 233.415039062 c 2
 527.534179688 77.8056640625 432.220703125 2.5654296875 327.46484375 2.5654296875 c 3
 180.716796875 2.5654296875 61.5595703125 153.044921875 61.5595703125 265.905273438 c 1
 95.759765625 169.290039062 248.8046875 165.870117188 294.120117188 165.870117188 c 1033
EndSplineSet
EndChar

StartChar: U
Encoding: 85 85 196
Width: 756
Flags: W
LayerCount: 2
Fore
SplineSet
144.07421875 536.939453125 m 17
 153.280273438 540.634765625 185.061523438 546.666992188 209.909179688 546.344726562 c 0
 264.736328125 546.344726562 293.69921875 518.990234375 293.69921875 455.71484375 c 3
 293.69921875 418.951171875 276.359375 378.9140625 259.5 347.129882812 c 10
 155.189453125 150.479492188 l 18
 106.688476562 59.0419921875 108.560546875 0 174 0 c 3
 264.799804688 0 401.880859375 160.161132812 429.64453125 212.040039062 c 10
 611.759765625 552.330078125 l 25
 403.995117188 159.029296875 l 18
 365.791992188 86.7109375 317.358398438 0.8544921875 400.57421875 0.8544921875 c 3
 573.284179688 0.8544921875 756.254882812 265.904296875 756.254882812 265.904296875 c 1049
EndSplineSet
EndChar

StartChar: V
Encoding: 86 86 197
Width: 625
Flags: W
LayerCount: 2
Fore
SplineSet
158.020507812 536.084960938 m 17
 174.055664062 542.514648438 200.638671875 546.465820312 223.85546875 545.490234375 c 8
 271.735351562 545.490234375 311.065429688 507.015625 311.065429688 459.134765625 c 19
 311.065429688 404.346679688 282.547851562 351.201171875 270.025390625 325.754882812 c 10
 189.655273438 162.450195312 l 18
 167.3515625 117.130859375 132.333984375 0 223 0 c 3
 286.552734375 0 343.638671875 73.9072265625 398.275390625 190.665039062 c 10
 460.690429688 324.044921875 l 18
 535.48828125 483.888671875 625.6796875 545.490234375 683.844726562 545.490234375 c 3
 701.471679688 545.490234375 711.205078125 542.0703125 729.16015625 540.360351562 c 1048
EndSplineSet
EndChar

StartChar: W
Encoding: 87 87 198
Width: 861
Flags: W
LayerCount: 2
Fore
SplineSet
225.389648438 534.375 m 17
 241.424804688 540.805664062 256.017578125 545.490234375 279.254882812 545.490234375 c 0
 327.134765625 545.490234375 373.3046875 537.794921875 373.3046875 489.915039062 c 19
 373.3046875 435.126953125 322.811523438 350.028320312 308.32421875 325.754882812 c 2
 210.854492188 162.450195312 l 18
 180.344726562 111.333007812 151.859375 0 210 0 c 3
 273.551757812 0 388.397460938 138.064453125 419.474609375 182.115234375 c 10
 507.5390625 306.9453125 l 18
 561.423828125 383.325195312 640.064453125 545.490234375 640.064453125 545.490234375 c 9
 501.5546875 237.690429688 l 18
 470.831054688 169.415039062 408.359375 1.7099609375 496.424804688 1.7099609375 c 3
 603.299804688 1.7099609375 691.364257812 194.084960938 691.364257812 194.084960938 c 26
 758.0546875 341.145507812 l 18
 787.502929688 406.083007812 871.76953125 545.490234375 959.834960938 545.490234375 c 0
 974.8359375 545.490234375 984.328125 542.935546875 1003.43945312 539.504882812 c 1033
EndSplineSet
EndChar

StartChar: X
Encoding: 88 88 199
Width: 687
Flags: W
LayerCount: 2
Fore
SplineSet
204.189453125 535.229492188 m 17
 217.169921875 542.245117188 249.610351562 549.428710938 277.719726562 548.91015625 c 8
 327.309570312 548.91015625 360.654296875 502.739257812 360.654296875 453.149414062 c 27
 360.654296875 309.509765625 261.474609375 242.819335938 261.474609375 99.1796875 c 27
 261.474609375 48.734375 298.240234375 2.564453125 348.684570312 2.564453125 c 3
 447.865234375 2.564453125 545.495117188 68.7353515625 693 264.48046875 c 1033
563.290039062 548.91015625 m 17
 384.712926359 358.101913065 222.962799432 183.482637159 52 0 c 1033
EndSplineSet
EndChar

StartChar: Z
Encoding: 90 90 200
Width: 681
Flags: W
LayerCount: 2
Fore
SplineSet
261.075195312 536.940429688 m 1
 280.401367188 544.014648438 314.2890625 546.419921875 340.58984375 546.344726562 c 8
 414.120117188 546.344726562 463.709960938 497.610351562 463.709960938 424.080078125 c 3
 463.709960938 211.185546875 120 0 120 0 c 17
 143.108398438 19.73046875 178.139648438 34.2001953125 220.889648438 34.2001953125 c 3
 246.540039062 34.2001953125 258.509765625 6.83984375 258.509765625 -18.8095703125 c 3
 258.509765625 -91.9453125 105.46484375 -282.149414062 41.33984375 -282.149414062 c 3
 25.9501953125 -282.149414062 13.9794921875 -254.790039062 13.9794921875 -254.790039062 c 3
 13.9794921875 -176.129882812 235.884765625 -22.353515625 364.529296875 70.1103515625 c 10
 473.969726562 148.770507812 l 18
 524.415039062 185.02734375 611.678710938 236.23828125 680.879882812 270.180664062 c 1033
EndSplineSet
EndChar

StartChar: bracketleft
Encoding: 91 91 201
Width: 459
Flags: W
LayerCount: 2
Fore
SplineSet
459 540.953430176 m 25
 324 540.953430176 l 25
 68.9514268548 0 l 25
 207 0 l 1049
EndSplineSet
EndChar

StartChar: bracketright
Encoding: 93 93 202
Width: 459
Flags: W
LayerCount: 2
Fore
SplineSet
323.05078125 540.953125 m 29
 458.05078125 540.953125 l 29
 217.40625 0 l 29
 79.3583984375 0 l 1053
EndSplineSet
EndChar

StartChar: backslash
Encoding: 92 92 203
Width: 278
Flags: W
LayerCount: 2
Fore
SplineSet
90 540.953430176 m 25
 278 0 l 1049
EndSplineSet
EndChar

StartChar: asciicircum
Encoding: 94 94 204
Width: 458
Flags: W
LayerCount: 2
Fore
SplineSet
192.922851562 410 m 29
 382.420898438 540.953125 l 5
 451.356445312 410 l 1053
EndSplineSet
EndChar

StartChar: grave
Encoding: 96 96 205
Width: 354
Flags: W
LayerCount: 2
Fore
SplineSet
251 502 m 1
 324 325 l 1049
EndSplineSet
EndChar

StartChar: bar
Encoding: 124 124 206
Width: 289
Flags: W
LayerCount: 2
Fore
SplineSet
289 540.953125 m 25
 38.6142578125 0 l 1049
EndSplineSet
EndChar

StartChar: less
Encoding: 60 60 207
Width: 313
Flags: W
LayerCount: 2
Fore
SplineSet
312.534179688 331 m 29
 76 171.16015625 l 29
 163.186523438 0 l 1053
EndSplineSet
EndChar

StartChar: greater
Encoding: 62 62 208
Width: 313
Flags: W
LayerCount: 2
Fore
SplineSet
236.0078125 331 m 29
 312.702148438 171.16015625 l 29
 54.35546875 0 l 1053
EndSplineSet
EndChar

StartChar: question
Encoding: 63 63 209
Width: 357
VWidth: 0
Flags: W
HStem: -12 36<14.0058 49.9942>
VStem: 14 36<-11.9942 23.9942>
LayerCount: 2
Fore
SplineSet
14 6 m 0
 14 16 22 24 32 24 c 0
 42 24 50 16 50 6 c 0
 50 -4 42 -12 32 -12 c 0
 22 -12 14 -4 14 6 c 0
126.102539062 440 m 4
 140.091768807 470 248 504 301.946289062 504 c 7
 346.916015625 504 384.5703125 471.02734375 354.248046875 406 c 0
 317.875976562 328 229.954101562 296 156.954101562 296 c 1
 81.744140625 139 l 1025
EndSplineSet
EndChar

StartChar: at
Encoding: 64 64 210
Width: 480
VWidth: -303
Flags: W
LayerCount: 2
Fore
SplineSet
361 219 m 0
 361 219 344.881835938 230.071289062 316.4140625 230.071289062 c 0
 285.853515625 230.071289062 241.061523438 217.3125 186.69921875 164.400390625 c 0
 141.7578125 120.65625 127.46484375 92.1728515625 127.46484375 74.17578125 c 0
 127.46484375 53.1201171875 147.02734375 46.4150390625 159.958984375 46.4150390625 c 0
 161.798828125 46.4150390625 163.50390625 46.55078125 165 46.7998046875 c 0
 186 50.2998046875 263.69921875 84.6005859375 306.399414062 139.200195312 c 0
 349.099609375 193.799804688 360.299804688 218.299804688 360.299804688 218.299804688 c 1
 360.299804688 218.299804688 357.5 212 351.899414062 203.600585938 c 0
 349.799804688 200.100585938 347 195.900390625 344.19921875 191.700195312 c 0
 330.899414062 171.400390625 313.399414062 146.200195312 309.899414062 140.600585938 c 0
 305.879882812 134.34765625 283.053710938 95.896484375 283.053710938 70.513671875 c 0
 283.053710938 57.47265625 289.080078125 47.880859375 306.780273438 47.880859375 c 0
 344.168945312 47.880859375 369.334960938 73.919921875 390.256835938 91.3583984375 c 0
 486 171.16015625 551 354 362 354 c 3
 267 354 117.480167879 244.373739481 60 119 c 0
 5.44200399587 0 31 -88 128 -88 c 3
 269 -88 365.351479881 -3.61384811959 480 76.6639099121 c 1024
EndSplineSet
EndChar

StartChar: exclam
Encoding: 33 33 211
Width: 276
VWidth: 0
Flags: W
HStem: -12 36<14.0058 49.9942>
VStem: 14 36<-11.9942 23.9942>
LayerCount: 2
Fore
SplineSet
14 6 m 0
 14 16 22 24 32 24 c 0
 42 24 50 16 50 6 c 0
 50 -4 42 -12 32 -12 c 0
 22 -12 14 -4 14 6 c 0
262.33203125 522 m 1
 81.744140625 139 l 1025
EndSplineSet
EndChar

StartChar: quotedbl
Encoding: 34 34 212
Width: 363
Flags: W
LayerCount: 2
Fore
SplineSet
363 540.953125 m 29
 298.205078125 402 l 1053
270 540.953430176 m 29
 205.204951382 402 l 1053
EndSplineSet
EndChar

StartChar: quotesingle
Encoding: 39 39 213
Width: 275
Flags: W
LayerCount: 2
Fore
SplineSet
270 540.953430176 m 25
 205.204951382 402 l 1049
EndSplineSet
EndChar

StartChar: mu
Encoding: 181 181 214
Width: 369
Flags: W
LayerCount: 2
Fore
SplineSet
127 264.48046875 m 17
 105 216 l 2
 76 142 4 0 87 0 c 7
 190 0 304.216031269 113.338963575 329 171.16015625 c 2
 369 264.48046875 l 1
 161.185546875 -291 l 1049
EndSplineSet
EndChar

StartChar: numbersign
Encoding: 35 35 215
Width: 471
Flags: W
LayerCount: 2
Fore
SplineSet
79.7041015625 212 m 25
 388.704101562 212 l 1049
153 368 m 25
 462 368 l 1049
470.205078125 540.953125 m 25
 217 0 l 1049
310.205058378 540.953430176 m 25
 57 0 l 1049
EndSplineSet
EndChar

StartChar: ampersand
Encoding: 38 38 216
Width: 284
Flags: W
LayerCount: 2
Fore
SplineSet
289 412 m 25
 43.72265625 -114 l 1049
285.140625 231 m 0
 269.290039062 249.094726562 242 269.48046875 209 269.48046875 c 0
 165.998046875 269.48046875 113 251 113 208 c 27
 113 170 223 142 223 142 c 25
 223 142 89.0400390625 161 55 88 c 0
 29.8193359375 34 69 0 99 0 c 3
 152 0 208 12 247 46 c 1033
EndSplineSet
EndChar

StartChar: plus
Encoding: 43 43 217
Width: 396
Flags: W
LayerCount: 2
Fore
SplineSet
304 430 m 25
 163.174804688 128 l 1049
118 294.48046875 m 0
 396 294.48046875 l 1024
EndSplineSet
EndChar

StartChar: percent
Encoding: 37 37 218
Width: 631
Flags: W
LayerCount: 2
Fore
SplineSet
349.013671875 540.953125 m 3
 322.558992886 540.953125 244.266203573 511.695581297 221.092773438 462 c 0
 201.041544137 419 237.986328125 382 268.986328125 382 c 3
 326.986328125 382 379.677297551 431 405.32421875 486 c 0
 415.623497145 508.086873794 409.013671875 540.953125 385.013671875 540.953125 c 3
 357.013671875 540.953125 321.489706629 522.811507549 304.32421875 486 c 0
 286.138220082 447 322.86328125 421 383.86328125 421 c 3
 480.86328125 421 633 530 633 530 c 1
 97 0 l 1
 417.12109375 166.5 l 0
 417.12109375 166.5 357.369517034 125.894072944 340.631835938 90 c 0
 320.580606637 47 346.262695312 0 389.262695312 0 c 3
 446.262695312 0 486.172905827 41 513.21875 99 c 0
 531.243796102 137.654836107 495.737304688 178.5 453.737304688 178.5 c 3
 423.1015625 178.5 389.232421875 135 378.740234375 112.5 c 0
 367.315429688 88 403.504882812 75.75 420.369140625 75.75 c 3
 526.003953464 75.75 496 171.16015625 632 171.16015625 c 1024
EndSplineSet
EndChar

StartChar: asterisk
Encoding: 42 42 219
Width: 422
Flags: W
LayerCount: 2
Fore
SplineSet
345.392578125 521 m 25
 238.607421875 292 l 1049
422.224609375 477.75 m 29
 160.376953125 332.25 l 1049
228.224609375 477.75 m 25
 354.376953125 332.25 l 1049
EndSplineSet
EndChar

StartChar: parenleft
Encoding: 40 40 220
Width: 474
Flags: W
LayerCount: 2
Fore
SplineSet
474.125 540.953125 m 3
 405.698242188 540.953125 229.060546875 410 172.170898438 288 c 24
 110.618164062 156 147 60 215.875 0 c 1028
EndSplineSet
EndChar

StartChar: parenright
Encoding: 41 41 221
Width: 474
Flags: W
LayerCount: 2
Fore
SplineSet
290.125 540.953125 m 3
 358.552734375 540.953125 413.060546875 410 356.170898438 288 c 24
 294.619140625 156 131 33 43.875 0 c 1028
EndSplineSet
EndChar

StartChar: asciitilde
Encoding: 126 126 222
Width: 395
Flags: W
LayerCount: 2
Fore
SplineSet
100.092773438 217 m 0
 116.87109375 249.436523438 153.875 273.418945312 188.041992188 273.418945312 c 4
 215 273.418945312 233.689453125 252.615234375 244.5390625 235.475585938 c 0
 255.833007812 217.633789062 274 194.49609375 302.958984375 194.49609375 c 0
 339.4609375 194.49609375 384.539985303 223.516408405 395.008789062 264 c 1028
EndSplineSet
EndChar

StartChar: braceleft
Encoding: 123 123 223
Width: 546
Flags: W
LayerCount: 2
Fore
SplineSet
545.82421875 540.953125 m 4
 468.82421875 540.953125 l 4
 381.82421875 540.953125 367.237304688 381 281.595703125 311 c 28
 201.28515625 246 153.869140625 230.095703125 79.958984375 226 c 5
 150.515625 222.904296875 182.6328125 206 202.323242188 141 c 28
 222.681640625 71 88.0947265625 -88.953125 175.094726562 -88.953125 c 4
 252.094726562 -88.953125 l 1028
EndSplineSet
EndChar

StartChar: braceright
Encoding: 125 125 224
Width: 546
Flags: W
LayerCount: 2
Fore
SplineSet
373.865234375 540.953125 m 4
 450.865234375 540.953125 l 4
 537.865234375 540.953125 403.27734375 381 423.635742188 311 c 28
 443.326171875 246 475.91015625 230.095703125 546 226 c 5
 472.556640625 222.904296875 424.673828125 206 344.364257812 141 c 28
 258.72265625 71 244.134765625 -88.953125 157.134765625 -88.953125 c 4
 80.134765625 -88.953125 l 1028
EndSplineSet
EndChar

StartChar: cyr_te.high
Encoding: 65601 -1 225
Width: 676
VWidth: -303
Flags: W
LayerCount: 2
Fore
SplineSet
0 171 m 0
 113 171 117 261 187 261 c 0
 205 261 213 250 213 232 c 0
 213 177.960751218 96.1096815822 17.4424022603 79 -7 c 1
 114.226671669 43.7249276088 244.828853895 260 369 260 c 0
 389 260 403 251 403 231 c 0
 403 184.074263754 291.758763226 19.1719461685 274 -9 c 1
 274 -10 l 0
 274 -10 l 1
 274.226993909 -10 434.766843637 263 578 263 c 0
 594 263 599 253 599 244 c 0
 599 183.870518457 496 108.996050335 496 29 c 0
 496 10 504 0 524 -0 c 0
 539 0 602 25 676 77 c 1024
EndSplineSet
EndChar

StartChar: cyr_te.low
Encoding: 65602 -1 226
Width: 770
VWidth: -303
Flags: W
LayerCount: 2
Fore
SplineSet
0 76.6640625 m 4
 145 178 158.1796875 260.584960938 251.556640625 260.584960938 c 0
 273.919921875 260.584960938 284.202148438 245.092773438 284.202148438 224.008789062 c 0
 284.202148438 188 197 54 151 -12 c 1
 197 54 306.753185728 254.586913753 439.125113337 254.586913753 c 0
 459.944759215 254.586913753 475.8433449 244.706635872 475.8433449 225.118544908 c 0
 475.8433449 189.594723048 360.784608915 8.66233851941 346 -14 c 0
 345.762483442 -14.3640732521 345.643340625 -14.5398847704 345.634893365 -14.5398847704 c 0
 345.634570629 -14.5398847704 345.634146953 -14.5395558073 345.634409475 -14.5391155696 c 0
 436 137 535.698657182 257.880903744 648.660282599 257.880903744 c 0
 665.706440697 257.880903744 671 246.947909503 671 238 c 0
 671 217.885867602 571.887469603 78.3751259948 571.887469603 16.1428103218 c 0
 571.887469603 3.19990355474 576.76593934 -5 589 -5 c 0
 633.02734375 -5 688.084960938 20.642578125 770 78 c 1024
EndSplineSet
EndChar

StartChar: cyr_ghe.high
Encoding: 65603 -1 227
Width: 346
VWidth: -303
Flags: W
LayerCount: 2
Fore
SplineSet
0 171.16015625 m 0
 75 171.16015625 101.998412293 265 187 265 c 3
 267.001686937 265 123.201171875 90 123.201171875 37.837890625 c 0
 123.201171875 5 143 -2.767578125 176.341796875 -2.767578125 c 0
 212.241210938 -2.767578125 300.094726562 44.8564453125 346 77 c 1024
EndSplineSet
EndChar

StartChar: cyr_ghe.low
Encoding: 65604 -1 228
Width: 434
VWidth: -303
Flags: W
LayerCount: 2
Fore
SplineSet
0 76.6640625 m 16
 123.143554688 162.889648438 173.998046875 265 265 265 c 3
 345.001953125 265 211.201171875 90 211.201171875 37.837890625 c 0
 211.201171875 5 231 -2.767578125 264.341796875 -2.767578125 c 0
 300.241210938 -2.767578125 388.094726562 44.8564453125 434 77 c 1024
EndSplineSet
EndChar

StartChar: cyr_a.high
Encoding: 65605 -1 229
Width: 443
VWidth: -303
Flags: W
LayerCount: 2
Fore
SplineSet
-12 171 m 0
 -12 171 -10 171 -5 171 c 0
 -3 171 0 171 4 171 c 0
 28 173 63 175 173 235 c 1
 173 235 226 265 274 257 c 0
 291 254 307 250 327 238 c 1
 327 238 312 249 286 255 c 0
 268 259 245 261 218 253 c 0
 206 250 194 245 180 238 c 0
 144 219 101 187 54 132 c 1
 54 132 4 71 9 29 c 0
 14 -13 61 -27 132 29 c 0
 203 85 305 190 328 236 c 1
 328 236 321 225 309 209 c 0
 288 181 257 139 246 126 c 0
 230 105 189 -19 263 -8 c 0
 336 3 402.099738429 48.361328533 443 77 c 1028
EndSplineSet
EndChar

StartChar: cyr_a.low
Encoding: 65606 -1 230
Width: 515
VWidth: -303
Flags: W
LayerCount: 2
Fore
SplineSet
0 76.6640625 m 0
 61.5443494691 119.758202478 203 256.787710772 317.614984869 256.787710772 c 0
 339.485092432 256.787710772 358.460073923 251.38573715 373 241 c 1
 373 241 353.808495178 256.079039503 316.292096999 256.079039503 c 0
 245 256.079039503 46.11121249 161 46.11121249 34.1744513851 c 0
 46.11121249 2.54375222893 63.4784918141 -7.31286453347 94.7395917963 -7.31286453347 c 0
 197.996183548 -7.31286453347 318.482121669 132.919260742 376 238 c 5
 336.54369211 166.002399518 262.31749706 79.7689097597 262.31749706 31.605833896 c 0
 262.31749706 8.13386272554 283.989119311 -4.67304476452 313.046239551 -4.67304476452 c 0
 370.326488624 -4.67304476452 460.591112043 38.9026078984 515 77 c 1024
EndSplineSet
EndChar

StartChar: cyr_ve.high
Encoding: 65607 -1 231
Width: 392
VWidth: -303
Flags: W
LayerCount: 2
Fore
SplineSet
-9 170 m 4
 -9 170 74 163 188 277 c 0
 302 391 351 457 362 482 c 0
 373 507 358 520 349 530 c 0
 340 540 294 550 269 507 c 2
 244 464 l 1
 244 464 151 251 85 158 c 0
 19 65 26 -19 77 -11 c 0
 128 -3 176 53 215 111 c 0
 254 169 279 224 275 264 c 1
 275 264 298 170 393 170 c 1024
EndSplineSet
EndChar

StartChar: cyr_ve.low
Encoding: 65608 -1 232
Width: 486
VWidth: -303
Flags: W
LayerCount: 2
Fore
SplineSet
0 76.6640625 m 4
 81.3745640797 133.643145687 434.035438417 384 434.035438417 498.631818123 c 4
 434.035438417 525.472296982 421.742550686 542.321332512 402.923386846 542.321332512 c 0
 320.2798368 542.321332512 116.904858236 107.131378667 116.904858236 39.6408515636 c 0
 116.904858236 17.5778888603 126.570849239 -11.3178227632 152.164196442 -11.3178227632 c 0
 203.028167965 -11.3178227632 319.197425958 79.6357456062 360 255 c 1
 360 255 390.469726562 171 486.048828125 171 c 1024
EndSplineSet
EndChar

StartChar: cyr_de.high
Encoding: 65609 -1 233
Width: 509
VWidth: -303
Flags: W
LayerCount: 2
Fore
SplineSet
0 171.16015625 m 0
 124.883789062 171.16015625 229.845703125 256.120117188 324.358398438 256.120117188 c 0
 340.12109375 256.120117188 362.431640625 251.729492188 375 246 c 1
 359.137695312 252.970703125 342.065429688 256.120117188 324.358398438 256.120117188 c 0
 204.749023438 256.120117188 56.2001953125 112.421875 56.2001953125 32.3671875 c 0
 56.2001953125 16.8157307701 61.4620609971 -9.255859375 96.3564453125 -9.255859375 c 0
 113.790843031 -9.255859375 261.013633205 6.99757626686 378 243 c 0
 380.04841199 247.132363519 379.828125 249.497070312 380.036132812 249.497070312 c 0
 380.078125 249.497070312 380.099609375 249.4140625 380.099609375 249.250976562 c 0
 380.099609375 239.445195703 186.658298085 -137.680391141 170 -165 c 0
 147.8515625 -201.32421875 111.57421875 -291.806640625 60.47265625 -291.806640625 c 0
 53.2735644406 -291.806640625 16.4794921875 -289.067382812 16.4794921875 -265.389648438 c 4
 16.4794921875 -138.26953125 307.8984375 -63.8134765625 509 77 c 1024
EndSplineSet
EndChar

StartChar: cyr_de.low
Encoding: 65610 -1 234
Width: 516
VWidth: -303
Flags: W
LayerCount: 2
Fore
SplineSet
0 76.6640625 m 0
 119.375976562 160.251953125 225 247.821185299 346.345791259 247.821185299 c 0
 370.77590044 247.821185299 387.107564085 245 388 245 c 1
 388 245 373.440443213 247.692520776 350.210234728 247.692520776 c 0
 156.025275493 247.692520776 72.1193512044 80.1682621401 72.1193512044 28.4249548667 c 0
 72.1193512044 2.84366303282 85.8711743547 -13.0027261642 111.745090906 -13.0027261642 c 0
 164.567024134 -13.0027261642 298 48 393 243 c 1
 392.929307079 242.821963612 243.205253607 -60.1112782575 240 -66 c 0
 197.671344298 -143.766600011 137.900356696 -297.116638256 78.8109374145 -297.116638256 c 0
 66.5836701936 -297.116638256 31.978515625 -292.48046875 31.978515625 -260.366210938 c 0
 31.978515625 -135.061523438 337.301981538 -48.455777715 516 76.669921875 c 1028
EndSplineSet
EndChar

StartChar: cyr_ie.high
Encoding: 65611 -1 235
Width: 230
VWidth: -303
Flags: W
LayerCount: 2
Fore
SplineSet
-9 171 m 0
 69.8114785068 171 190.505859375 171.16015625 190.505859375 222.532226562 c 4
 190.505859375 238.044921875 182.297851562 252.84375 163 263 c 0
 156.939453125 266.189453125 151.056640625 267.624023438 145.376953125 267.624023438 c 0
 115.442382812 267.624023438 91.12890625 227.780273438 76 195 c 0
 58 156 22 88 16 56 c 1
 16 56 14.8388671875 50.2724609375 14.8388671875 42.2734375 c 0
 14.8388671875 23.7626953125 21.056640625 -6.912109375 62.2724609375 -6.912109375 c 0
 93.7783203125 -6.912109375 168.563596678 32.9817672737 230 76 c 1024
EndSplineSet
EndChar

StartChar: cyr_ie.low
Encoding: 65612 -1 236
Width: 279
VWidth: -303
Flags: W
LayerCount: 2
Fore
SplineSet
0 76.603515625 m 4
 135 171.16015625 225 190 225 232 c 0
 225 248 204.774414062 261 183 261 c 0
 144 261 80 223 62 138 c 1
 62 138 49 102 49 66 c 0
 49 31 61 -4 108 -4 c 0
 143 -4 185.166015625 11.296875 279 77 c 1024
EndSplineSet
EndChar

StartChar: cyr_short_i.high
Encoding: 65613 -1 237
Width: 496
VWidth: -303
Flags: W
LayerCount: 2
Fore
SplineSet
243.999023438 364 m 29
 391.999023438 364 l 1053
-10 171 m 0
 -10 171 10 170 26 173 c 0
 42 176 96 186 146 261 c 1
 146 261 8 35 61 8 c 0
 114 -19 159 15 196 43 c 0
 233 71 355 193 396 261 c 1
 396 261 363 214 355 200 c 2
 355 200 272 58 295 13 c 1
 315.171528492 -26.4186229882 406.58984375 14.39453125 496 77 c 1024
EndSplineSet
EndChar

StartChar: cyr_short_i.low
Encoding: 65614 -1 238
Width: 526
VWidth: -303
Flags: W
LayerCount: 2
Fore
SplineSet
263.999023438 364 m 25
 411.999023438 364 l 1049
-1 76 m 0
 78.15625 131.42578125 144.623046875 197.469726562 187 257 c 1
 187 257 89.880859375 98.6533203125 89.880859375 31.6953125 c 0
 89.880859375 2.798828125 117.677734375 -4.8671875 141.232421875 -4.8671875 c 0
 221 -4.8671875 372.125976562 160.330078125 438 253 c 1
 438 253 404 211 396 197 c 6
 396 197 331.971679688 87.4580078125 331.971679688 30.3076171875 c 0
 331.971679688 22.388671875 333.201171875 15.4765625 336 10 c 1
 336 10 339 -2.75 361.375 -2.75 c 0
 381.970703125 -2.75 462.647460938 31.939453125 527 77 c 1024
EndSplineSet
EndChar

StartChar: cyr_ef.high
Encoding: 65615 -1 239
Width: 580
VWidth: -303
Flags: W
LayerCount: 2
Fore
SplineSet
0 171.16015625 m 4
 113 171.16015625 173.612304688 259.48046875 236 259.48046875 c 3
 348.111328125 259.48046875 301 141 301 141 c 1
 325.713867188 194 312.458007812 259.775390625 236.65234375 259.775390625 c 0
 186.706054688 259.775390625 82.7138671875 187.131835938 82.7138671875 71.1962890625 c 0
 82.7138671875 33.318359375 108.622070312 -4.673828125 157.184570312 -4.673828125 c 0
 215.833984375 -4.673828125 259.1953125 50 294.206054688 125.081054688 c 1
 303.028320312 144 360 264.48046875 360 264.48046875 c 17
 360 264.48046875 205 -68 105.638671875 -281 c 1
 300 134 l 17
 335.439453125 210 383 259.775390625 445.65234375 259.775390625 c 0
 521.458007812 259.775390625 534.713867188 194 510 141 c 0
 476.696289062 62.9658203125 429.560546875 -4.673828125 366.184570312 -4.673828125 c 0
 284 -4.673828125 259.56640625 46 302 137 c 1
 282.881835938 96 247 -5 366 -5 c 3
 456.599609375 -5 517.990234375 33.244140625 580 76.6640625 c 1033
EndSplineSet
EndChar

StartChar: cyr_ef.low
Encoding: 65616 -1 240
Width: 616
VWidth: -303
Flags: W
LayerCount: 2
Fore
SplineSet
0 76.6640625 m 4
 103.319335938 149.008789062 209.612304688 259.48046875 272 259.48046875 c 3
 384.111328125 259.48046875 337 141 337 141 c 1
 361.713867188 194 348.458007812 259.775390625 272.65234375 259.775390625 c 0
 222.706054688 259.775390625 118.713867188 187.131835938 118.713867188 71.1962890625 c 0
 118.713867188 33.318359375 144.622070312 -4.673828125 193.184570312 -4.673828125 c 0
 251.833984375 -4.673828125 295.1953125 50 330.206054688 125.081054688 c 1
 339.028320312 144 396 264.48046875 396 264.48046875 c 17
 396 264.48046875 241 -68 141.638671875 -281 c 1
 336 134 l 17
 371.439453125 210 419 259.775390625 481.65234375 259.775390625 c 0
 557.458007812 259.775390625 570.713867188 194 546 141 c 0
 512.696289062 62.9658203125 465.560546875 -4.673828125 402.184570312 -4.673828125 c 0
 320 -4.673828125 295.56640625 46 338 137 c 1
 318.881835938 96 283 -5 402 -5 c 3
 492.599609375 -5 553.990234375 33.244140625 616 76.6640625 c 1033
EndSplineSet
EndChar

StartChar: cyr_ha.high
Encoding: 65617 -1 241
Width: 437
Flags: W
LayerCount: 2
Fore
SplineSet
0 171.16015625 m 1
 116.84765625 171.16015625 109 263.850495381 196.6953125 264.48046875 c 0
 259.092773438 264.928710937 270.254882812 236 225.489257812 140 c 0
 182.123046875 47 104.90234375 0 59.3017578125 0 c 0
 14.90234375 0 7.7021484375 20 0.501953125 37 c 1024
421 172 m 0
 434.36328125 210.826171875 432 264.48046875 376.494140625 264.48046875 c 0
 345 264.48046875 273.607421875 234.271484375 225.489257812 140 c 0
 179.6640625 50.2197265625 197.80859375 0 237 0 c 0
 326 0 377 34.65234375 437 76.6640625 c 1029
EndSplineSet
EndChar

StartChar: cyr_ha.low
Encoding: 65618 -1 242
Width: 524
Flags: W
LayerCount: 2
Fore
SplineSet
0 76.6640625 m 1
 90.2705552806 139.872185786 206 263.850585938 293.6953125 264.48046875 c 0
 356.092773438 264.928710938 367.254882812 236 322.489257812 140 c 0
 279.123046875 47 201.90234375 0 156.301757812 0 c 0
 111.90234375 0 104.702148438 20 97.501953125 37 c 1024
518 172 m 0
 531.36328125 210.826171875 529 264.48046875 473.494140625 264.48046875 c 0
 442 264.48046875 370.607421875 234.271484375 322.489257812 140 c 0
 276.6640625 50.2197265625 294.80859375 0 334 0 c 0
 406 0 464 34.65234375 524 76.6640625 c 1025
EndSplineSet
EndChar

StartChar: cyr_e.high
Encoding: 65619 -1 243
Width: 366
Flags: W
LayerCount: 2
Fore
SplineSet
0 171.16015625 m 1
 91 171.16015625 130.139647367 264.03045193 205.174804688 264.48046875 c 0
 279.9140625 264.928710938 302.153320312 236 277.784179688 140 c 0
 254.178710938 47 175.8828125 0 121.162109375 0 c 0
 67.8828125 0 53.1279296875 20 39.2900390625 37 c 1
 53.1279296875 20 68 0 121.162109375 0 c 3
 221.162109375 0 283.970114285 19.2259655759 366 76.6639099121 c 1024
136.809570312 138 m 25
 275.809570312 138 l 1049
EndSplineSet
EndChar

StartChar: cyr_e.low
Encoding: 65620 -1 244
Width: 456
Flags: W
LayerCount: 2
Fore
SplineSet
-1 76.6640625 m 1
 25.8759765625 95.4833984375 217.139648438 264.030273438 292.174804688 264.48046875 c 0
 366.9140625 264.928710938 389.153320312 236 364.784179688 140 c 0
 341.178710938 47 262.8828125 0 208.162109375 0 c 0
 162 0 140.127929688 20 126.290039062 37 c 1
 140.127929688 20 161.79180938 0 208.162109375 0 c 3
 309 0 372.913408148 18.486051973 456 76.6639099121 c 1032
223.809570312 138 m 25
 362.809570312 138 l 1049
EndSplineSet
EndChar

StartChar: cyr_yeru.high
Encoding: 65621 -1 245
Width: 463
Flags: W
LayerCount: 2
Fore
SplineSet
0 171.16015625 m 3
 53 171.16015625 81.400390625 206 133 264.48046875 c 9
 133 264.48046875 40.599609375 167 37.6044921875 94 c 24
 35.7998046875 48 53.7998046875 0 109 0 c 3
 187.796875 0 226.619140625 30 251.799804688 75 c 0
 269.901367188 107.348632812 232.599609375 171.16015625 165.400390625 171.16015625 c 0
 140 171.16015625 115.342773438 162.89453125 104.200195312 139 c 0
 93.4749058837 116.000317113 128 105.48046875 152.400390625 105.48046875 c 0
 290 105.48046875 436.869140625 236.3203125 450 264.48046875 c 9
 327.13671875 0 l 17
 378 20 422.795898438 48.5126953125 463 76.6640625 c 1033
EndSplineSet
EndChar

StartChar: cyr_yeru.low
Encoding: 65622 -1 246
Width: 540
Flags: W
LayerCount: 2
Fore
SplineSet
0 76.6640625 m 16
 90.115234375 139.763671875 158.670898438 206.625976562 210 264.48046875 c 5
 210 264.48046875 117.599609375 167 114.604492188 94 c 24
 112.799804688 48 130.799804688 0 186 0 c 3
 264.796875 0 303.619140625 30 328.799804688 75 c 0
 346.901367188 107.348632812 309.599609375 171.16015625 242.400390625 171.16015625 c 0
 217 171.16015625 192.342773438 162.89453125 181.200195312 139 c 0
 170.474609375 116 205 105.48046875 229.400390625 105.48046875 c 0
 367 105.48046875 513.869140625 236.3203125 527 264.48046875 c 9
 404.13671875 0 l 17
 455 20 499.795898438 48.5126953125 540 76.6640625 c 1033
EndSplineSet
EndChar

StartChar: A.alt
Encoding: 65623 -1 247
Width: 575
Flags: W
LayerCount: 2
Fore
SplineSet
0 0 m 1
 544 544 l 1
 340 -10 l 1
 313.677734375 160.616210938 206.162109375 222.64453125 148.801757812 222.64453125 c 0
 111.08203125 222.64453125 82.0771484375 195.821289062 82.0771484375 155.4140625 c 0
 82.0771484375 93.2470703125 244.1953125 30.1669921875 375.8046875 30.1669921875 c 0
 446 30.1669921875 512.629882812 32.9921875 575 76.6640625 c 1024
EndSplineSet
EndChar

StartChar: cyr_es.high
Encoding: 65624 -1 248
Width: 293
VWidth: -303
Flags: W
LayerCount: 2
Fore
SplineSet
-14 170 m 0
 -14 170 -13.0769230769 169.976331361 -11.4383249886 169.976331361 c 0
 -2.42603550296 169.976331361 28.2307692308 170.692307692 46 180 c 0
 65 190 84 206 112 224 c 1
 112 224 147.04384 254.371328 184.33048576 254.371328 c 0
 206.79808 254.371328 230.08 243.344 247 208 c 1
 247 208 227.493808109 253.947918676 181.632045146 253.947918676 c 0
 157.835847382 253.947918676 126.944099379 241.577639752 88 204 c 1
 88 204 25.2224648441 115.730980872 25.2224648441 53.0138942062 c 0
 25.2224648441 18.4558193981 44.2828463104 -8.34423211818 103.408733161 -8.34423211818 c 0
 141.417687615 -8.34423211818 220.087276538 25.9459614004 293 77 c 1028
EndSplineSet
EndChar

StartChar: cyr_es.low
Encoding: 65625 -1 249
Width: 346
VWidth: -303
Flags: W
LayerCount: 2
Fore
SplineSet
0 76 m 0
 20.8798828125 90.6201171875 94.908203125 142 102 158 c 0
 124.110351562 207.880859375 182 261 232 256 c 1
 232 256 278 250 290 209 c 1
 290 209 287 220 278 230 c 0
 274 234 269 239 263 243 c 0
 230 267 168 272 86 130 c 1
 69.1826171875 99 65.5146484375 60.18359375 71 34 c 0
 76.271484375 8.8359375 102 -6 133 -12 c 0
 161 -17 198 -27 346 76 c 1024
EndSplineSet
EndChar

StartChar: cyr_pe.high
Encoding: 65626 -1 250
Width: 532
VWidth: -303
Flags: W
LayerCount: 2
Fore
SplineSet
0 171 m 0
 93.46875 171 139 255 187 255 c 0
 203.240590817 255 207.711654303 244.29627007 207.711654303 232.509246656 c 0
 207.711654303 170.986035109 81.6210707314 20.887243902 60 -10 c 1
 78.5281802319 13.8863860241 248.883595623 254.985184797 372.183163682 254.985184797 c 0
 390.000197964 254.985184797 405.049770687 245.77227935 405.049770687 227.4892837 c 0
 405.049770687 200.094240808 332.878752099 98.3181281479 330 94 c 1
 330 94 l 0
 330 94 300.960733315 47.8011666372 300.960733315 17.2761083263 c 0
 300.960733315 -8.36985260521 320.05958635 -10.2743227544 342.610363332 -9.72711764397 c 0
 414.347980806 -7.98637093183 465.804323301 30.3133506785 532 76.6640625 c 1025
EndSplineSet
EndChar

StartChar: cyr_pe.low
Encoding: 65627 -1 251
Width: 560
VWidth: -303
Flags: W
LayerCount: 2
Fore
SplineSet
0 76.6640625 m 0
 58.52734375 117.64453125 192.616210938 256.319335938 236.713867188 256.319335938 c 0
 255.709960938 256.319335938 262.12890625 233.274414062 262.12890625 224.356445312 c 0
 262.12890625 171.16015625 125.778320312 3.9697265625 116 -10 c 1
 116 -10 184 78 209 116 c 1
 243.377929688 145.659179688 352.31640625 254.985351562 428.18359375 254.985351562 c 0
 446 254.985351562 461.049804688 245.772460938 461.049804688 227.489257812 c 0
 461.049804688 197 356.681640625 50 356.681640625 18.6376953125 c 0
 356.681640625 2.9140625 364.203125 -9 387 -9 c 1
 448.200195312 -9 522.883789062 50.67578125 560 76.6640625 c 1028
EndSplineSet
EndChar

StartChar: cyr_ze.high
Encoding: 65628 -1 252
Width: 295
VWidth: -303
Flags: W
LayerCount: 2
Fore
SplineSet
0 171.16015625 m 0
 84 171.16015625 157.201635673 259.215820312 207.286132812 259.215820312 c 0
 225.536132812 259.215820312 236.7890625 249.338867188 236.7890625 230.4921875 c 0
 236.7890625 190.401367188 194.171875 116.501953125 160 80 c 0
 116 33 108 28 108 28 c 5
 108 28 123 41 130 45 c 1
 131.544921875 43.8330078125 178.064453125 3.8349609375 168 -41 c 0
 149.525390625 -123.294921875 86.591796875 -291.202148438 -1.3330078125 -291.202148438 c 0
 -18.2978515625 -291.202148438 -33.5283203125 -283.501953125 -33.5283203125 -260.073242188 c 0
 -33.5283203125 -191.194335938 58.220703125 -100.829101562 107 -63 c 1
 107.923828125 -60.8974609375 243.598632812 41.0078125 295 77 c 1024
EndSplineSet
EndChar

StartChar: cyr_ze.low
Encoding: 65629 -1 253
Width: 366
VWidth: -303
Flags: W
LayerCount: 2
Fore
SplineSet
-1 75.6640625 m 4
 48.9931640625 110.668945312 251 284.256835938 294 256 c 0
 329 233 273 128 229 81 c 0
 185 34 190 36 190 36 c 1
 190 36 192 41 199 45 c 1
 199 45 248 8 237 -41 c 0
 226 -90 191 -176 166 -214 c 0
 141 -252 128 -263 108 -278 c 0
 88 -293 26 -305 38 -245 c 0
 50 -185 128 -100 177 -62 c 0
 178.391601562 -60.3662109375 313.90234375 40.5205078125 366 77 c 1024
EndSplineSet
EndChar

StartChar: cyr_u.high
Encoding: 65630 -1 254
Width: 463
VWidth: -303
Flags: W
LayerCount: 2
Fore
SplineSet
0 171 m 0
 0.931012419357 170.972621752 1.85352643374 170.957039089 2.76774419943 170.959098995 c 4
 92 171.16015625 94.2917596956 260.593944527 171.472238198 260.593944527 c 0
 192.179874611 260.593944527 203.322901378 248.624413713 203.322901378 228.236790605 c 0
 203.322901378 173.462952007 113.617441938 100.410380173 113.617441938 35.7472167089 c 0
 113.617441938 12.6012444128 124.283270202 -8.99424182715 149.981873198 -8.99424182715 c 0
 271.692716022 -8.99424182715 413.096057196 224.137311532 432 261 c 5
 384.925103285 179.773378956 203.743332207 -285.583361757 80.8236953398 -285.583361757 c 4
 64.5199062713 -285.583361757 50.5850700082 -276.250876052 50.5850700082 -252.328684889 c 0
 50.5850700082 -132 236.901071376 -84.8709343116 463 77 c 1024
EndSplineSet
EndChar

StartChar: cyr_u.low
Encoding: 65631 -1 255
Width: 516
VWidth: -303
Flags: W
LayerCount: 2
Fore
SplineSet
0 76.6640625 m 0
 121.193544953 161.524696258 152.79296875 254 205 254 c 0
 234 254 255 240 255 219 c 0
 255 171.072265625 166.6171875 93.3466796875 166.6171875 31.9541015625 c 0
 166.6171875 9.072265625 177.198242188 -12.201171875 202.674804688 -12.201171875 c 0
 324.062574854 -12.201171875 466.160820383 220.263599747 485 257 c 1
 440.706389629 177.026763423 255.375664107 -289.583007812 132.823242188 -289.583007812 c 4
 116.51953125 -289.583007812 102.584960938 -280.250976562 102.584960938 -256.329101562 c 0
 102.584960938 -99.1728515625 370.974609375 -24.548828125 516 77 c 1024
EndSplineSet
EndChar

StartChar: o.alt
Encoding: 65632 -1 256
Width: 361
VWidth: -303
Flags: W
LayerCount: 2
Fore
SplineSet
226 217 m 4
 226 217 207.354245538 259.775554354 163.651930019 259.775554354 c 4
 113.706148531 259.775554354 9.71403687037 187.132248987 9.71403687037 71.1961814452 c 4
 9.71403687037 33.3180290797 35.6219037197 -4.67364055814 84.1847664951 -4.67364055814 c 4
 155.371850376 -4.67364055814 228.610307691 87.545223618 228.610307691 182.515166081 c 4
 228.610307691 192.681836685 227.77099393 202.880034686 226 213 c 5
 241.96830287 195.892038976 292.026063581 171 361 171 c 1024
EndSplineSet
EndChar

StartChar: o.alt.high
Encoding: 65633 -1 257
Width: 385
VWidth: -303
Flags: W
LayerCount: 2
Fore
SplineSet
385 171 m 1
 357 171 l 2
 338 171 316 174 316 174 c 2
 277 183 250 213 250 213 c 1
 271 93 160 -38 73 3 c 0
 -14 44 68 181 68 181 c 1
 199 334 250 217 250 217 c 1
 250 217 205 318 92 209 c 1
 92 209 84 198 28 176 c 1
 28 176 13 171 2 171 c 2
 -16 171 l 1025
EndSplineSet
EndChar

StartChar: o.alt.low
Encoding: 65634 -1 258
Width: 427
VWidth: -303
Flags: W
LayerCount: 2
Fore
SplineSet
-1 75.6640625 m 0
 57.0489048587 116.308165202 143.107405267 254.694729618 230.546590922 254.694729618 c 0
 274.61754697 254.694729618 294 211 294 211 c 1
 294 211 274.354245538 254.775554354 230.651930019 254.775554354 c 0
 180.706148531 254.775554354 76.7140368704 182.132248987 76.7140368704 66.1961814452 c 0
 76.7140368704 28.3716322323 102.524479788 -9.62900864791 151.07117404 -9.62900864791 c 0
 222.788864655 -9.62900864791 297.570632031 83.6175239949 297.570632031 178.961974312 c 0
 297.570632031 188.986772808 296.743916322 199.034763875 295 209 c 1
 322 182 368 171 428 171 c 1024
EndSplineSet
EndChar

StartChar: cyr_che.high
Encoding: 65635 -1 259
Width: 401
VWidth: -303
Flags: W
LayerCount: 2
Fore
SplineSet
-0.1240234375 171.16015625 m 21
 53 171.16015625 92.9322636205 200 123 264.48046875 c 5
 108.03785489 231 130 191.447174447 182 191 c 4
 229.093906056 190.59501555 266.292857143 228 285 255 c 5
 285 255 178.201171875 86.552734375 178.201171875 32.837890625 c 4
 178.201171875 28.9072265625 178.772460938 25.5908203125 180 23 c 5
 180 23 188.845703125 -7.767578125 231.341796875 -7.767578125 c 4
 267.241210938 -7.767578125 355.094726562 44.8564453125 401 77 c 1028
EndSplineSet
EndChar

StartChar: cyr_che.low
Encoding: 65636 -1 260
Width: 489
VWidth: -303
Flags: W
LayerCount: 2
Fore
SplineSet
0 76.6640625 m 21
 95.47265625 143.514648438 170.673828125 178 211 264.48046875 c 5
 196.038085938 231 218 191.447265625 270 191 c 4
 317.09375 190.594726562 354.29296875 228 373 255 c 5
 373 255 266.201171875 86.552734375 266.201171875 32.837890625 c 4
 266.201171875 28.9072265625 266.772460938 25.5908203125 268 23 c 5
 268 23 276.845703125 -7.767578125 319.341796875 -7.767578125 c 4
 355.241210938 -7.767578125 443.094726562 44.8564453125 489 77 c 1028
EndSplineSet
EndChar

StartChar: cyr_o.high
Encoding: 65637 -1 261
Width: 401
VWidth: -303
Flags: W
LayerCount: 2
Fore
SplineSet
0 171.16015625 m 17
 110 171.16015625 122 219 184.372070312 249.470703125 c 1
 132.859375 225.592773438 69.7138671875 161.538085938 69.7138671875 71.1962890625 c 0
 69.7138671875 33.318359375 95.6220703125 -4.673828125 144.184570312 -4.673828125 c 0
 215.372070312 -4.673828125 298.610351562 87.544921875 298.610351562 182.515625 c 0
 298.610351562 201.686523438 283.083007812 260 229 260 c 0
 213.6171875 260 187 258 180 238 c 24
 161.102590077 185.087252217 316 171.16015625 401 171.16015625 c 1028
EndSplineSet
EndChar

StartChar: cyr_o.low
Encoding: 65638 -1 262
Width: 481
VWidth: -303
Flags: W
LayerCount: 2
Fore
SplineSet
0 76.6640625 m 1
 40.9576022144 105.342884318 192 219 254.372070312 249.470703125 c 1
 202.859375 225.592773438 139.713867188 161.538085938 139.713867188 71.1962890625 c 0
 139.713867188 33.318359375 165.622070312 -4.673828125 214.184570312 -4.673828125 c 0
 285.372070312 -4.673828125 368.610351562 87.544921875 368.610351562 182.515625 c 0
 368.610351562 201.686523438 353.083007812 260 299 260 c 0
 283.6171875 260 257 258 250 238 c 24
 231.102539062 185.086914062 354 171.16015625 481 171.16015625 c 1028
EndSplineSet
EndChar

StartChar: cyr_el.high
Encoding: 65639 -1 263
Width: 360
Flags: W
LayerCount: 2
Fore
SplineSet
0 171.16015625 m 17
 0 101.16015625 11 0 65 0 c 0
 133 0 221 188 269 264 c 1
 182 118 147 4 227 0 c 1
 253 0 316.807617188 45.35546875 362 77 c 1025
EndSplineSet
EndChar

StartChar: cyr_el.low
Encoding: 65640 -1 264
Width: 363
Flags: W
LayerCount: 2
Fore
SplineSet
0 77 m 17
 0 7 26 0 48 0 c 0
 116 0 224 188 272 264 c 1
 185 118 150 4 230 0 c 1
 256 0 319.807617188 45.35546875 365 77 c 1025
EndSplineSet
EndChar

StartChar: cyr_er.high
Encoding: 65641 -1 265
Width: 492
Flags: W
LayerCount: 2
Fore
SplineSet
0 171.16015625 m 17
 64 171.16015625 132 194 160 264.48046875 c 1
 -38 -268 l 26
 94 76.6640625 l 26
 134 181 199.569335938 264.48046875 312 264.48046875 c 27
 414.931640625 264.48046875 205.515625 0 310 0 c 27
 398.090820312 0 429.10546875 32.625 492 76.6640625 c 1024
EndSplineSet
EndChar

StartChar: cyr_er.low
Encoding: 65642 -1 266
Width: 572
Flags: W
LayerCount: 2
Fore
SplineSet
0 76.6640625 m 17
 108.291900255 152.490867386 179.643554688 201.412109375 240 264.48046875 c 1
 42 -268 l 26
 174 76.6640625 l 26
 214 181 279.569335938 264.48046875 392 264.48046875 c 27
 494.931640625 264.48046875 285.515625 0 390 0 c 27
 478.090820312 0 509.10546875 32.625 572 76.6640625 c 1024
EndSplineSet
EndChar

StartChar: cyr_tse.high
Encoding: 65643 -1 267
Width: 601
VWidth: -303
Flags: W
LayerCount: 2
Fore
SplineSet
0 171 m 0
 96 171 130 175 203 262 c 1
 173 222 82 91 82 26 c 0
 82 10 98 -6 116 -6 c 0
 193 -6 355 195 394 258 c 1
 355 195 287 88 287 36 c 0
 287 24 300 -5 340 -5 c 0
 366 -5 434 45 480 77 c 1
 387 -126 l 18
 372 -158 344 -202 311 -202 c 0
 310 -202 l 0
 292 -202 273 -187 273 -167 c 0
 273 -156 278.633476075 -148.765107665 304 -131 c 2
 601 77 l 1024
EndSplineSet
EndChar

StartChar: cyr_tse.low
Encoding: 65644 -1 268
Width: 585
VWidth: -303
Flags: W
LayerCount: 2
Fore
SplineSet
0 76.6640625 m 0
 44.7177734375 107.975585938 137 179 196.760742188 262.225585938 c 1
 185.211914062 239.849609375 76.41015625 91.302734375 76.41015625 26.0693359375 c 0
 76.41015625 10.298828125 85.0385517469 -5.80904965295 103.2734375 -5.6787109375 c 0
 199.942024328 -4.98774639833 369.606462153 240 378 258 c 1
 369.606462153 240 271 90 271 36 c 0
 271 23.529296875 283.795898438 -5 324 -5 c 0
 350 -5 418 45 464 77 c 1
 371 -126 l 18
 356.1640625 -157.649414062 328.611328125 -202.016601562 295.114257812 -202.016601562 c 0
 294.743164062 -202.016601562 294.372070312 -202.010742188 294 -202 c 0
 276.33203125 -202 257.071289062 -186.471679688 257.071289062 -166.971679688 c 0
 257.071289062 -155.568359375 263.657226562 -142.807617188 281 -131 c 0
 402 -49 526.143925618 35.7885330482 585 77 c 1024
EndSplineSet
EndChar

StartChar: cyr_ka.high
Encoding: 65645 -1 269
Width: 508
VWidth: -303
Flags: W
LayerCount: 2
Fore
SplineSet
401 264.48046875 m 25
 196 161.16015625 l 1
 218 168 237.706054688 172 264 172 c 3
 302.747070312 172 317.788085938 156.701171875 310 140 c 2
 266.571289062 44 l 18
 247.116210938 2.27734375 288.583984375 0 313 0 c 3
 360 0 429.361328125 21.6005859375 508 76.6640625 c 1025
0 171.16015625 m 1
 106 171.16015625 117.998046875 265 196 265 c 3
 215.012695312 265 221.248046875 254.604492188 221.248046875 241 c 3
 221.248046875 213.311523438 203.479492188 177.0546875 183 132 c 2
 123 0 l 1025
EndSplineSet
EndChar

StartChar: cyr_ka.low
Encoding: 65646 -1 270
Width: 587
VWidth: -303
Flags: W
LayerCount: 2
Fore
SplineSet
480 264.48046875 m 25
 275 161.16015625 l 1
 297 168 316.706054688 172 343 172 c 3
 381.747070312 172 396.788085938 156.701171875 389 140 c 2
 345.571289062 44 l 18
 326.116210938 2.27734375 367.583984375 0 392 0 c 3
 439 0 508.361328125 21.6005859375 587 76.6640625 c 1025
0 76.6640625 m 5
 39.08984375 104.03515625 221.997070312 265 274 265 c 3
 293.012695312 265 299.248046875 254.604492188 299.248046875 241 c 3
 299.248046875 213.311523438 281.479492188 177.0546875 261 132 c 2
 201 0 l 1025
EndSplineSet
EndChar

StartChar: t.alt
Encoding: 65647 -1 271
Width: 484
VWidth: 0
Flags: W
LayerCount: 2
Fore
SplineSet
313 340 m 25
 504 340 l 1049
0 0 m 4
 322 101 323.6875 203.158203125 512 536 c 1
 481.76171875 489.846679688 280.198242188 109.28515625 280.198242188 48.330078125 c 0
 280.198242188 18.0908203125 303.919921875 -2.6474609375 332.310546875 -2.6474609375 c 0
 364.813386258 -2.6474609375 445.655492807 50.1508870144 484 77 c 1024
EndSplineSet
EndChar

StartChar: u.alt
Encoding: 65648 -1 272
Width: 727
VWidth: -303
Flags: W
LayerCount: 2
Fore
SplineSet
7 -4 m 4
 7 -4 240 50 378 262 c 1
 378 262 280.880719875 103.653347622 280.880719875 36.6953346171 c 0
 280.880719875 7.79882264094 308.677538157 0.132582187078 332.232147588 0.132582187078 c 0
 368.222405698 0.132582187078 399.539139969 24.2188086253 427 45 c 0
 464 73 587 194 628 262 c 1
 628 262 595 216 587 202 c 2
 587 202 519.587939291 86.5389172957 519.587939291 35.382247112 c 0
 519.587939291 13.2139266187 530.812656371 -1.97530864198 579.023319616 -1.97530864198 c 0
 611.409431674 -1.97530864198 674.897460938 40.5283203125 727 77 c 1024
EndSplineSet
EndChar

StartChar: A.rlow
Encoding: 65649 -1 273
Width: 595
VWidth: -303
Flags: W
LayerCount: 2
Fore
SplineSet
585.9453125 485.456054688 m 0
 585.9453125 485.456054688 551.87109375 517.087890625 486.803710938 517.087890625 c 0
 290.592800166 517.087890625 15.5094336606 182.715465048 15.5094336606 61.8582806762 c 0
 15.5094336606 9.40719422873 55.395591584 -7.6435546875 83.283203125 -7.6435546875 c 0
 306.196178557 -7.6435546875 535 409 584.169921875 483.456054688 c 1
 541 408 370.13790974 164.360163359 370.13790974 49.5966504547 c 0
 370.13790974 19.1713204274 382.080484757 -3.55077397637 415.437099672 -3.55077397637 c 0
 484.395731774 -3.55077397637 558.777601179 51.5111802993 594.708007812 76.669921875 c 1024
EndSplineSet
EndChar

StartChar: B.rlow
Encoding: 65650 -1 274
Width: 606
Flags: W
LayerCount: 2
Fore
SplineSet
45.25 282.150390625 m 17
 155.091796875 339.920898438 265.432617188 395.590820312 353.049804688 547.200195312 c 9
 88 0 l 17
 158.161132812 145.350585938 l 2
 322.1875 485.154296875 378.700195312 547.200195312 506.950195312 547.200195312 c 0
 609.549804688 547.200195312 643.75 478.80078125 643.75 427.5 c 0
 643.75 273.600585938 464.200195312 239.400390625 430 239.400390625 c 0
 399.171875 239.400390625 370.149414062 247.950195312 370.149414062 273.600585938 c 0
 370.149414062 292.71875 378.700195312 299.25 404.349609375 299.25 c 0
 489.849609375 299.25 515.5 222.30078125 515.5 153.900390625 c 27
 515.5 59.8505859375 430 0 335.950195312 0 c 3
 157 0 164.950195312 145.350585938 164.950195312 145.350585938 c 25
 164.950195312 145.350585938 272 26.9501953125 400.299804688 26.9501953125 c 7
 503 26.9501953125 548.225206316 36.2097164442 606 76.6640625 c 1033
EndSplineSet
EndChar

StartChar: C.rlow
Encoding: 65651 -1 275
Width: 503
Flags: W
LayerCount: 2
Fore
SplineSet
542.700195312 547.200195312 m 25
 532.440429688 504.450195312 l 1045
532.440429688 504.450195312 m 21
 532.440429688 528 492.72925108 552.330078125 433.260742188 552.330078125 c 7
 293.040039062 552.330078125 63.900390625 380.475585938 63.900390625 174.419921875 c 19
 63.900390625 77.0458984375 121.550797677 0 262 0 c 3
 365 0 440.354492188 35.630859375 502.852539062 76.6640625 c 1025
EndSplineSet
EndChar

StartChar: D.rhigh
Encoding: 65652 -1 276
Width: 826
Flags: W
LayerCount: 2
Fore
SplineSet
534 548 m 3
 512.950195312 548 403.963916777 534.316198167 345.120117188 422.370117188 c 2
 204.899414062 155.610351562 l 18
 180.13671875 108.500976562 157.01953125 3.419921875 76.6494140625 3.419921875 c 3
 52.7099609375 3.419921875 25.349609375 11.970703125 25.349609375 35.91015625 c 27
 25.349609375 109.440429688 98.8798828125 128.25 189.509765625 128.25 c 3
 235.6796875 128.25 252.779296875 0 393 0 c 3
 579.389648438 0 712.76953125 241.775390625 712.76953125 355.680664062 c 3
 712.76953125 446.310546875 665.149414062 549.91015625 574.51953125 549.91015625 c 3
 487 549.91015625 418 505 418 394 c 3
 418 284 582 171.16015625 826 171.16015625 c 1027
EndSplineSet
EndChar

StartChar: E.rlow
Encoding: 65653 -1 277
Width: 431
Flags: W
LayerCount: 2
Fore
SplineSet
486.180664062 552.330078125 m 25
 469.080078125 502.740234375 l 1053
469.080078125 502.740234375 m 29
 469.080078125 502.740234375 446.850585938 550.620117188 369.900390625 550.620117188 c 3
 271.575195312 550.620117188 185.220703125 476.234375 185.220703125 377.91015625 c 27
 185.220703125 311.219726562 219.419921875 241.109375 286.110351562 241.109375 c 27
 302.35546875 241.109375 320.310546875 247.094726562 320.310546875 263.33984375 c 27
 320.310546875 290.700195312 291.240234375 306.08984375 263.879882812 306.08984375 c 27
 160.424804688 306.08984375 65.5205078125 233.415039062 65.5205078125 129.959960938 c 27
 65.5205078125 52.1552734375 138.1953125 0 216 0 c 3
 302 0 360.25 27.1240234375 431 76.6640625 c 1024
EndSplineSet
EndChar

StartChar: F.rlow
Encoding: 65654 -1 278
Width: 689
Flags: W
LayerCount: 2
Fore
SplineSet
420.740234375 273.599609375 m 25
 590.885742188 273.599609375 l 1049
337.620117188 556 m 17
 337.621895738 555.929772407 337.62278085 555.85850451 337.62278085 555.786207589 c 0
 337.62278085 540.416514073 297.620117188 478.540039062 297.620117188 478.540039062 c 1029
297.620117188 478.540039062 m 5
 327.620117188 525 390 548.91015625 490.850585938 548.91015625 c 3
 630 548.91015625 643.895507812 501.030273438 743.930664062 501.030273438 c 27
 833.705078125 501.030273438 904.669921875 530.955078125 904.669921875 567.719726562 c 3
 904.669921875 589.094726562 872.180664062 612.1796875 832.850585938 612.1796875 c 3
 727.685546875 612.1796875 584.448242188 451.330078125 516.5 288.990234375 c 0
 456.877929688 146.543945312 412.646484375 0 260 0 c 3
 113.794921875 0 34.2802734375 129.959960938 34.2802734375 266.759765625 c 1
 195.356102839 105.683936223 323.462468015 22.4259555571 440.710449191 22.4259555571 c 0
 585.073296683 22.4259555571 637.1015625 40.32421875 689 76.6640625 c 1033
EndSplineSet
EndChar

StartChar: G.rlow
Encoding: 65655 -1 279
Width: 642
Flags: W
LayerCount: 2
Fore
SplineSet
-0.80078125 1.7099609375 m 17
 151.389648438 102.249023438 486.549804688 412.109375 486.549804688 506.16015625 c 3
 486.549804688 531.809570312 466.029296875 552.330078125 440.379882812 552.330078125 c 3
 376.254882812 552.330078125 308.709960938 445.455078125 308.709960938 374.490234375 c 3
 308.709960938 293.264648438 366.849609375 271.889648438 428.409179688 271.889648438 c 3
 560.934570312 271.889648438 696.879882812 420.66015625 696.879882812 420.66015625 c 25
 696.879882812 420.66015625 606.3828125 316.345703125 560.080078125 241.109375 c 0
 519.036132812 174.419921875 469.44921875 0 307 0 c 3
 147.969726562 0 98.9697265625 182.969726562 98.3798828125 263.33984375 c 1
 226 40 466.586914062 -46.1611328125 642 76.6640625 c 1032
EndSplineSet
EndChar

StartChar: H.rhigh
Encoding: 65656 -1 280
Width: 610
Flags: W
LayerCount: 2
Fore
SplineSet
178.849609375 539.504882812 m 16
 183.661351955 541.977782597 208.849313814 550.114546235 241.492668481 550.114546235 c 0
 279.256322178 550.114546235 327.589733959 532.339971197 327.589733959 466.125105036 c 0
 327.589733959 433.944820938 316.173675369 390.323233999 286.580078125 331.740234375 c 10
 119 0 l 1049
787.111328125 539.504882812 m 0
 779 545 761.557617188 554 734 554 c 0
 683.219726562 554 600.536132812 514.202148438 494.1875 297.540039062 c 2
 348.139648438 0 l 1
 360.717734097 25.6672364773 389.544154869 84.5803733767 389.544154869 153.304231647 c 0
 389.544154869 256.201005688 318.81901142 299.484375 292.565429688 299.484375 c 3
 254.288127738 299.484375 241.054362743 276.050447841 241.054362743 252.999262981 c 0
 241.054362743 203.165754959 322.318074781 171.234375 380.629882812 171.234375 c 3
 476.49925129 171.234375 610 171.16015625 610 171.16015625 c 1049
EndSplineSet
EndChar

StartChar: I.rlow
Encoding: 65657 -1 281
Width: 794
Flags: W
LayerCount: 2
Fore
SplineSet
240.44921875 162.450195312 m 17
 172.049804688 154.302734375 52.8046875 172.709960938 18.1494140625 258.209960938 c 9
 18.1494140625 258.209960938 21.5693359375 0 249 0 c 3
 471.299804688 0 715.829101562 372.6640625 715.829101562 485.640625 c 3
 715.829101562 517.275390625 696.1640625 547.200195312 664.529296875 547.200195312 c 3
 555.08984375 547.200195312 424.19921875 351.405273438 424.19921875 189.810546875 c 31
 424.19921875 94.9052734375 427.717773438 22.3046875 497.729492188 -41.0400390625 c 4
 564 -101 717.685546875 23.228515625 794 76.6640625 c 1028
EndSplineSet
EndChar

StartChar: J.rlow
Encoding: 65658 -1 282
Width: 290
Flags: W
LayerCount: 2
Fore
SplineSet
199.240234375 -58.890625 m 17
 124.211914062 8.8798828125 113.740234375 133.391601562 113.740234375 269.4296875 c 11
 113.740234375 395.114257812 179.575195312 529.349609375 305.259765625 529.349609375 c 3
 381.354492188 529.349609375 373.357421875 466.080078125 324.0703125 365.189453125 c 10
 69.2802734375 -156.360351562 l 18
 55.525390625 -184.897460938 6.009765625 -300 -47 -300 c 3
 -69.23046875 -300 -84.6201171875 -279.48046875 -84.6201171875 -257.25 c 3
 -84.6201171875 -187.140625 -9.81086116603 -142.023996776 53.8896484375 -81.1201171875 c 0
 122 -16 213.147460938 22.8515625 290 76.6640625 c 1033
EndSplineSet
EndChar

StartChar: K.rlow
Encoding: 65659 -1 283
Width: 634
Flags: W
LayerCount: 2
Fore
SplineSet
659.4296875 551.474609375 m 17
 473.040039062 551.498046875 463.634765625 271.889648438 314.865234375 271.889648438 c 3
 284.939453125 271.889648438 238.76953125 286.424804688 238.76953125 286.424804688 c 17
 365.45703125 213.477539062 250.979492188 2.564453125 385.830078125 2.564453125 c 3
 446.779861784 2.564453125 543.481349646 12.997078065 634.407226562 76.6640625 c 1025
137.024414062 538.649414062 m 25
 137.024414062 538.649414062 179.774414062 549.764648438 207.990234375 549.764648438 c 27
 255.014648438 549.764648438 293.490234375 513 293.490234375 465.974609375 c 3
 293.490234375 423.482421875 266.348632812 361.665039062 241.334960938 310.365234375 c 10
 90 0 l 1025
EndSplineSet
EndChar

StartChar: L.rlow
Encoding: 65660 -1 284
Width: 720
Flags: W
LayerCount: 2
Fore
SplineSet
134.705078125 288.134765625 m 25
 134.705078125 288.134765625 186.859375 278.729492188 221.059570312 278.729492188 c 3
 395.479492188 278.729492188 626.330078125 392.4453125 626.330078125 493.334960938 c 3
 626.330078125 533.51953125 605.809570312 547.200195312 579.3046875 547.200195312 c 3
 497.224609375 547.200195312 426.390625 403.63671875 383.509765625 317.205078125 c 10
 328.790039062 206.91015625 l 18
 275.51171875 99.521484375 180.875 0 74 0 c 0
 74 0 -0.384765625 1.7099609375 -0.384765625 33.3447265625 c 27
 -0.384765625 64.9794921875 38.9443359375 72.6748046875 70.580078125 72.6748046875 c 3
 216.78515625 72.6748046875 270 -77.73046875 423.349609375 -77.73046875 c 3
 515 -77.73046875 592.396484375 -12.685546875 720 76.6640625 c 1032
EndSplineSet
EndChar

StartChar: M.rlow
Encoding: 65661 -1 285
Width: 743
Flags: W
LayerCount: 2
Fore
SplineSet
124.314453125 531.810546875 m 25
 124.314453125 531.810546875 161.934570312 545.490234375 186.729492188 545.490234375 c 3
 303.009765625 545.490234375 284.322265625 424.533203125 255.984375 365.940429688 c 10
 79 0 l 25
 199.5546875 236.834960938 l 18
 235.172851562 306.807617188 377.39453125 457.42578125 449.21484375 457.42578125 c 3
 473.154296875 457.42578125 495.384765625 442.03515625 495.384765625 418.095703125 c 19
 495.384765625 374.64453125 469.071289062 324.231445312 440.665039062 272.745117188 c 10
 290.184570312 0 l 25
 413.3046875 227.430664062 l 18
 448.6875 292.7890625 561.219726562 399.28515625 624.489257812 399.28515625 c 3
 647.57421875 399.28515625 663.819335938 381.330078125 663.819335938 358.245117188 c 3
 663.819335938 332.595703125 637.012695312 288.381835938 621.069335938 258.209960938 c 10
 541.5546875 107.73046875 l 18
 499.426757812 28.0048828125 508.209960938 -4.2744140625 568.915039062 -4.2744140625 c 3
 616.913335795 -4.2744140625 679.935135348 32.8828205254 742.461010888 76.6639099121 c 1025
EndSplineSet
EndChar

StartChar: N.rlow
Encoding: 65662 -1 286
Width: 526
Flags: W
LayerCount: 2
Fore
SplineSet
97 532 m 29
 97 532 135 545 160 545 c 7
 276 545 257 425 229 366 c 14
 52 0 l 29
 173 237 l 6
 209 307 316 445 415 445 c 7
 438 445 455 427 455 404 c 7
 455 378 439 331 425 304 c 6
 327 113 l 22
 282 25 298 1 359 1 c 7
 405 1 466 35 526 77 c 1029
EndSplineSet
EndChar

StartChar: O.rhigh
Encoding: 65663 -1 287
Width: 613
Flags: W
LayerCount: 2
Fore
SplineSet
414 540.953125 m 0
 344 540.953125 234.922851562 473 166 319 c 0
 102 176 125 0 256 0 c 0
 410 0 495.852539062 106 542 264.48046875 c 0
 590.103515625 429.6796875 516 528 438 528 c 0
 377 528 334.400390625 488 312 432 c 0
 274 337 391 170 614 170 c 1028
EndSplineSet
EndChar

StartChar: P.rhigh
Encoding: 65664 -1 288
Width: 665
Flags: W
LayerCount: 2
Fore
SplineSet
37.25 282.149414062 m 17
 147.092773438 339.920898438 257.432617188 395.58984375 345.049804688 547.200195312 c 9
 80 0 l 17
 150.162109375 145.349609375 l 2
 314.188476562 485.154296875 370.700195312 547.200195312 498.950195312 547.200195312 c 0
 601.549804688 547.200195312 635.75 478.799804688 635.75 427.5 c 0
 635.75 273.599609375 488.690429688 212.040039062 383.525390625 212.040039062 c 0
 335.64453125 212.040039062 252.709960938 235.979492188 213.379882812 262.484375 c 1
 310 210 472 171.16015625 665 171.16015625 c 1033
EndSplineSet
EndChar

StartChar: Q.rlow
Encoding: 65665 -1 289
Width: 731
Flags: W
LayerCount: 2
Fore
SplineSet
90.125 35.91015625 m 17
 43.955078125 78.66015625 34.55078125 148.76953125 34.55078125 195.794921875 c 3
 34.55078125 378.764648438 167.075195312 542.0703125 350.045898438 542.0703125 c 27
 452.645507812 542.0703125 526.17578125 449.73046875 526.17578125 347.129882812 c 27
 526.17578125 160.740234375 383.390625 0 197 0 c 3
 137.150390625 0 66.185546875 35.0546875 66.185546875 79.5146484375 c 3
 66.185546875 104.309570312 92.6904296875 115.424804688 117.485351562 115.424804688 c 3
 218.375 115.424804688 309.005859375 -62.4150390625 459.485351562 -62.4150390625 c 3
 554 -62.4150390625 659.045898438 26.6171875 731 77 c 1032
EndSplineSet
EndChar

StartChar: R.rlow
Encoding: 65666 -1 290
Width: 620
Flags: W
LayerCount: 2
Fore
SplineSet
54.9296875 283.004882812 m 17
 164.772460938 340.776367188 269.982421875 395.590820312 357.599609375 547.200195312 c 1
 84 0 l 17
 154.161132812 145.350585938 l 2
 318.1875 485.154296875 374.69921875 547.200195312 502.94921875 547.200195312 c 3
 605.549804688 547.200195312 639.75 478.799804688 639.75 427.5 c 3
 639.75 324.772460938 485.368164062 282.150390625 422.580078125 282.150390625 c 3
 348.450195312 282.150390625 280.649414062 305.235351562 258.419921875 331.740234375 c 1
 286.634765625 298.395507812 302.330078125 273.564453125 306.299804688 212.040039062 c 10
 313.139648438 106.020507812 l 18
 316.978515625 46.5205078125 343.559570312 0.85546875 396.9296875 0.85546875 c 3
 460.002557554 0.85546875 561.418945312 35.8193359375 619.750976562 76.6640625 c 1029
EndSplineSet
EndChar

StartChar: S.rhigh
Encoding: 65667 -1 291
Width: 689
Flags: W
LayerCount: 2
Fore
SplineSet
0 0 m 1
 342.854492188 102.600585938 688.274414062 408.690429688 688.274414062 503.594726562 c 3
 688.274414062 540.360351562 666.899414062 550.620117188 645.524414062 550.620117188 c 3
 576.26953125 550.620117188 532.665039062 484.78515625 532.665039062 415.530273438 c 3
 532.665039062 346.115234375 530.099609375 233.415039062 530.099609375 233.415039062 c 2
 527.534179688 77.8056640625 432.220703125 2.5654296875 327.46484375 2.5654296875 c 3
 180.716796875 2.5654296875 61.5595703125 153.044921875 61.5595703125 265.905273438 c 1
 281 179 433 171.16015625 688 171.16015625 c 1037
EndSplineSet
EndChar

StartChar: T.rhigh
Encoding: 65668 -1 292
Width: 727
Flags: W
LayerCount: 2
Fore
SplineSet
348.620117188 556 m 25
 349 541 308.620117188 478.540039062 308.620117188 478.540039062 c 1045
308.620117188 478.540039062 m 21
 338.620117188 525 401 548.91015625 501.850585938 548.91015625 c 3
 641 548.91015625 654.895507812 501.030273438 754.930664062 501.030273438 c 27
 844.705078125 501.030273438 915.669921875 530.955078125 915.669921875 567.719726562 c 3
 915.669921875 589.094726562 884.180664062 612.1796875 844.850585938 612.1796875 c 3
 739.684570312 612.180664062 596.448242188 451.330078125 528.5 288.990234375 c 0
 468.877929688 146.543945312 424.646484375 0 272 0 c 3
 125.794921875 0 46.2802734375 129.959960938 46.2802734375 266.759765625 c 1
 187.385830074 141.630046923 413 171.16015625 727 171.16015625 c 1033
EndSplineSet
EndChar

StartChar: U.rlow
Encoding: 65669 -1 293
Width: 609
Flags: W
LayerCount: 2
Fore
SplineSet
144.07421875 536.939453125 m 17
 153.280273438 540.634765625 185.061523438 546.666992188 209.909179688 546.344726562 c 0
 264.736328125 546.344726562 293.69921875 518.990234375 293.69921875 455.71484375 c 3
 293.69921875 418.951171875 276.359375 378.9140625 259.5 347.129882812 c 10
 155.189453125 150.479492188 l 18
 106.688476562 59.0419921875 108.560546875 0 174 0 c 3
 264.799804688 0 401.880859375 160.161132812 429.64453125 212.040039062 c 10
 611.759765625 552.330078125 l 25
 403.995117188 159.029296875 l 18
 365.791992188 86.7109375 317.358398438 0.8544921875 400.57421875 0.8544921875 c 3
 486.004273526 0.8544921875 551.772460938 36.685546875 608.8671875 76.6640625 c 1025
EndSplineSet
EndChar

StartChar: Y.rlow
Encoding: 65670 -1 294
Width: 630
Flags: W
LayerCount: 2
Fore
SplineSet
149.25 530.100585938 m 25
 149.25 530.100585938 189.434570312 547.200195312 215.939453125 547.200195312 c 27
 264.674804688 547.200195312 302.294921875 508.725585938 302.294921875 459.990234375 c 3
 302.294921875 336.870117188 145.830078125 178.6953125 145.830078125 56.4306640625 c 3
 145.830078125 28.21484375 163.784179688 0 192 0 c 3
 288.614257812 0 439.689453125 205.200195312 486.119140625 301.815429688 c 10
 602.399414062 543.780273438 l 1
 253.559570312 -179.549804688 l 18
 236.61328125 -214.689453125 215.231445312 -283.763671875 161.219726562 -283.859375 c 8
 135.569335938 -283.859375 128.729492188 -261.629882812 128.729492188 -235.979492188 c 3
 128.729492188 -143.635742188 363.926707133 -109.530320268 629.83984375 76.6640625 c 1028
EndSplineSet
EndChar

StartChar: Z.rlow
Encoding: 65671 -1 295
Width: 514
Flags: W
LayerCount: 2
Fore
SplineSet
261.075195312 536.940429688 m 1
 280.401367188 544.014648438 314.288955007 546.344726562 340.58984375 546.344726562 c 3
 415 546.344726562 463.709960938 497.610351562 463.709960938 424.080078125 c 3
 463.709960938 211.185546875 143.108398438 19.73046875 120 0 c 1
 144 17 178.139648438 34.2001953125 220.889648438 34.2001953125 c 3
 246.540039062 34.2001953125 258.509765625 6.83984375 258.509765625 -18.8095703125 c 3
 258.509765625 -91.9453125 105.46484375 -282.149414062 41.33984375 -282.149414062 c 3
 23.9501953125 -282.149414062 13.9794921875 -275.000039062 13.9794921875 -254.790039062 c 3
 13.9794921875 -147.000039062 220.972627033 -128.269062444 513.647460938 76.6640625 c 1024
EndSplineSet
EndChar

StartChar: B.rlowlow
Encoding: 65672 -1 296
Width: 678
Flags: W
LayerCount: 2
Fore
SplineSet
0 76.6640625 m 21
 183.580078125 205.208007812 287.495117188 308.948242188 425.049804688 547.200195312 c 1
 160 0 l 17
 230.161132812 145.350585938 l 2
 394.1875 485.154296875 450.700195312 547.200195312 578.950195312 547.200195312 c 0
 681.549804688 547.200195312 715.75 478.80078125 715.75 427.5 c 0
 715.75 273.600585938 536.200195312 239.400390625 502 239.400390625 c 0
 471.171875 239.400390625 442.149414062 247.950195312 442.149414062 273.600585938 c 0
 442.149414062 292.71875 450.700195312 299.25 476.349609375 299.25 c 0
 561.849609375 299.25 587.5 222.30078125 587.5 153.900390625 c 27
 587.5 59.8505859375 502 0 407.950195312 0 c 3
 229 0 236.950195312 145.350585938 236.950195312 145.350585938 c 25
 236.950195312 145.350585938 344 26.9501953125 472.299804688 26.9501953125 c 3
 575 26.9501953125 620.225585938 36.2099609375 678 76.6640625 c 1033
EndSplineSet
EndChar

StartChar: R.rlowlow
Encoding: 65673 -1 297
Width: 697
Flags: W
LayerCount: 2
Fore
SplineSet
0 76.6640625 m 21
 232.729287303 239.622863832 297.044921875 308.948242188 434.599609375 547.200195312 c 1
 161 0 l 17
 231.161132812 145.350585938 l 2
 395.1875 485.154296875 451.69921875 547.200195312 579.94921875 547.200195312 c 3
 682.549804688 547.200195312 716.75 478.799804688 716.75 427.5 c 3
 716.75 324.772460938 562.368164062 282.150390625 499.580078125 282.150390625 c 3
 425.450195312 282.150390625 357.649414062 305.235351562 335.419921875 331.740234375 c 1
 363.634765625 298.395507812 379.330078125 273.564453125 383.299804688 212.040039062 c 10
 390.139648438 106.020507812 l 18
 393.978515625 46.5205078125 420.559570312 0.85546875 473.9296875 0.85546875 c 3
 537.002929688 0.85546875 638.418945312 35.8193359375 696.750976562 76.6640625 c 1025
EndSplineSet
EndChar

StartChar: B.rlowhigh
Encoding: 65674 -1 298
Width: 608
Flags: W
LayerCount: 2
Fore
SplineSet
0 171.16015625 m 21
 124.110351562 171.16015625 217.495117188 308.948242188 355.049804688 547.200195312 c 1
 90 0 l 17
 160.161132812 145.350585938 l 2
 324.1875 485.154296875 380.700195312 547.200195312 508.950195312 547.200195312 c 0
 611.549804688 547.200195312 645.75 478.80078125 645.75 427.5 c 0
 645.75 273.600585938 466.200195312 239.400390625 432 239.400390625 c 0
 401.171875 239.400390625 372.149414062 247.950195312 372.149414062 273.600585938 c 0
 372.149414062 292.71875 380.700195312 299.25 406.349609375 299.25 c 0
 491.849609375 299.25 517.5 222.30078125 517.5 153.900390625 c 27
 517.5 59.8505859375 432 0 337.950195312 0 c 3
 159 0 166.950195312 145.350585938 166.950195312 145.350585938 c 25
 166.950195312 145.350585938 274 26.9501953125 402.299804688 26.9501953125 c 3
 505 26.9501953125 550.225585938 36.2099609375 608 76.6640625 c 1033
EndSplineSet
EndChar

StartChar: R.rlowhigh
Encoding: 65675 -1 299
Width: 637
Flags: W
LayerCount: 2
Fore
SplineSet
0 171.16015625 m 21
 85 171.16015625 237.044921875 308.948242188 374.599609375 547.200195312 c 1
 101 0 l 17
 171.161132812 145.350585938 l 2
 335.1875 485.154296875 391.69921875 547.200195312 519.94921875 547.200195312 c 3
 622.549804688 547.200195312 656.75 478.799804688 656.75 427.5 c 3
 656.75 324.772460938 502.368164062 282.150390625 439.580078125 282.150390625 c 3
 365.450195312 282.150390625 297.649414062 305.235351562 275.419921875 331.740234375 c 1
 303.634765625 298.395507812 319.330078125 273.564453125 323.299804688 212.040039062 c 10
 330.139648438 106.020507812 l 18
 333.978515625 46.5205078125 360.559570312 0.85546875 413.9296875 0.85546875 c 3
 477.002929688 0.85546875 578.418945312 35.8193359375 636.750976562 76.6640625 c 1025
EndSplineSet
EndChar

StartChar: B.fina
Encoding: 65676 -1 300
Width: 606
Flags: W
LayerCount: 2
Fore
SplineSet
45.25 282.150390625 m 17
 155.091796875 339.920898438 265.432617188 395.590820312 353.049804688 547.200195312 c 9
 88 0 l 17
 158.161132812 145.350585938 l 2
 322.1875 485.154296875 378.700195312 547.200195312 506.950195312 547.200195312 c 0
 609.549804688 547.200195312 643.75 478.80078125 643.75 427.5 c 0
 643.75 273.600585938 464.200195312 239.400390625 430 239.400390625 c 0
 399.171875 239.400390625 370.149414062 247.950195312 370.149414062 273.600585938 c 0
 370.149414062 292.71875 378.700195312 299.25 404.349609375 299.25 c 0
 489.849609375 299.25 515.5 222.30078125 515.5 153.900390625 c 27
 515.5 59.8505859375 430 0 335.950195312 0 c 3
 190.599609375 0 164.950195312 145.350585938 164.950195312 145.350585938 c 1049
EndSplineSet
EndChar

StartChar: B.lowfina
Encoding: 65677 -1 301
Width: 678
Flags: W
LayerCount: 2
Fore
SplineSet
0 76.6640625 m 17
 183.580078125 205.208007812 287.495117188 308.948242188 425.049804688 547.200195312 c 1
 160 0 l 17
 230.161132812 145.350585938 l 2
 394.1875 485.154296875 450.700195312 547.200195312 578.950195312 547.200195312 c 0
 681.549804688 547.200195312 715.75 478.80078125 715.75 427.5 c 0
 715.75 273.600585938 536.200195312 239.400390625 502 239.400390625 c 0
 471.171875 239.400390625 442.149414062 247.950195312 442.149414062 273.600585938 c 0
 442.149414062 292.71875 450.700195312 299.25 476.349609375 299.25 c 0
 561.849609375 299.25 587.5 222.30078125 587.5 153.900390625 c 27
 587.5 59.8505859375 502 0 407.950195312 0 c 3
 229 0 236.950195312 145.350585938 236.950195312 145.350585938 c 1049
EndSplineSet
EndChar

StartChar: B.highfina
Encoding: 65678 -1 302
Width: 608
Flags: W
LayerCount: 2
Fore
SplineSet
0 171.16015625 m 17
 124.110351562 171.16015625 217.495117188 308.948242188 355.049804688 547.200195312 c 1
 90 0 l 17
 160.161132812 145.350585938 l 2
 324.1875 485.154296875 380.700195312 547.200195312 508.950195312 547.200195312 c 0
 611.549804688 547.200195312 645.75 478.80078125 645.75 427.5 c 0
 645.75 273.600585938 466.200195312 239.400390625 432 239.400390625 c 0
 401.171875 239.400390625 372.149414062 247.950195312 372.149414062 273.600585938 c 0
 372.149414062 292.71875 380.700195312 299.25 406.349609375 299.25 c 0
 491.849609375 299.25 517.5 222.30078125 517.5 153.900390625 c 27
 517.5 59.8505859375 432 0 337.950195312 0 c 3
 159 0 166.950195312 145.350585938 166.950195312 145.350585938 c 1049
EndSplineSet
EndChar

StartChar: cyr_sha.high
Encoding: 65679 -1 303
Width: 638
VWidth: -303
Flags: W
LayerCount: 2
Fore
SplineSet
0 171.16015625 m 5
 96 171.16015625 130 171.16015625 203 258 c 5
 187 227 107 124 85 40 c 4
 77 10 84 -57 194 43 c 5
 194 43 306 158 380 258 c 5
 365 234 220 56 275 2 c 4
 310 -33 397 61 427 96 c 4
 457 131 552 258 552 258 c 5
 552 258 445 90 445 36 c 4
 445 32 446 29 447 26 c 5
 447 26 456 -5 498 -5 c 4
 524 -5 592 45 638 77 c 1028
EndSplineSet
EndChar

StartChar: cyr_sha.low
Encoding: 65680 -1 304
Width: 651
VWidth: -303
Flags: W
LayerCount: 2
Fore
SplineSet
0 76.6640625 m 4
 44.7175100977 107.97560016 116 171.16015625 196 258 c 5
 180 227 100 124 78 40 c 4
 70 10 77 -57 187 43 c 5
 187 43 299 158 373 258 c 5
 358 234 213 56 268 2 c 4
 303 -33 390 61 420 96 c 4
 450 131 545 258 545 258 c 5
 545 258 438 90 438 36 c 4
 438 32 439 29 440 26 c 5
 440 26 449 -5 491 -5 c 4
 517 -5 585 45 631 77 c 1028
EndSplineSet
EndChar

StartChar: cyr_shcha.high
Encoding: 65681 -1 305
Width: 759
VWidth: -303
Flags: W
LayerCount: 2
Fore
SplineSet
0 171.16015625 m 5
 96 171.16015625 130 171.16015625 203 258 c 5
 187 227 107 124 85 40 c 4
 77 10 84 -57 194 43 c 5
 194 43 306 158 380 258 c 5
 365 234 220 56 275 2 c 4
 310 -33 397 61 427 96 c 4
 457 131 552 258 552 258 c 5
 552 258 445 90 445 36 c 4
 445 32 446 29 447 26 c 5
 447 26 456 -5 498 -5 c 4
 524 -5 592 45 638 77 c 5
 545 -126 l 22
 530 -158 502 -203 468 -202 c 12
 440 -202 408 -163 455 -131 c 4
 576 -49 700 36 759 77 c 1029
EndSplineSet
EndChar

StartChar: cyr_shcha.low
Encoding: 65682 -1 306
Width: 753
VWidth: -303
Flags: W
LayerCount: 2
Fore
SplineSet
0 76.6640625 m 4
 44.7175100977 107.97560016 116 171.16015625 197 258 c 5
 181 227 101 124 79 40 c 4
 71 10 78 -57 188 43 c 5
 188 43 300 158 374 258 c 5
 359 234 214 56 269 2 c 4
 304 -33 391 61 421 96 c 4
 451 131 546 258 546 258 c 5
 546 258 439 90 439 36 c 4
 439 32 440 29 441 26 c 5
 441 26 450 -5 492 -5 c 4
 518 -5 586 45 632 77 c 5
 539 -126 l 22
 524 -158 496 -203 462 -202 c 12
 434 -202 402 -163 449 -131 c 4
 570 -49 694 36 753 77 c 1029
EndSplineSet
EndChar

StartChar: cyr_hard_sign.finahigh
Encoding: 65683 -1 307
Width: 409
Flags: W
LayerCount: 2
Fore
SplineSet
206 113 m 4
 222 146 266 171.16015625 330.400390625 171.16015625 c 4
 397.599609375 171.16015625 412.465783166 108.595799263 396.799804688 75 c 4
 380.012728994 39 337 0 274 0 c 7
 218.799804688 0 200.799804688 48 202.604492188 94 c 28
 205.599609375 167 298 264.48046875 298 264.48046875 c 21
 246.400390625 206 218 171.16015625 165 171.16015625 c 3
 107.090025578 171.16015625 84 197 116 264.48046875 c 1
 94 218 48 171.16015625 0 171.16015625 c 1025
EndSplineSet
EndChar

StartChar: cyr_soft_sign.finahigh
Encoding: 65684 -1 308
Width: 249
Flags: W
LayerCount: 2
Fore
SplineSet
41 113 m 0
 57 146 101 171.16015625 165.400390625 171.16015625 c 0
 232.599609375 171.16015625 247.465820312 108.595703125 231.799804688 75 c 0
 215.012695312 39 172 0 109 0 c 3
 53.7998046875 0 35.7998046875 48 37.6044921875 94 c 24
 40.599609375 167 133 264.48046875 133 264.48046875 c 17
 81.400390625 206 63 171 0 171.16015625 c 1024
EndSplineSet
EndChar

StartChar: cyr_i.high
Encoding: 65685 -1 309
Width: 496
VWidth: -303
Flags: W
LayerCount: 2
Fore
SplineSet
-10 171 m 0
 -10 171 10 170 26 173 c 0
 42 176 96 186 146 261 c 1
 146 261 8 35 61 8 c 0
 114 -19 159 15 196 43 c 0
 233 71 355 193 396 261 c 1
 396 261 363 214 355 200 c 2
 355 200 272 58 295 13 c 5
 315.171528492 -26.4186229882 406.58984375 14.39453125 496 77 c 1024
EndSplineSet
EndChar

StartChar: cyr_i.low
Encoding: 65686 -1 310
Width: 526
VWidth: -303
Flags: W
LayerCount: 2
Fore
SplineSet
-1 76 m 0
 78.15625 131.42578125 144.623046875 197.469726562 187 257 c 1
 187 257 89.880859375 98.6533203125 89.880859375 31.6953125 c 0
 89.880859375 2.798828125 117.677734375 -4.8671875 141.232421875 -4.8671875 c 4
 221 -4.8671875 372.125976562 160.330078125 438 253 c 5
 438 253 404 211 396 197 c 2
 396 197 331.971679688 87.4580078125 331.971679688 30.3076171875 c 0
 331.971679688 22.388671875 333.201171875 15.4765625 336 10 c 1
 336 10 339 -2.75 361.375 -2.75 c 0
 381.970703125 -2.75 462.647460938 31.939453125 527 77 c 1024
EndSplineSet
EndChar

